<svg width="27" height="27" viewBox="0 0 27 27" fill="none" xmlns="http://www.w3.org/2000/svg">
<path d="M26.7812 19.1107C26.563 18.7365 26.2096 18.4687 25.7865 18.3562C25.3628 18.2437 24.9219 18.3007 24.5442 18.517L19.9006 21.1736C19.6885 20.8383 19.3529 20.5787 18.938 20.4684L11.7274 18.5537C11.4582 18.4824 11.2051 18.4741 10.932 18.5274L8.16829 19.069V18.1482C8.16829 17.9665 8.0193 17.8189 7.83597 17.8189H4.08359C3.90026 17.8189 3.75127 17.9665 3.75127 18.1482V18.6443H0.332314C0.148988 18.6443 0 18.7919 0 18.9735V25.8459C0 26.0276 0.148988 26.1752 0.332314 26.1752H3.75127V26.6707C3.75127 26.8524 3.90026 27 4.08359 27H7.83486C8.01819 27 8.16718 26.8524 8.16718 26.6707V25.7499L10.9586 26.297C11.1658 26.3376 11.3541 26.3563 11.5607 26.3563C11.5823 26.3563 11.6044 26.3563 11.6266 26.3557L17.123 26.2526C17.4144 26.2542 17.6991 26.1801 17.9505 26.0363L26.1819 21.3273C26.5597 21.111 26.8299 20.7609 26.9435 20.3416C27.0565 19.9224 26.9989 19.485 26.7812 19.1107ZM0.664629 25.5161V19.3028H3.75127V25.5166H0.664629V25.5161ZM7.50255 26.3415H4.4159V18.4774H7.50255V26.3415ZM26.301 20.1715C26.2334 20.4212 26.0728 20.6292 25.8491 20.7576L17.6176 25.4667C17.4681 25.5523 17.2986 25.5962 17.1242 25.5946C17.1208 25.5946 17.1175 25.5946 17.1142 25.5946L11.6133 25.6977C11.4272 25.701 11.2699 25.6873 11.0871 25.6516L8.16662 25.0793V19.7407L11.0594 19.1738C11.2339 19.1398 11.3818 19.1442 11.554 19.1903L18.7647 21.105C19.087 21.1906 19.3285 21.4277 19.4315 21.7185C19.4354 21.7328 19.4398 21.7465 19.4454 21.7602C19.4958 21.926 19.5019 22.1071 19.4531 22.286C19.3861 22.5335 19.2249 22.7409 18.999 22.8704C18.773 22.9999 18.511 23.0345 18.2612 22.9681L13.3972 21.6768C13.22 21.6296 13.0378 21.7339 12.9902 21.9095C12.9425 22.0851 13.0478 22.2657 13.225 22.3129L18.089 23.6041C18.5099 23.7161 18.9513 23.6579 19.3313 23.4406C19.7112 23.2233 19.9826 22.8737 20.095 22.4566C20.1549 22.236 20.1654 22.0138 20.1333 21.8009L24.8754 19.0882C25.3401 18.8221 25.9366 18.9807 26.2046 19.4411C26.3348 19.6623 26.3686 19.9218 26.301 20.1715ZM0.449178 16.684H26.4932C26.6765 16.684 26.8255 16.5364 26.8255 16.3548V0.329268C26.8255 0.147622 26.6765 0 26.4932 0H0.449178C0.265851 0 0.116864 0.147622 0.116864 0.329268V16.3548C0.116864 16.537 0.265298 16.684 0.449178 16.684ZM0.781492 0.658537H26.1609V16.0255H0.781492V0.658537ZM23.9759 4.87866C22.8322 4.87866 21.9017 3.95671 21.9017 2.82348C21.9017 2.64183 21.7527 2.49421 21.5694 2.49421H5.37297C5.18964 2.49421 5.04065 2.64183 5.04065 2.82348C5.04065 3.95671 4.11017 4.87866 2.96646 4.87866C2.78313 4.87866 2.63414 5.02628 2.63414 5.20793V11.4761C2.63414 11.6577 2.78313 11.8054 2.96646 11.8054C4.11017 11.8054 5.04065 12.7273 5.04065 13.8605C5.04065 14.0422 5.18964 14.1898 5.37297 14.1898H21.5694C21.7527 14.1898 21.9017 14.0422 21.9017 13.8605C21.9017 12.7273 22.8322 11.8054 23.9759 11.8054C24.1592 11.8054 24.3082 11.6577 24.3082 11.4761V5.20793C24.3082 5.02628 24.1592 4.87866 23.9759 4.87866ZM23.6436 11.1666C22.3985 11.3164 21.4088 12.2971 21.2576 13.5307H5.68534C5.53414 12.2971 4.5444 11.3164 3.29933 11.1666V5.51744C4.5444 5.36762 5.53414 4.38695 5.68534 3.15329H21.2576C21.4088 4.38695 22.3985 5.36762 23.6436 5.51744V11.1666ZM13.4709 5.04988C11.6388 5.04988 10.1483 6.52665 10.1483 8.34201C10.1483 10.1574 11.6388 11.6341 13.4709 11.6341C15.3031 11.6341 16.7935 10.1574 16.7935 8.34201C16.7935 6.52665 15.3031 5.04988 13.4709 5.04988ZM13.4709 10.9756C12.0054 10.9756 10.813 9.79408 10.813 8.34201C10.813 6.88994 12.0054 5.70841 13.4709 5.70841C14.9364 5.70841 16.1289 6.88994 16.1289 8.34201C16.1289 9.79408 14.937 10.9756 13.4709 10.9756ZM20.4035 6.76921C19.5279 6.76921 18.8156 7.47494 18.8156 8.34256C18.8156 9.21018 19.5279 9.91537 20.4035 9.91537C21.2792 9.91537 21.9914 9.20963 21.9914 8.34256C21.9914 7.47494 21.2792 6.76921 20.4035 6.76921ZM20.4035 9.25683C19.8945 9.25683 19.4803 8.84634 19.4803 8.34256C19.4803 7.83878 19.8945 7.42774 20.4035 7.42774C20.9125 7.42774 21.3268 7.83823 21.3268 8.34256C21.3268 8.84689 20.9125 9.25683 20.4035 9.25683ZM6.53884 6.76921C5.66319 6.76921 4.95093 7.47494 4.95093 8.34256C4.95093 9.21018 5.66319 9.91537 6.53884 9.91537C7.41449 9.91537 8.12675 9.20963 8.12675 8.34256C8.12619 7.47494 7.41393 6.76921 6.53884 6.76921ZM6.53884 9.25683C6.02984 9.25683 5.61556 8.84634 5.61556 8.34256C5.61556 7.83878 6.02984 7.42774 6.53884 7.42774C7.04783 7.42774 7.46212 7.83823 7.46212 8.34256C7.46212 8.84689 7.04783 9.25683 6.53884 9.25683Z" fill="#F1416C"/>
</svg>
