<?xml version="1.0" encoding="UTF-8"?>
<svg id="Layer_2" xmlns="http://www.w3.org/2000/svg" viewBox="0 0 173.39 217.86">
  <defs>
    <style>
      .cls-1 {
        fill: #10194a;
      }

      .cls-2 {
        fill: #fff;
      }

      .cls-3 {
        fill: #d21b21;
      }
    </style>
  </defs>
  <g id="Layer_1-2" data-name="Layer_1">
    <g>
      <path class="cls-1" d="M173.39,0H0v130.88C0,151.06,14.5,171.78,43.1,192.48c20.95,15.16,41.54,24.45,42.41,24.84l1.19.54,1.2-.54c.87-.39,21.46-9.67,42.41-24.84,28.6-20.7,43.1-41.43,43.1-61.61V0Z"/>
      <rect class="cls-3" width="173.39" height="44.2"/>
      <path class="cls-2" d="M27.15,28.54c0,.45-.21.67-.61.67-.44,0-.65-.24-.65-.71v-7.9h-2.01v5.96c0,.73-.24,1.32-.72,1.78-.48.46-1.05.69-1.71.69h-4.76c-.66,0-1.22-.25-1.68-.74-.46-.5-.69-1.12-.69-1.87v-4.57c0-.73.24-1.33.7-1.8.47-.47,1.11-.71,1.91-.71v-2.56c0-.72.26-1.34.77-1.86.52-.51,1.07-.77,1.66-.77h2.05c.73,0,1.34.28,1.83.85.42.54.63,1.16.63,1.87v2.47h2.01v-3.31c0-.47.22-.7.65-.7.41,0,.61.24.61.7v12.52ZM22.6,26.49v-5.89h-1.41v1.59c0,.71-.19,1.29-.56,1.76-.37.47-.87.71-1.5.71-.58,0-1.1-.24-1.54-.74-.45-.49-.66-1.12-.66-1.88v-1.44c-.31-.05-.59.03-.87.23-.27.2-.4.48-.4.84v5.09c0,.24.11.46.33.68.22.21.48.32.76.32h4.63c.82,0,1.23-.42,1.23-1.27M19.92,22.52v-3.97c0-.65-.28-.97-.83-.97-.6,0-.9.33-.9.97v4.01c0,.56.31.83.94.83.52,0,.79-.29.79-.87M22.53,19.33v-2.71c0-.26-.1-.51-.28-.76-.19-.25-.42-.37-.71-.37h-2.05c-.28,0-.55.1-.79.28-.25.19-.37.41-.37.67.21-.09.51-.14.9-.14.6,0,1.08.22,1.43.65.35.43.52.96.52,1.57v.81h1.34Z"/>
      <path class="cls-2" d="M37.58,28.15c0,2.16-1.2,3.25-3.61,3.25h-3.79c-.31,0-.58.1-.82.3-.24.2-.35.41-.35.62v.42c0,.42-.22.64-.65.64-.41,0-.61-.17-.61-.52v-.42c0-.63.23-1.17.7-1.62.47-.45,1.01-.68,1.61-.68h3.79c.89,0,1.52-.18,1.9-.53.37-.36.56-.98.56-1.88v-9.72c0-.83-.4-1.24-1.22-1.24h-1.88v11.46c0,.54-.19.81-.56.81-.42,0-.63-.26-.63-.78v-10.26c0-.82-.37-1.24-1.11-1.24-.69,0-1.04.39-1.04,1.17v10.47c0,.42-.19.63-.58.63-.46,0-.69-.2-.69-.6v-10.79c0-.63.22-1.15.67-1.55.45-.4.99-.6,1.62-.6s1.17.19,1.66.56v-.56h2.89c.59,0,1.1.24,1.52.72.43.48.64,1.05.64,1.71v10.22Z"/>
      <path class="cls-2" d="M48.41,26.35c0,.85-.24,1.5-.71,1.97-.47.47-1.02.7-1.65.7h-6.35c-.5,0-.74-.2-.74-.6v-12.24c0-.47.22-.7.65-.7.41,0,.61.24.61.7v11.5h3v-11.63c0-.37.17-.56.52-.56h2.14c.7,0,1.3.26,1.78.78.49.52.74,1.14.74,1.87v8.22ZM43.44,13.51c0,.38-.2.56-.6.56s-.6-.19-.6-.56v-2.04c0-.47.2-.71.6-.71s.6.24.6.71v2.04ZM47.14,26.42v-8.4c0-.35-.13-.65-.39-.9-.26-.25-.57-.37-.93-.37h-1.32v10.93h1.43c.81,0,1.21-.42,1.21-1.26"/>
      <path class="cls-2" d="M134.29,28.54c0,.45-.21.67-.61.67-.44,0-.65-.24-.65-.71v-7.9h-2.01v5.96c0,.73-.24,1.32-.72,1.78-.48.46-1.05.69-1.71.69h-4.76c-.66,0-1.22-.25-1.68-.74-.46-.5-.69-1.12-.69-1.87v-4.57c0-.73.24-1.33.7-1.8.47-.47,1.11-.71,1.91-.71v-2.56c0-.72.26-1.34.77-1.86.52-.51,1.07-.77,1.66-.77h2.05c.73,0,1.34.28,1.83.85.42.54.63,1.16.63,1.87v2.47h2.01v-3.31c0-.47.22-.7.65-.7.41,0,.61.24.61.7v12.52ZM129.75,26.49v-5.89h-1.41v1.59c0,.71-.19,1.29-.56,1.76-.37.47-.87.71-1.5.71-.58,0-1.09-.24-1.54-.74-.45-.49-.66-1.12-.66-1.88v-1.44c-.31-.05-.59.03-.87.23-.27.2-.4.48-.4.84v5.09c0,.24.11.46.33.68.22.21.48.32.76.32h4.63c.82,0,1.23-.42,1.23-1.27M127.06,22.52v-3.97c0-.65-.28-.97-.83-.97-.6,0-.9.33-.9.97v4.01c0,.56.31.83.94.83.52,0,.79-.29.79-.87M129.67,19.33v-2.71c0-.26-.1-.51-.28-.76-.19-.25-.42-.37-.71-.37h-2.05c-.28,0-.55.1-.79.28-.25.19-.37.41-.37.67.21-.09.51-.14.9-.14.6,0,1.08.22,1.43.65.35.43.52.96.52,1.57v.81h1.34Z"/>
      <path class="cls-2" d="M147.59,28.25c0,.52-.2.78-.58.78-.46,0-.69-.26-.69-.78v-13.99c0-.73-.26-1.1-.79-1.1h-1.32c-.16,0-.32.09-.46.26-.14.18-.21.36-.21.55v1.02c0,.35.24.75.71,1.19.47.43.7,1.05.7,1.85v10.1c0,2.21-1.21,3.32-3.63,3.32h-3.88c-.28,0-.55.11-.8.32-.24.21-.37.43-.37.67v.39c0,.4-.22.6-.67.6-.4,0-.6-.17-.6-.52v-.45c0-.61.23-1.13.69-1.59.46-.45,1-.68,1.61-.68h4.28c1.39,0,2.09-.64,2.09-1.91v-10.25c0-.85-.56-1.28-1.7-1.28h-1.44v11.6c0,.45-.21.67-.62.67-.44,0-.66-.21-.66-.63v-10.4c0-.82-.37-1.24-1.1-1.24s-1.15.38-1.15,1.13v10.51c0,.42-.19.63-.58.63-.46,0-.69-.21-.69-.63v-10.58c0-.64.24-1.18.72-1.64.48-.46,1.04-.69,1.67-.69.54,0,1.07.19,1.59.56v-.56h2.93c-.26-.28-.39-.55-.39-.81v-.71c0-.56.2-1.05.59-1.46.4-.41.82-.62,1.26-.62h1.47c.59,0,1.06.23,1.43.69.37.46.56,1,.56,1.64v14.03Z"/>
      <path class="cls-2" d="M159.08,32.52c0,.4-.18.6-.53.6-.49,0-.74-.2-.74-.6v-3.49h-3.46c-.61,0-.92-.22-.92-.67,0-.21.22-.42.67-.63.45-.21.67-.55.67-1.02v-8.46c0-.99-.48-1.48-1.42-1.48h-1.89c-.83,0-1.24.43-1.24,1.3v1.66c.12-.21.46-.32,1.01-.32.6,0,1.07.23,1.41.69.34.46.5,1.03.5,1.71v4.87c0,.64-.19,1.19-.57,1.66-.38.47-.87.71-1.46.71-.62,0-1.13-.21-1.55-.64-.41-.42-.62-.94-.62-1.55v-8.71c0-.8.25-1.44.76-1.92.5-.48,1.15-.72,1.92-.72h1.66c1.83,0,2.75.86,2.75,2.58v8.64c0,.54-.13.89-.39,1.06h2.15v-11.49c0-.52.21-.78.64-.78s.63.3.63.88v16.15ZM151.89,26.85v-5.23c0-.68-.26-1.02-.8-1.02-.58,0-.86.37-.86,1.12v5.12c0,.61.27.91.83.91s.83-.3.83-.91"/>
      <path class="cls-2" d="M72.93,79.14c-.02-6.74,5.46-12.24,12.19-12.25,6.74-.02,12.24,5.46,12.25,12.19.01,5.69-3.88,10.47-9.15,11.84l.02,6.24c8.66-1.47,15.25-9.01,15.23-18.09-.02-10.12-8.24-18.3-18.36-18.27-10.12.02-18.3,8.24-18.27,18.36.02,9.08,6.64,16.59,15.31,18.02v-6.24c-5.28-1.35-9.2-6.12-9.22-11.8"/>
      <path class="cls-2" d="M101.8,161.46l2.36-7.87c5.07-2.19,9.71-3.28,13.06-4.14v-42.74c-8.21.62-16.11,3.76-22.52,9l-4.24-5.18c8.37-6.85,18.93-10.62,29.74-10.62h3.7v54.84l-2.61.58c-.09.02-12.73,3.18-19.51,6.11"/>
      <path class="cls-2" d="M86.6,174.84l-2.57-3.02c-6.59-7.77-10.08-16.81-10.08-26.93,0-5.82,1.79-13.93,4.64-20.37l5.05,5.7c-1.99,4.56-3,9.36-3,14.26,0,7.09,2.03,13.79,5.91,19.6,3.77-5.79,5.81-12.61,5.81-19.6,0-19.56-16.46-36.24-36.58-37.75v42.73c3.39.87,7.56,1.94,12.67,4.17l2.41,7.84c-6.79-2.96-19.06-6.1-19.15-6.12l-2.61-.58v-54.85h3.7c25.07,0,46.26,20.4,46.26,44.56,0,9.99-3.52,19.7-9.91,27.33l-2.55,3.04Z"/>
      <rect class="cls-2" x="82.15" y="97.17" width="6.09" height="6.09"/>
      <path class="cls-2" d="M86.85,28.79l-1.04-1.81c-.93-1.61-2.3-2.92-3.94-3.77l-1.85-.96,1.81-1.04c1.61-.93,2.92-2.3,3.77-3.94l.96-1.85,1.04,1.81c.93,1.61,2.3,2.92,3.94,3.77l1.85.96-1.81,1.04c-1.61.93-2.92,2.3-3.77,3.94l-.96,1.85Z"/>
      <path class="cls-2" d="M73.66,26.34l-.6-1.04c-.54-.93-1.32-1.68-2.27-2.18l-1.07-.55,1.04-.6c.93-.54,1.68-1.32,2.18-2.28l.55-1.07.6,1.04c.53.93,1.32,1.68,2.27,2.18l1.07.55-1.04.6c-.93.54-1.68,1.32-2.18,2.27l-.55,1.07Z"/>
      <path class="cls-2" d="M99.91,25.75l-.6-1.04c-.54-.93-1.32-1.68-2.27-2.18l-1.07-.55,1.04-.6c.93-.54,1.68-1.32,2.18-2.28l.55-1.07.6,1.04c.53.93,1.32,1.68,2.27,2.18l1.07.55-1.04.6c-.93.54-1.68,1.32-2.18,2.27l-.55,1.07Z"/>
    </g>
  </g>
</svg>