<svg width="28" height="28" viewBox="0 0 28 28" fill="none" xmlns="http://www.w3.org/2000/svg" xmlns:xlink="http://www.w3.org/1999/xlink">
<path d="M15.987,1.767C15.871,0.772 15.026,0 14,0C12.895,0 12,0.895 12,2L12,12L2,12L1.767,12.013C0.772,12.129 0,12.974 0,14C0,15.105 0.895,16 2,16L12,16L12,26L12.013,26.233C12.129,27.228 12.974,28 14,28C15.105,28 16,27.105 16,26L16,16L26,16L26.233,15.987C27.228,15.871 28,15.026 28,14C28,12.895 27.105,12 26,12L16,12L16,2L15.987,1.767Z" clip-rule="evenodd" fill-rule="evenodd" fill="#FFFFFF"/>
</svg>
