<svg width="18" height="14" viewBox="0 0 18 14" fill="none" xmlns="http://www.w3.org/2000/svg" xmlns:xlink="http://www.w3.org/1999/xlink">
<path d="M17.564,6.336L17.474,6.234L12.025,0.817C11.6,0.394 10.91,0.394 10.484,0.817C10.092,1.208 10.061,1.822 10.394,2.247L10.484,2.349L14.072,5.917L1.448,5.917C0.846,5.917 0.358,6.402 0.358,7C0.358,7.556 0.779,8.013 1.321,8.076L1.448,8.083L14.072,8.083L10.484,11.651C10.092,12.041 10.061,12.656 10.394,13.081L10.484,13.183C10.877,13.573 11.495,13.603 11.923,13.273L12.025,13.183L17.474,7.766C17.867,7.376 17.897,6.761 17.564,6.336Z" clip-rule="evenodd" fill-rule="evenodd" fill="#FFFFFF"/>
</svg>
