<svg width="32" height="24" viewBox="0 0 32 24" fill="none" xmlns="http://www.w3.org/2000/svg" xmlns:xlink="http://www.w3.org/1999/xlink">
<path d="M0.419,10.774L0.586,10.586L10.586,0.586C11.367,-0.195 12.633,-0.195 13.414,0.586C14.135,1.307 14.191,2.441 13.581,3.226L13.414,3.414L6.83,10L30,10C31.105,10 32,10.895 32,12C32,13.026 31.228,13.871 30.233,13.987L30,14L6.83,14L13.414,20.586C14.135,21.307 14.191,22.441 13.581,23.226L13.414,23.414C12.693,24.135 11.559,24.191 10.774,23.581L10.586,23.414L0.586,13.414C-0.135,12.693 -0.191,11.559 0.419,10.774Z" clip-rule="evenodd" fill-rule="evenodd" fill="#F1416C"/>
</svg>
