<svg width="18" height="14" viewBox="0 0 18 14" fill="none" xmlns="http://www.w3.org/2000/svg" xmlns:xlink="http://www.w3.org/1999/xlink">
<path d="M0.592,6.336L0.683,6.234L6.137,0.817C6.563,0.394 7.254,0.394 7.68,0.817C8.073,1.208 8.104,1.822 7.771,2.247L7.68,2.349L4.089,5.917L16.727,5.917C17.329,5.917 17.818,6.402 17.818,7C17.818,7.556 17.397,8.013 16.854,8.076L16.727,8.083L4.089,8.083L7.68,11.651C8.073,12.041 8.104,12.656 7.771,13.081L7.68,13.183C7.287,13.573 6.668,13.603 6.24,13.273L6.137,13.183L0.683,7.766C0.29,7.375 0.259,6.761 0.592,6.336Z" clip-rule="evenodd" fill-rule="evenodd" fill="#10194A"/>
</svg>
