<svg width="32" height="24" viewBox="0 0 32 24" fill="none" xmlns="http://www.w3.org/2000/svg" xmlns:xlink="http://www.w3.org/1999/xlink">
<path d="M31.581,10.774L31.414,10.586L21.414,0.586C20.633,-0.195 19.367,-0.195 18.586,0.586C17.865,1.307 17.809,2.441 18.419,3.226L18.586,3.414L25.17,10L2,10C0.895,10 0,10.895 0,12C0,13.026 0.772,13.871 1.767,13.987L2,14L25.17,14L18.586,20.586C17.865,21.307 17.809,22.441 18.419,23.226L18.586,23.414C19.307,24.135 20.441,24.191 21.226,23.581L21.414,23.414L31.414,13.414C32.135,12.693 32.191,11.559 31.581,10.774Z" clip-rule="evenodd" fill-rule="evenodd" fill="#FFFFFF"/>
</svg>
