<svg width="32" height="24" viewBox="0 0 32 24" fill="none" xmlns="http://www.w3.org/2000/svg" xmlns:xlink="http://www.w3.org/1999/xlink">
<path d="M30.581,10.774L30.414,10.586L20.414,0.586C19.633,-0.195 18.367,-0.195 17.586,0.586C16.865,1.307 16.809,2.441 17.419,3.226L17.586,3.414L24.17,10L1,10C-0.105,10 -1,10.895 -1,12C-1,13.026 -0.228,13.871 0.767,13.987L1,14L24.17,14L17.586,20.586C16.865,21.307 16.809,22.441 17.419,23.226L17.586,23.414C18.307,24.135 19.441,24.191 20.226,23.581L20.414,23.414L30.414,13.414C31.135,12.693 31.191,11.559 30.581,10.774Z" clip-rule="evenodd" fill-rule="evenodd" fill="#FFFFFF"/>
</svg>
