<svg width="48" height="48" viewBox="0 0 48 48" fill="none" xmlns="http://www.w3.org/2000/svg" xmlns:xlink="http://www.w3.org/1999/xlink">
<path d="M7.34,5L7.34,3.5L5.84,3.5L5.84,5L7.34,5ZM9.84,33.94L10.739,32.739L10.737,32.738L9.84,33.94ZM20.26,41.74L19.361,42.941L19.362,42.941L20.26,41.74ZM27.76,41.74L28.658,42.941L28.659,42.941L27.76,41.74ZM38.18,33.94L37.282,32.738L37.281,32.739L38.18,33.94ZM40.68,5L42.18,5L42.18,3.5L40.68,3.5L40.68,5ZM5.84,5L5.84,28.94L8.84,28.94L8.84,5L5.84,5ZM5.84,28.94C5.84,31.368 6.979,33.676 8.942,35.142L10.737,32.738C9.54,31.844 8.84,30.432 8.84,28.94L5.84,28.94ZM8.941,35.141L19.361,42.941L21.159,40.539L10.739,32.739L8.941,35.141ZM19.362,42.941C22.114,45 25.905,45 28.658,42.941L26.862,40.539C25.174,41.8 22.845,41.8 21.158,40.539L19.362,42.941ZM28.659,42.941L39.079,35.141L37.281,32.739L26.861,40.539L28.659,42.941ZM39.077,35.142C41.04,33.676 42.18,31.368 42.18,28.94L39.18,28.94C39.18,30.432 38.479,31.844 37.282,32.738L39.077,35.142ZM42.18,28.94L42.18,5L39.18,5L39.18,28.94L42.18,28.94ZM40.68,3.5L7.34,3.5L7.34,6.5L40.68,6.5L40.68,3.5Z" fill="#10194A"/>
<line x1="4" y1="3.5" x2="44" y2="3.5" stroke="#10194A" stroke-width="1.5" stroke-miterlimit="10" stroke-linecap="round"/>
<line x1="16" y1="14.5" x2="32" y2="14.5" stroke="#10194A" stroke-width="1.5" stroke-miterlimit="10" stroke-linecap="round" stroke-linejoin="round"/>
<line x1="16" y1="24.5" x2="32" y2="24.5" stroke="#10194A" stroke-width="1.5" stroke-miterlimit="10" stroke-linecap="round" stroke-linejoin="round"/>
</svg>
