<svg width="36" height="36" viewBox="0 0 36 36" fill="none" xmlns="http://www.w3.org/2000/svg">
<path d="M10.6631 15.592L10.6617 15.615C10.5731 17.1801 11.4433 18.6463 12.8793 19.3492L12.8941 19.3565C13.4004 19.6004 13.8153 20.0027 14.0771 20.5028L14.083 20.5137C14.8066 21.9017 16.3032 22.7431 17.8987 22.6587L17.9229 22.6574C18.5015 22.6248 19.0759 22.7751 19.5655 23.0877C20.9165 23.9389 22.6314 23.9389 23.9823 23.0877C24.4719 22.7751 25.0463 22.6248 25.6249 22.6574L25.6491 22.6587C27.2419 22.7438 28.7405 21.9017 29.4658 20.5114L29.4694 20.5038C29.7321 20.0023 30.1481 19.5995 30.656 19.3551L30.6678 19.3492C32.1039 18.646 32.9744 17.1801 32.8854 15.6147L32.8841 15.5929C32.8546 15.0417 33.0065 14.496 33.3167 14.0407C34.2099 12.7285 34.2099 10.9983 33.3171 9.68573C33.0071 9.23075 32.8546 8.68542 32.8841 8.13417L32.8854 8.11109C32.9744 6.54568 32.1039 5.07984 30.6665 4.37626L30.6534 4.36967C30.1481 4.12635 29.7341 3.72609 29.472 3.22726L29.4644 3.21242C28.7405 1.82439 27.2419 0.983327 25.6491 1.0674L25.6246 1.06872C25.0463 1.10136 24.4719 0.951017 23.9827 0.638462H23.982C22.631 -0.212821 20.9161 -0.212821 19.5652 0.638462C19.0756 0.950687 18.5012 1.10103 17.9226 1.06839L17.8984 1.06707C16.3052 0.982008 14.807 1.82406 14.0834 3.21176L14.0778 3.22198C13.8157 3.72313 13.4004 4.12569 12.8934 4.37L12.8797 4.37659C11.4436 5.07951 10.5731 6.54568 10.6621 8.11109L10.6634 8.13285C10.6928 8.68411 10.541 9.22976 10.2307 9.68474C9.33761 10.9973 9.33761 12.7279 10.2307 14.0401C10.5407 14.4951 10.6928 15.0407 10.6631 15.592ZM11.334 10.4516C11.8128 9.74936 12.0474 8.90731 12.0016 8.05669L12.0003 8.03361C11.9532 6.99638 12.5311 6.033 13.4642 5.59219L13.4756 5.58658C14.2411 5.21732 14.8678 4.60936 15.2632 3.85303L15.2697 3.8405C15.7505 2.918 16.7575 2.35883 17.827 2.4162L17.8506 2.41719C18.7064 2.46565 19.5557 2.24344 20.2796 1.7812C21.1937 1.20521 22.3535 1.20521 23.2676 1.7812C23.9915 2.24278 24.8408 2.46532 25.6962 2.41752L25.7198 2.4162C26.7946 2.35949 27.7967 2.918 28.2761 3.83786L28.285 3.85468C28.6803 4.61002 29.3064 5.21699 30.0709 5.58593L30.082 5.59153C31.0298 6.05575 31.6051 7.01418 31.5472 8.03394L31.5459 8.05801C31.5001 8.90863 31.735 9.75035 32.2138 10.4526C32.7925 11.3029 32.7921 12.4239 32.2132 13.2738C31.7347 13.9764 31.5001 14.8185 31.5459 15.6691L31.5472 15.6919C31.6051 16.7116 31.0298 17.6704 30.0817 18.1349L30.0719 18.1395C29.3057 18.5095 28.6783 19.1181 28.2827 19.8757L28.2778 19.8856C27.7967 20.8081 26.7913 21.3676 25.7201 21.3099L25.6969 21.3086C24.8411 21.2605 23.9915 21.483 23.2672 21.9449C22.3535 22.5206 21.1937 22.5206 20.2799 21.9449C19.6214 21.5246 18.8576 21.3017 18.078 21.3023C18.0024 21.3023 17.9265 21.3043 17.8506 21.3086L17.827 21.3096C16.7716 21.3772 15.7731 20.8207 15.2687 19.884L15.2619 19.8711C14.8672 19.1161 14.2414 18.5095 13.4773 18.1405L13.4648 18.1343C12.5167 17.6701 11.9414 16.7113 11.9996 15.6919L12.0009 15.6678C12.0464 14.8172 11.8115 13.9751 11.333 13.2732C10.7547 12.4229 10.755 11.3019 11.334 10.4523V10.4516Z" fill="#7239EA"/>
<path d="M17.449 18.8435C17.7629 19.0409 18.1762 18.9443 18.3722 18.6282L26.3122 5.81408C26.4418 5.60933 26.4526 5.35019 26.34 5.13556C26.2274 4.92059 26.0088 4.78344 25.7679 4.77586C25.527 4.76827 25.3006 4.89158 25.1749 5.09896L17.2353 17.913C17.0393 18.2296 17.1348 18.646 17.449 18.8435Z" fill="#7239EA"/>
<path d="M18.1605 11.8964C19.7926 11.8964 21.1207 10.3708 21.1207 8.49585C21.1207 6.62085 19.7926 5.09566 18.1605 5.09566C16.5284 5.09566 15.2007 6.62085 15.2007 8.49585C15.2007 10.3708 16.5284 11.8964 18.1605 11.8964ZM18.1605 6.44611C19.0536 6.44611 19.7802 7.36564 19.7802 8.49585C19.7802 9.62605 19.0536 10.5459 18.1605 10.5459C17.2677 10.5459 16.5412 9.62573 16.5412 8.49585C16.5412 7.36597 17.2677 6.44611 18.1605 6.44611Z" fill="#7239EA"/>
<path d="M22.4268 15.2309C22.4268 17.1059 23.7545 18.6311 25.3866 18.6311C27.0187 18.6311 28.3468 17.1056 28.3468 15.2309C28.3468 13.3566 27.0191 11.8308 25.387 11.8308C23.7545 11.8308 22.4268 13.3556 22.4268 15.2309ZM27.0063 15.2309C27.0063 16.3611 26.2798 17.2807 25.3866 17.2807C24.4939 17.2807 23.7673 16.3611 23.7673 15.2309C23.7673 14.1007 24.4939 13.1812 25.3866 13.1812C26.2798 13.1812 27.0063 14.1001 27.0063 15.2309Z" fill="#7239EA"/>
<path d="M35.913 26.4433C35.0254 24.8565 33.0572 24.2522 31.4421 25.0705L26.1917 27.5696C25.4668 26.2116 24.0763 25.3471 22.5459 25.3036L17.6991 25.1691C16.9316 25.147 16.1786 24.9508 15.4962 24.596L15.003 24.3385C12.4778 23.0125 9.46788 23.0158 6.94527 24.3471L6.97603 23.2215C6.98618 22.8486 6.69458 22.5381 6.32444 22.5278L1.00956 22.3805C0.639417 22.3702 0.331455 22.664 0.32131 23.0369L0.000256908 34.787C-0.00988853 35.1599 0.28171 35.4705 0.651853 35.4807L5.96673 35.6281H5.98539C6.34833 35.6278 6.64516 35.3366 6.65531 34.9713L6.67036 34.4092L8.05112 33.6644C8.59308 33.3706 9.227 33.3008 9.81904 33.4696L18.064 35.8009C18.0784 35.8051 18.0928 35.8084 18.1075 35.8117C18.7035 35.9374 19.3109 36.0003 19.9199 36C21.2094 36.0007 22.4838 35.7207 23.6557 35.1787C23.6845 35.1655 23.7123 35.1504 23.7388 35.1332L35.6934 27.3428C35.9915 27.1489 36.0878 26.7542 35.913 26.4433ZM1.35876 34.1491L1.64283 23.7494L5.61786 23.8595L5.33346 34.2595L1.35876 34.1491ZM23.0516 33.972C21.5955 34.6341 19.9693 34.8167 18.4043 34.4943L10.1813 32.1696C9.25613 31.9058 8.26515 32.0153 7.41851 32.4739L6.71291 32.8543L6.90207 25.9396C9.13766 24.4414 12.0052 24.2874 14.3864 25.5373L14.8796 25.7948C15.7417 26.2432 16.6927 26.4908 17.6624 26.5188L22.5093 26.6534C23.8707 26.6926 25.027 27.6692 25.3032 29.013L18.0836 28.8129C17.7135 28.8027 17.4055 29.0964 17.3954 29.4693C17.3852 29.8422 17.6768 30.1528 18.047 30.163L26.0144 30.3839H26.0333C26.396 30.3836 26.6928 30.0925 26.7029 29.7271C26.7111 29.4337 26.6892 29.1399 26.6381 28.8511L32.0224 26.2877L32.0381 26.2801C32.802 25.8904 33.7258 26.0207 34.3539 26.6065L23.0516 33.972Z" fill="#7239EA"/>
</svg>
