<svg width="34" height="34" viewBox="0 0 34 34" fill="none" xmlns="http://www.w3.org/2000/svg">
<path d="M16.9967 7.14392C11.5657 7.14392 7.14392 11.5657 7.14392 16.9967C7.14392 22.4277 11.5657 26.8494 16.9967 26.8494C22.4277 26.8494 26.8494 22.4277 26.8494 16.9967C26.8494 11.5657 22.4277 7.14392 16.9967 7.14392ZM16.9967 25.7872C12.15 25.7872 8.20621 21.8434 8.20621 16.9967C8.20621 12.15 12.15 8.20621 16.9967 8.20621C21.8434 8.20621 25.7872 12.15 25.7872 16.9967C25.7872 21.8434 21.8434 25.7872 16.9967 25.7872ZM32.7651 14.4472L30.428 12.5882C29.8106 12.0969 29.5251 11.3997 29.6114 10.6163L29.95 7.64851C30.0695 6.63269 29.7442 5.70318 29.0139 4.9795C28.2835 4.24917 27.3607 3.93048 26.3382 4.04999L23.3704 4.3886C22.587 4.47491 21.8899 4.18942 21.3986 3.57196L19.5462 1.23492C18.9221 0.438196 18.0125 0 16.9967 0C15.9676 0 15.0846 0.424917 14.4472 1.23492L12.5882 3.57196C12.1035 4.18942 11.3997 4.47491 10.6163 4.3886L7.64851 4.04999C6.63269 3.93048 5.70318 4.24917 4.9795 4.9795C4.24917 5.70982 3.93048 6.63269 4.04335 7.65515L4.38196 10.6229C4.46827 11.4064 4.18278 12.1035 3.56532 12.5948L1.22828 14.4538C0.424917 15.0846 0 15.9676 0 16.9967C0 18.0125 0.438196 18.9221 1.23492 19.5462L3.57196 21.3986C4.18942 21.8899 4.47491 22.587 4.3886 23.3704L4.04999 26.3382C3.93048 27.3607 4.24917 28.2835 4.9795 29.0139C5.70982 29.7442 6.63269 30.0629 7.65515 29.95L10.6229 29.6114C11.4064 29.5185 12.1035 29.8106 12.5948 30.428L14.4538 32.7651C15.0912 33.5684 15.9742 34 17.0033 34C18.0191 34 18.9287 33.5618 19.5528 32.7651L21.4052 30.428C21.8965 29.8106 22.5936 29.5251 23.3771 29.6114L26.3449 29.95C27.3673 30.0695 28.2902 29.7442 29.0205 29.0139C29.7508 28.2835 30.0695 27.3607 29.95 26.3382L29.6114 23.3704C29.5185 22.5936 29.8106 21.8899 30.428 21.3986L32.7651 19.5462C33.5618 18.9154 34 18.0059 34 16.9967C33.9934 15.9676 33.5684 15.0846 32.7651 14.4472ZM32.1012 18.7163L29.7641 20.5753C28.8612 21.2923 28.423 22.3546 28.5558 23.4966L28.8944 26.4644C28.974 27.1615 28.7616 27.7723 28.2636 28.2636C27.7657 28.7616 27.1549 28.974 26.4577 28.8944L23.4899 28.5558C22.348 28.423 21.2857 28.8678 20.5686 29.7641L18.7096 32.1012C18.2781 32.6456 17.6872 32.9311 16.99 32.9311C16.2996 32.9311 15.702 32.6456 15.2705 32.1012L13.4114 29.7641C12.7807 28.9674 11.8711 28.5292 10.8819 28.5292C10.7491 28.5292 10.6163 28.5358 10.4835 28.5491L7.51572 28.8877C6.82523 28.9674 6.20777 28.7483 5.71646 28.257C5.21851 27.759 5.00605 27.1482 5.08573 26.4511L5.42433 23.4833C5.55048 22.3413 5.11228 21.2724 4.20933 20.562L1.87229 18.703C1.34778 18.2847 1.06229 17.6938 1.06229 16.9967C1.06229 16.3062 1.34778 15.7087 1.89221 15.2771L4.22925 13.4181C5.1322 12.7077 5.5704 11.6387 5.44425 10.4968L5.10564 7.529C5.02597 6.83851 5.24507 6.22105 5.73638 5.72974C6.22769 5.23843 6.85179 5.01933 7.53564 5.099L10.5034 5.43761C11.6454 5.5704 12.7143 5.12556 13.4247 4.22261L15.2837 1.88557C15.7087 1.34778 16.3062 1.06229 16.9967 1.06229C17.6938 1.06229 18.2847 1.34778 18.7163 1.89221L20.5753 4.22925C21.2923 5.1322 22.3546 5.5704 23.4966 5.44425L26.4644 5.10564C27.1615 5.02597 27.7657 5.23843 28.2703 5.73638C28.7616 6.22769 28.9807 6.85179 28.901 7.53564L28.5624 10.5034C28.4296 11.6454 28.8744 12.7143 29.7707 13.4247L32.1078 15.2837C32.6522 15.7153 32.9377 16.3062 32.9377 17.0033C32.9311 17.6938 32.6456 18.2847 32.1012 18.7163ZM20.7479 14.0023L14.0422 20.7081C13.936 20.8143 13.8032 20.8608 13.6637 20.8608C13.531 20.8608 13.3915 20.8077 13.2853 20.7081C13.0795 20.5022 13.0795 20.1636 13.2853 19.9578L19.991 13.2521C20.1968 13.0463 20.5354 13.0463 20.7413 13.2521C20.9537 13.4579 20.9537 13.7965 20.7479 14.0023ZM14.7128 16.9436C15.3103 16.9436 15.868 16.7112 16.2863 16.2929C16.7112 15.8746 16.9436 15.3103 16.9436 14.7194C16.9436 14.1219 16.7112 13.5641 16.2863 13.1392C15.4165 12.2695 14.0023 12.2695 13.1326 13.1392C12.2628 14.009 12.2628 15.4232 13.1326 16.2929C13.5575 16.7112 14.1152 16.9436 14.7128 16.9436ZM13.8828 13.8828C14.341 13.4314 15.0779 13.4314 15.536 13.8828C15.7551 14.1019 15.8813 14.4007 15.8813 14.7128C15.8813 15.0248 15.7618 15.3169 15.536 15.536C15.3169 15.7551 15.0248 15.8746 14.7128 15.8813C14.4007 15.8813 14.1086 15.7618 13.8895 15.536C13.4314 15.0846 13.4314 14.341 13.8828 13.8828ZM19.2873 17.0498C18.6897 17.0498 18.132 17.2822 17.7071 17.7005C17.2822 18.1254 17.0498 18.6831 17.0564 19.2806C17.0564 19.8781 17.2888 20.4359 17.7137 20.8541C18.1386 21.279 18.6964 21.5048 19.2939 21.5048C19.8914 21.5048 20.4491 21.2724 20.8674 20.8541C21.2923 20.4359 21.5247 19.8715 21.5247 19.2806C21.5247 18.6831 21.2923 18.1254 20.874 17.7005C20.4425 17.2822 19.8781 17.0498 19.2873 17.0498ZM20.1105 20.1105C19.8914 20.3296 19.5993 20.4491 19.2873 20.4558C18.9752 20.4558 18.6831 20.3363 18.4573 20.1105C18.2382 19.8914 18.1187 19.5993 18.1121 19.2873C18.1121 18.9752 18.2316 18.6831 18.4573 18.4573C18.6764 18.2382 18.9686 18.1121 19.2806 18.1121C19.5927 18.1121 19.8848 18.2316 20.1039 18.4573C20.323 18.6764 20.4491 18.9752 20.4491 19.2873C20.4491 19.5927 20.3296 19.8848 20.1105 20.1105Z" fill="#F6C000"/>
</svg>
