<svg width="32" height="32" viewBox="0 0 32 32" fill="none" xmlns="http://www.w3.org/2000/svg" xmlns:xlink="http://www.w3.org/1999/xlink">
<path d="M30.082,0.485C29.202,-0.348 27.825,-0.35 26.943,0.481L15,11.736L3.057,0.481C2.175,-0.35 0.798,-0.348 -0.082,0.485L-0.213,0.608C-1.167,1.511 -1.165,3.031 -0.209,3.932L11.536,15L-0.209,26.068C-1.165,26.969 -1.167,28.488 -0.213,29.392L-0.082,29.515C0.798,30.348 2.175,30.35 3.057,29.519L15,18.264L26.943,29.519C27.825,30.35 29.202,30.348 30.082,29.515L30.213,29.392C31.167,28.488 31.165,26.969 30.209,26.068L18.464,15L30.209,3.932C31.165,3.031 31.167,1.511 30.213,0.608L30.082,0.485Z" clip-rule="evenodd" fill-rule="evenodd" fill="#0A1629"/>
</svg>
