<svg width="48" height="48" viewBox="0 0 48 48" fill="none" xmlns="http://www.w3.org/2000/svg" xmlns:xlink="http://www.w3.org/1999/xlink">
<line x1="4" y1="42.5" x2="44" y2="42.5" stroke="#10194A" stroke-width="1.5" stroke-miterlimit="10" stroke-linecap="round" stroke-linejoin="round"/>
<path d="M24,4L24.557,2.607C24.095,2.422 23.571,2.479 23.159,2.758C22.747,3.037 22.5,3.502 22.5,4L24,4ZM34,4L35.5,4C35.5,3.502 35.253,3.037 34.841,2.758C34.429,2.479 33.905,2.422 33.443,2.607L34,4ZM34,10L34.557,11.393C35.127,11.165 35.5,10.613 35.5,10L34,10ZM24,10L22.5,10C22.5,10.613 22.873,11.165 23.443,11.393L24,10ZM23.443,5.393C27.001,6.816 30.999,6.816 34.557,5.393L33.443,2.607C30.601,3.744 27.399,3.744 24.557,2.607L23.443,5.393ZM32.5,4L32.5,10L35.5,10L35.5,4L32.5,4ZM33.443,8.607C30.601,9.744 27.399,9.744 24.557,8.607L23.443,11.393C27.001,12.816 30.999,12.816 34.557,11.393L33.443,8.607ZM25.5,10L25.5,4L22.5,4L22.5,10L25.5,10Z" fill="#10194A"/>
<line x1="22.5" y1="10" x2="22.5" y2="16" stroke="#10194A" stroke-width="1.5" stroke-miterlimit="10" stroke-linecap="round" stroke-linejoin="round"/>
<path d="M8,44L6.5,44C6.5,44.828 7.172,45.5 8,45.5L8,44ZM40,44L40,45.5C40.828,45.5 41.5,44.828 41.5,44L40,44ZM34,14.5L14,14.5L14,17.5L34,17.5L34,14.5ZM14,14.5C11.769,14.5 9.82,15.059 8.439,16.439C7.059,17.82 6.5,19.769 6.5,22L9.5,22C9.5,20.231 9.941,19.18 10.561,18.561C11.18,17.941 12.231,17.5 14,17.5L14,14.5ZM6.5,22L6.5,44L9.5,44L9.5,22L6.5,22ZM8,45.5L40,45.5L40,42.5L8,42.5L8,45.5ZM41.5,44L41.5,22L38.5,22L38.5,44L41.5,44ZM41.5,22C41.5,19.769 40.941,17.82 39.561,16.439C38.18,15.059 36.231,14.5 34,14.5L34,17.5C35.769,17.5 36.82,17.941 37.439,18.561C38.059,19.18 38.5,20.231 38.5,22L41.5,22Z" fill="#10194A"/>
<line x1="9.16" y1="22.5" x2="38.84" y2="22.5" stroke="#10194A" stroke-width="1.5" stroke-miterlimit="10" stroke-linecap="round" stroke-linejoin="round"/>
<line x1="14.48" y1="24" x2="14.48" y2="44" stroke="#10194A" stroke-width="1.5" stroke-miterlimit="10" stroke-linejoin="round"/>
<line x1="22.48" y1="24" x2="22.48" y2="44" stroke="#10194A" stroke-width="1.5" stroke-miterlimit="10" stroke-linejoin="round"/>
<line x1="30.48" y1="24" x2="30.48" y2="44" stroke="#10194A" stroke-width="1.5" stroke-miterlimit="10" stroke-linejoin="round"/>
</svg>
