<svg width="36" height="36" viewBox="0 0 36 36" fill="none" xmlns="http://www.w3.org/2000/svg" xmlns:xlink="http://www.w3.org/1999/xlink">
<path d="M6,0C2.686,0 0,2.686 0,6L0,10C0,13.314 2.686,16 6,16L10,16C13.314,16 16,13.314 16,10L16,6C16,2.686 13.314,0 10,0L6,0ZM26,0C22.686,0 20,2.686 20,6L20,10C20,13.314 22.686,16 26,16L30,16C33.314,16 36,13.314 36,10L36,6C36,2.686 33.314,0 30,0L26,0ZM0,26C0,22.686 2.686,20 6,20L10,20C13.314,20 16,22.686 16,26L16,30C16,33.314 13.314,36 10,36L6,36C2.686,36 0,33.314 0,30L0,26ZM26,20C22.686,20 20,22.686 20,26L20,30C20,33.314 22.686,36 26,36L30,36C33.314,36 36,33.314 36,30L36,26C36,22.686 33.314,20 30,20L26,20Z" clip-rule="evenodd" fill-rule="evenodd" fill="#10194A"/>
</svg>
