<svg width="44" height="44" viewBox="0 0 44 44" fill="none" xmlns="http://www.w3.org/2000/svg" xmlns:xlink="http://www.w3.org/1999/xlink">
<path d="M29.757,1.757L12.586,18.929C12.211,19.304 12,19.813 12,20.343L12,28.343C12,29.448 12.895,30.343 14,30.343L22,30.343C22.53,30.343 23.039,30.132 23.414,29.757L40.586,12.586C42.929,10.243 42.929,6.444 40.586,4.101L38.243,1.757C35.899,-0.586 32.101,-0.586 29.757,1.757ZM37.757,6.929L37.924,7.117C38.534,7.902 38.478,9.036 37.757,9.757L21.168,26.343L16,26.343L16,21.171L32.586,4.586C33.367,3.805 34.633,3.805 35.414,4.586L37.757,6.929ZM20.062,4.343C20.062,3.239 19.166,2.343 18.062,2.343L10,2.343L9.566,2.352C4.245,2.579 0,6.966 0,12.343L0,32.343L0.009,32.777C0.236,38.099 4.622,42.343 10,42.343L30,42.343L30.434,42.334C35.755,42.107 40,37.721 40,32.343L40,22.507L39.987,22.273C39.871,21.279 39.026,20.507 38,20.507C36.895,20.507 36,21.402 36,22.507L36,32.343L35.99,32.696C35.807,35.845 33.195,38.343 30,38.343L10,38.343L9.647,38.333C6.498,38.15 4,35.539 4,32.343L4,12.343L4.01,11.991C4.193,8.841 6.805,6.343 10,6.343L18.062,6.343L18.295,6.33C19.29,6.214 20.062,5.369 20.062,4.343Z" clip-rule="evenodd" fill-rule="evenodd" fill="#10194A"/>
</svg>
