<svg width="48" height="48" viewBox="0 0 48 48" fill="none" xmlns="http://www.w3.org/2000/svg" xmlns:xlink="http://www.w3.org/1999/xlink">
<path d="M30,45.5L18,45.5C7.14,45.5 2.5,40.86 2.5,30L2.5,18C2.5,7.14 7.14,2.5 18,2.5L30,2.5C40.86,2.5 45.5,7.14 45.5,18L45.5,30C45.5,40.86 40.86,45.5 30,45.5ZM18,5.5C8.78,5.5 5.5,8.78 5.5,18L5.5,30C5.5,39.22 8.78,42.5 18,42.5L30,42.5C39.22,42.5 42.5,39.22 42.5,30L42.5,18C42.5,8.78 39.22,5.5 30,5.5L18,5.5Z" fill="#10194A"/>
<path d="M17.64,19.5C15.94,19.5 14.24,18.86 12.94,17.56C12.36,16.98 12.36,16.02 12.94,15.44C13.52,14.86 14.48,14.86 15.06,15.44C16.48,16.86 18.8,16.86 20.22,15.44C20.8,14.86 21.76,14.86 22.34,15.44C22.92,16.02 22.92,16.98 22.34,17.56C21.04,18.84 19.34,19.5 17.64,19.5Z" fill="#10194A"/>
<path d="M30.36,19.5C28.66,19.5 26.96,18.86 25.66,17.56C25.08,16.98 25.08,16.02 25.66,15.44C26.24,14.86 27.2,14.86 27.78,15.44C29.2,16.86 31.52,16.86 32.94,15.44C33.52,14.86 34.48,14.86 35.06,15.44C35.64,16.02 35.64,16.98 35.06,17.56C33.76,18.84 32.06,19.5 30.36,19.5Z" fill="#10194A"/>
<path d="M24,38.3C18.2,38.3 13.5,33.58 13.5,27.8C13.5,25.98 14.98,24.5 16.8,24.5L31.2,24.5C33.02,24.5 34.5,25.98 34.5,27.8C34.5,33.58 29.8,38.3 24,38.3ZM16.8,27.5C16.64,27.5 16.5,27.64 16.5,27.8C16.5,31.94 19.86,35.3 24,35.3C28.14,35.3 31.5,31.94 31.5,27.8C31.5,27.64 31.36,27.5 31.2,27.5L16.8,27.5L16.8,27.5Z" fill="#10194A"/>
</svg>
