<svg width="36" height="40" viewBox="0 0 36 40" fill="none" xmlns="http://www.w3.org/2000/svg" xmlns:xlink="http://www.w3.org/1999/xlink">
<path d="M6,0L28.185,0C29.655,0 31.073,0.539 32.171,1.516C34.648,3.717 34.871,7.509 32.67,9.986L23.093,20.758L23.093,33.528C23.093,34.12 22.982,34.705 22.769,35.254L22.59,35.658C21.413,38.012 18.551,38.965 16.198,37.789L14.409,36.894C12.377,35.878 11.093,33.8 11.093,31.528L11.093,20.762L1.516,9.986C0.637,8.998 0.112,7.75 0.016,6.439L0,6C0,2.686 2.686,0 6,0ZM28.185,4L6,4C4.895,4 4,4.895 4,6C4,6.49 4.18,6.963 4.505,7.329L14.587,18.671C14.913,19.037 15.093,19.51 15.093,20L15.093,31.528C15.093,32.285 15.521,32.978 16.198,33.317L17.987,34.211C18.364,34.4 18.823,34.247 19.012,33.87C19.065,33.763 19.093,33.646 19.093,33.528L19.093,20C19.093,19.51 19.272,19.037 19.598,18.671L29.68,7.329C30.414,6.503 30.34,5.239 29.514,4.505C29.148,4.18 28.675,4 28.185,4Z" clip-rule="evenodd" fill-rule="evenodd" fill="#0A1629"/>
</svg>
