<svg width="88" height="78" viewBox="0 0 88 78" fill="none" xmlns="http://www.w3.org/2000/svg" xmlns:xlink="http://www.w3.org/1999/xlink">
<path d="M59.035,21.777L25.326,21.777C20.458,21.777 16.512,25.723 16.512,30.59L16.512,76.364C13.816,77.923 10.586,78.269 7.621,77.316L7.699,77.08L7.699,23.539C7.699,18.672 11.644,14.726 16.512,14.726L51.984,14.726C55.878,14.726 59.035,17.883 59.035,21.777Z" fill="#C1FFEE"/>
<path d="M15.513,75.684C18.128,74.169 20.004,71.644 20.701,68.703L30.308,34.782C31.251,30.808 34.799,28.001 38.884,28L78.615,28C81.252,28 83.75,29.181 85.424,31.218C87.098,33.255 87.772,35.935 87.262,38.521L79.726,70.058C78.91,74.188 75.289,77.164 71.08,77.164L10,77.164C11.936,77.165 13.838,76.654 15.513,75.684Z" clip-rule="evenodd" fill-rule="evenodd" fill="#00D097"/>
<path d="M72.256,28.68L67.849,28.68C67.85,24.868 64.76,21.777 60.948,21.777L59.035,21.777C59.035,17.883 55.878,14.726 51.985,14.726L16.513,14.726C11.644,14.726 7.699,18.672 7.699,23.539L7.699,77.08L7.621,77.316C3.08,75.847 0.001,71.619 0,66.845L0,9.392C0,4.225 4.189,0.036 9.356,0.036L31.169,0.036C33.296,0.036 35.351,0.806 36.955,2.202L41.827,6.441C43.431,7.838 45.486,8.608 47.613,8.607L62.902,8.607C68.068,8.609 72.256,12.797 72.256,17.963L72.256,28.68Z" clip-rule="evenodd" fill-rule="evenodd" fill="#00D097"/>
<path d="M67.849,28.68L39.884,28.68C35.799,28.681 32.251,31.488 31.308,35.463L21.701,69.384C21.004,72.325 19.127,74.849 16.513,76.364L16.513,30.59C16.513,25.723 20.458,21.777 25.326,21.777L60.948,21.777C64.76,21.777 67.85,24.868 67.849,28.68Z" fill="#71E1C3"/>
</svg>
