<svg width="48" height="48" viewBox="0 0 48 48" fill="none" xmlns="http://www.w3.org/2000/svg" xmlns:xlink="http://www.w3.org/1999/xlink">
<path d="M20.14,5.64L21.077,6.811L21.078,6.81L20.14,5.64ZM6.28,16.74L7.213,17.914L7.217,17.911L6.28,16.74ZM4.06,22.56L5.539,22.313L5.537,22.304L4.06,22.56ZM6.72,38.48L5.24,38.727L5.241,38.73L6.72,38.48ZM41.28,38.48L42.758,38.732L42.759,38.727L41.28,38.48ZM43.94,22.56L45.419,22.807L45.42,22.802L43.94,22.56ZM41.72,16.74L42.66,15.572L42.656,15.568L41.72,16.74ZM27.86,5.66L26.92,6.829L26.923,6.832L27.86,5.66ZM19.202,4.469L5.342,15.569L7.217,17.911L21.077,6.811L19.202,4.469ZM5.346,15.566C4.306,16.393 3.528,17.606 3.056,18.845C2.583,20.085 2.355,21.507 2.582,22.816L5.537,22.304C5.425,21.653 5.526,20.785 5.859,19.915C6.191,19.044 6.693,18.327 7.213,17.914L5.346,15.566ZM2.58,22.807L5.24,38.727L8.199,38.233L5.539,22.313L2.58,22.807ZM5.241,38.73C5.842,42.291 9.187,45.12 12.8,45.12L12.8,42.12C10.652,42.12 8.557,40.349 8.199,38.23L5.241,38.73ZM12.8,45.12L35.2,45.12L35.2,42.12L12.8,42.12L12.8,45.12ZM35.2,45.12C38.793,45.12 42.156,42.27 42.758,38.732L39.801,38.228C39.443,40.33 37.326,42.12 35.2,42.12L35.2,45.12ZM42.759,38.727L45.419,22.807L42.46,22.313L39.8,38.233L42.759,38.727ZM45.42,22.802C45.633,21.498 45.4,20.081 44.929,18.845C44.457,17.61 43.688,16.399 42.66,15.572L40.779,17.908C41.292,18.321 41.792,19.04 42.126,19.915C42.459,20.789 42.566,21.662 42.459,22.318L45.42,22.802ZM42.656,15.568L28.796,4.488L26.923,6.832L40.783,17.912L42.656,15.568ZM28.799,4.491C26.113,2.332 21.872,2.328 19.201,4.47L21.078,6.81C22.647,5.552 25.326,5.548 26.92,6.829L28.799,4.491Z" fill="#10194A"/>
<path d="M27.5,26C27.5,27.933 25.933,29.5 24,29.5L24,32.5C27.59,32.5 30.5,29.59 30.5,26L27.5,26ZM24,29.5C22.067,29.5 20.5,27.933 20.5,26L17.5,26C17.5,29.59 20.41,32.5 24,32.5L24,29.5ZM20.5,26C20.5,24.067 22.067,22.5 24,22.5L24,19.5C20.41,19.5 17.5,22.41 17.5,26L20.5,26ZM24,22.5C25.933,22.5 27.5,24.067 27.5,26L30.5,26C30.5,22.41 27.59,19.5 24,19.5L24,22.5Z" fill="#10194A"/>
</svg>
