<svg width="82" height="104" viewBox="0 0 82 104" fill="none" xmlns="http://www.w3.org/2000/svg" xmlns:xlink="http://www.w3.org/1999/xlink">
<path d="M80.997,0L0.04,0L0.04,62.152C0.04,71.735 6.81,81.574 20.164,91.404C29.945,98.603 39.559,103.015 39.965,103.2L40.521,103.457L41.081,103.2C41.487,103.015 51.101,98.608 60.882,91.404C74.236,81.574 81.006,71.73 81.006,62.147L81.006,0L80.997,0Z" fill="#10194A"/>
<rect  x="0.04" y="0" width="80.957" height="20.99" fill="#D21B21"/>
<path d="M12.716,13.553C12.716,13.767 12.618,13.871 12.432,13.871C12.226,13.871 12.128,13.757 12.128,13.534L12.128,9.783L11.19,9.783L11.19,12.613C11.19,12.959 11.078,13.24 10.854,13.458C10.629,13.676 10.363,13.786 10.055,13.786L7.833,13.786C7.524,13.786 7.263,13.667 7.048,13.434C6.833,13.197 6.726,12.902 6.726,12.546L6.726,10.376C6.726,10.029 6.838,9.745 7.053,9.521C7.272,9.298 7.571,9.184 7.945,9.184L7.945,7.968C7.945,7.627 8.066,7.332 8.304,7.085C8.547,6.843 8.804,6.72 9.079,6.72L10.036,6.72C10.377,6.72 10.662,6.853 10.891,7.123C11.087,7.38 11.185,7.674 11.185,8.011L11.185,9.184L12.123,9.184L12.123,7.612C12.123,7.389 12.226,7.28 12.427,7.28C12.618,7.28 12.712,7.394 12.712,7.612L12.712,13.558L12.716,13.553ZM10.592,12.58L10.592,9.783L9.934,9.783L9.934,10.538C9.934,10.875 9.845,11.15 9.672,11.373C9.499,11.597 9.266,11.711 8.972,11.711C8.701,11.711 8.458,11.597 8.253,11.359C8.043,11.126 7.945,10.827 7.945,10.466L7.945,9.783C7.8,9.759 7.669,9.797 7.538,9.892C7.412,9.987 7.352,10.12 7.352,10.291L7.352,12.708C7.352,12.822 7.403,12.926 7.506,13.031C7.609,13.13 7.73,13.183 7.861,13.183L10.022,13.183C10.405,13.183 10.597,12.983 10.597,12.58M9.341,10.694L9.341,8.809C9.341,8.5 9.21,8.348 8.953,8.348C8.673,8.348 8.533,8.505 8.533,8.809L8.533,10.713C8.533,10.979 8.678,11.107 8.972,11.107C9.215,11.107 9.341,10.97 9.341,10.694ZM10.559,9.179L10.559,7.892C10.559,7.769 10.513,7.65 10.429,7.532C10.34,7.413 10.233,7.356 10.097,7.356L9.14,7.356C9.009,7.356 8.883,7.403 8.771,7.489C8.654,7.579 8.598,7.684 8.598,7.807C8.696,7.764 8.836,7.741 9.019,7.741C9.299,7.741 9.523,7.845 9.686,8.049C9.85,8.253 9.929,8.505 9.929,8.795L9.929,9.179L10.555,9.179L10.559,9.179Z" fill="#FFFFFF"/>
<path d="M17.586,13.368C17.586,14.394 17.026,14.911 15.901,14.911L14.131,14.911C13.986,14.911 13.86,14.959 13.748,15.054C13.636,15.149 13.585,15.248 13.585,15.348L13.585,15.547C13.585,15.747 13.482,15.851 13.281,15.851C13.09,15.851 12.997,15.771 12.997,15.604L12.997,15.405C12.997,15.106 13.104,14.849 13.323,14.636C13.543,14.422 13.795,14.313 14.075,14.313L15.845,14.313C16.26,14.313 16.554,14.227 16.732,14.061C16.905,13.89 16.993,13.596 16.993,13.168L16.993,8.553C16.993,8.158 16.807,7.964 16.424,7.964L15.546,7.964L15.546,13.406C15.546,13.662 15.457,13.79 15.284,13.79C15.088,13.79 14.99,13.667 14.99,13.42L14.99,8.548C14.99,8.158 14.818,7.959 14.472,7.959C14.15,7.959 13.986,8.144 13.986,8.515L13.986,13.486C13.986,13.686 13.898,13.786 13.716,13.786C13.501,13.786 13.393,13.691 13.393,13.501L13.393,8.377C13.393,8.078 13.496,7.831 13.706,7.641C13.916,7.451 14.169,7.356 14.463,7.356C14.757,7.356 15.009,7.446 15.238,7.622L15.238,7.356L16.587,7.356C16.863,7.356 17.101,7.47 17.297,7.698C17.498,7.926 17.596,8.196 17.596,8.51L17.596,13.363L17.586,13.368Z" fill="#FFFFFF"/>
<path d="M22.643,12.513C22.643,12.917 22.531,13.225 22.311,13.449C22.092,13.672 21.835,13.781 21.541,13.781L18.576,13.781C18.343,13.781 18.23,13.686 18.23,13.496L18.23,7.684C18.23,7.46 18.333,7.351 18.534,7.351C18.725,7.351 18.819,7.465 18.819,7.684L18.819,13.145L20.219,13.145L20.219,7.622C20.219,7.446 20.299,7.356 20.462,7.356L21.461,7.356C21.788,7.356 22.068,7.479 22.293,7.726C22.521,7.973 22.638,8.268 22.638,8.614L22.638,12.518L22.643,12.513ZM20.322,6.416C20.322,6.596 20.229,6.682 20.042,6.682C19.855,6.682 19.762,6.591 19.762,6.416L19.762,5.447C19.762,5.224 19.855,5.11 20.042,5.11C20.229,5.11 20.322,5.224 20.322,5.447L20.322,6.416ZM22.05,12.546L22.05,8.557C22.05,8.391 21.989,8.249 21.868,8.13C21.746,8.011 21.602,7.954 21.433,7.954L20.817,7.954L20.817,13.145L21.485,13.145C21.863,13.145 22.05,12.945 22.05,12.546Z" fill="#FFFFFF"/>
<path d="M62.741,13.553C62.741,13.767 62.643,13.871 62.456,13.871C62.251,13.871 62.153,13.757 62.153,13.534L62.153,9.783L61.214,9.783L61.214,12.613C61.214,12.959 61.102,13.24 60.878,13.458C60.654,13.676 60.388,13.786 60.08,13.786L57.857,13.786C57.549,13.786 57.287,13.667 57.073,13.434C56.858,13.197 56.75,12.902 56.75,12.546L56.75,10.376C56.75,10.029 56.863,9.745 57.077,9.521C57.297,9.298 57.596,9.184 57.969,9.184L57.969,7.968C57.969,7.627 58.091,7.332 58.329,7.085C58.571,6.843 58.828,6.72 59.104,6.72L60.061,6.72C60.402,6.72 60.687,6.853 60.915,7.123C61.111,7.38 61.209,7.674 61.209,8.011L61.209,9.184L62.148,9.184L62.148,7.612C62.148,7.389 62.251,7.28 62.451,7.28C62.643,7.28 62.736,7.394 62.736,7.612L62.736,13.558L62.741,13.553ZM60.621,12.58L60.621,9.783L59.963,9.783L59.963,10.538C59.963,10.875 59.874,11.15 59.701,11.373C59.529,11.597 59.295,11.711 59.001,11.711C58.73,11.711 58.492,11.597 58.282,11.359C58.072,11.126 57.974,10.827 57.974,10.466L57.974,9.783C57.829,9.759 57.698,9.797 57.568,9.892C57.442,9.987 57.381,10.12 57.381,10.291L57.381,12.708C57.381,12.822 57.432,12.926 57.535,13.031C57.638,13.13 57.759,13.183 57.89,13.183L60.052,13.183C60.434,13.183 60.626,12.983 60.626,12.58M59.365,10.694L59.365,8.809C59.365,8.5 59.234,8.348 58.978,8.348C58.697,8.348 58.557,8.505 58.557,8.809L58.557,10.713C58.557,10.979 58.702,11.107 58.996,11.107C59.239,11.107 59.365,10.97 59.365,10.694ZM60.584,9.179L60.584,7.892C60.584,7.769 60.537,7.65 60.453,7.532C60.364,7.413 60.257,7.356 60.122,7.356L59.164,7.356C59.034,7.356 58.908,7.403 58.796,7.489C58.679,7.579 58.623,7.684 58.623,7.807C58.721,7.764 58.861,7.741 59.043,7.741C59.323,7.741 59.547,7.845 59.711,8.049C59.874,8.253 59.953,8.505 59.953,8.795L59.953,9.179L60.579,9.179L60.584,9.179Z" fill="#FFFFFF"/>
<path d="M68.951,13.415C68.951,13.662 68.857,13.786 68.68,13.786C68.465,13.786 68.358,13.662 68.358,13.415L68.358,6.772C68.358,6.425 68.236,6.249 67.989,6.249L67.372,6.249C67.298,6.249 67.223,6.292 67.158,6.373C67.092,6.458 67.06,6.544 67.06,6.634L67.06,7.118C67.06,7.285 67.172,7.475 67.391,7.684C67.611,7.888 67.718,8.182 67.718,8.562L67.718,13.358C67.718,14.408 67.153,14.935 66.023,14.935L64.212,14.935C64.081,14.935 63.955,14.987 63.838,15.087C63.726,15.187 63.665,15.291 63.665,15.405L63.665,15.59C63.665,15.78 63.563,15.875 63.352,15.875C63.166,15.875 63.072,15.794 63.072,15.628L63.072,15.415C63.072,15.125 63.18,14.878 63.394,14.659C63.609,14.446 63.861,14.337 64.146,14.337L66.145,14.337C66.794,14.337 67.12,14.033 67.12,13.43L67.12,8.562C67.12,8.158 66.859,7.954 66.327,7.954L65.654,7.954L65.654,13.463C65.654,13.676 65.556,13.781 65.365,13.781C65.159,13.781 65.057,13.681 65.057,13.482L65.057,8.543C65.057,8.154 64.884,7.954 64.543,7.954C64.202,7.954 64.006,8.135 64.006,8.491L64.006,13.482C64.006,13.681 63.917,13.781 63.735,13.781C63.52,13.781 63.413,13.681 63.413,13.482L63.413,8.458C63.413,8.154 63.525,7.897 63.749,7.679C63.973,7.46 64.235,7.351 64.529,7.351C64.781,7.351 65.029,7.441 65.271,7.617L65.271,7.351L66.639,7.351C66.518,7.218 66.457,7.09 66.457,6.966L66.457,6.629C66.457,6.363 66.551,6.131 66.733,5.936C66.92,5.741 67.116,5.642 67.321,5.642L68.007,5.642C68.283,5.642 68.502,5.751 68.675,5.969C68.848,6.188 68.937,6.444 68.937,6.748L68.937,13.411L68.951,13.415Z" fill="#FFFFFF"/>
<path d="M74.315,15.443C74.315,15.633 74.231,15.728 74.068,15.728C73.839,15.728 73.722,15.633 73.722,15.443L73.722,13.786L72.107,13.786C71.822,13.786 71.677,13.681 71.677,13.468C71.677,13.368 71.78,13.268 71.99,13.168C72.2,13.069 72.303,12.907 72.303,12.684L72.303,8.667C72.303,8.196 72.079,7.964 71.64,7.964L70.758,7.964C70.37,7.964 70.179,8.168 70.179,8.581L70.179,9.369C70.235,9.27 70.393,9.217 70.65,9.217C70.93,9.217 71.15,9.327 71.309,9.545C71.467,9.763 71.542,10.034 71.542,10.357L71.542,12.67C71.542,12.974 71.453,13.235 71.276,13.458C71.098,13.681 70.87,13.795 70.594,13.795C70.305,13.795 70.067,13.695 69.871,13.491C69.679,13.292 69.581,13.045 69.581,12.755L69.581,8.619C69.581,8.239 69.698,7.935 69.936,7.707C70.169,7.479 70.473,7.365 70.832,7.365L71.607,7.365C72.462,7.365 72.891,7.774 72.891,8.591L72.891,12.693C72.891,12.95 72.831,13.116 72.709,13.197L73.713,13.197L73.713,7.741C73.713,7.494 73.811,7.37 74.012,7.37C74.213,7.37 74.306,7.513 74.306,7.788L74.306,15.457L74.315,15.443ZM70.958,12.75L70.958,10.267C70.958,9.944 70.837,9.782 70.585,9.782C70.314,9.782 70.183,9.958 70.183,10.314L70.183,12.746C70.183,13.035 70.309,13.178 70.571,13.178C70.832,13.178 70.958,13.035 70.958,12.746Z" fill="#FFFFFF"/>
<path d="M34.092,37.582C34.082,34.381 36.641,31.769 39.783,31.765C42.93,31.755 45.498,34.357 45.503,37.553C45.507,40.255 43.691,42.525 41.231,43.176L41.24,46.139C45.283,45.441 48.36,41.86 48.351,37.549C48.341,32.743 44.504,28.858 39.778,28.873C35.053,28.882 31.234,32.786 31.248,37.591C31.257,41.903 34.348,45.469 38.396,46.149L38.396,43.185C35.931,42.544 34.101,40.279 34.092,37.582Z" fill="#FFFFFF"/>
<path d="M47.571,76.674L48.673,72.936C51.04,71.896 53.207,71.379 54.771,70.97L54.771,50.674C50.937,50.969 47.249,52.46 44.256,54.948L42.276,52.488C46.184,49.235 51.115,47.445 56.162,47.445L57.89,47.445L57.89,73.487L56.671,73.763C56.629,73.772 50.727,75.273 47.562,76.664Z" fill="#FFFFFF"/>
<path d="M40.474,83.027L39.274,81.593C36.197,77.903 34.567,73.611 34.567,68.805C34.567,66.041 35.403,62.19 36.734,59.132L39.092,61.838C38.163,64.004 37.691,66.283 37.691,68.61C37.691,71.977 38.639,75.159 40.45,77.918C42.211,75.168 43.163,71.93 43.163,68.61C43.163,59.322 35.478,51.401 26.084,50.684L26.084,70.975C27.667,71.388 29.614,71.896 31.999,72.955L33.125,76.678C29.954,75.273 24.225,73.782 24.183,73.772L22.965,73.497L22.965,47.45L24.692,47.45C36.398,47.45 46.291,57.137 46.291,68.61C46.291,73.354 44.648,77.965 41.664,81.588L40.474,83.032L40.474,83.027Z" fill="#FFFFFF"/>
<rect  x="38.396" y="46.144" width="2.843" height="2.892" fill="#FFFFFF"/>
<path d="M40.591,13.672L40.105,12.812C39.671,12.048 39.031,11.426 38.266,11.022L37.402,10.566L38.247,10.072C38.999,9.631 39.61,8.98 40.007,8.201L40.455,7.323L40.941,8.182C41.375,8.947 42.015,9.569 42.781,9.972L43.644,10.428L42.799,10.922C42.048,11.364 41.436,12.014 41.039,12.793L40.591,13.672Z" fill="#FFFFFF"/>
<path d="M34.432,12.508L34.152,12.014C33.9,11.573 33.536,11.217 33.092,10.979L32.593,10.718L33.078,10.433C33.513,10.177 33.863,9.806 34.096,9.35L34.353,8.842L34.633,9.336C34.881,9.778 35.249,10.134 35.693,10.371L36.193,10.633L35.707,10.917C35.273,11.174 34.923,11.544 34.689,11.995L34.432,12.504L34.432,12.508Z" fill="#FFFFFF"/>
<path d="M46.689,12.228L46.409,11.734C46.156,11.293 45.792,10.936 45.349,10.699L44.849,10.438L45.335,10.153C45.769,9.896 46.119,9.526 46.353,9.07L46.609,8.562L46.89,9.056C47.137,9.498 47.506,9.854 47.949,10.091L48.449,10.352L47.963,10.637C47.529,10.894 47.179,11.264 46.946,11.715L46.689,12.223L46.689,12.228Z" fill="#FFFFFF"/>
</svg>
