<svg width="40" height="40" viewBox="0 0 40 40" fill="none" xmlns="http://www.w3.org/2000/svg" xmlns:xlink="http://www.w3.org/1999/xlink">
<path d="M40,20C40,31.046 31.046,40 20,40C8.954,40 0,31.046 0,20C0,8.954 8.954,0 20,0C31.046,0 40,8.954 40,20ZM20,18C21.026,18 21.871,18.772 21.987,19.767L22,20L22,28C22,29.105 21.105,30 20,30C18.974,30 18.129,29.228 18.013,28.233L18,28L18,20C18,18.895 18.895,18 20,18ZM22.02,12C22.02,10.895 21.125,10 20.02,10L19.767,10.013C18.772,10.129 18,10.974 18,12C18,13.105 18.895,14 20,14L20.253,13.987C21.248,13.871 22.02,13.026 22.02,12Z" clip-rule="evenodd" fill-rule="evenodd" fill="#10194A"/>
</svg>
