<svg width="32" height="40" viewBox="0 0 32 40" fill="none" xmlns="http://www.w3.org/2000/svg" xmlns:xlink="http://www.w3.org/1999/xlink">
<path d="M16,0C7.148,0 0,7.391 0,16.476C0,21.218 3.596,27.881 10.725,36.784L11.343,37.551C13.436,40.129 17.215,40.521 19.787,38.432C20.107,38.173 20.398,37.882 20.658,37.563C28.198,28.305 32,21.386 32,16.476C32,7.391 24.852,0 16,0ZM16,4C22.612,4 28,9.571 28,16.476C28,20.166 24.54,26.463 17.556,35.037C17.47,35.144 17.373,35.241 17.266,35.327C16.409,36.023 15.149,35.893 14.453,35.035L13.843,34.279C7.261,26.058 4,20.016 4,16.476C4,9.571 9.388,4 16,4ZM16,8C11.582,8 8,11.582 8,16C8,20.418 11.582,24 16,24C20.418,24 24,20.418 24,16C24,11.582 20.418,8 16,8ZM16,12C18.209,12 20,13.791 20,16C20,18.209 18.209,20 16,20C13.791,20 12,18.209 12,16C12,13.791 13.791,12 16,12Z" clip-rule="evenodd" fill-rule="evenodd" fill="#7D8592"/>
</svg>
