<svg width="40" height="40" viewBox="0 0 40 40" fill="none" xmlns="http://www.w3.org/2000/svg" xmlns:xlink="http://www.w3.org/1999/xlink">
<path d="M38,0C39.026,0 39.871,0.772 39.987,1.767L40,2L40,38C40,39.026 39.228,39.871 38.233,39.987L38,40L26,40C24.895,40 24,39.105 24,38C24,36.974 24.772,36.129 25.767,36.013L26,36L36,36L36,4L26,4C24.974,4 24.129,3.228 24.013,2.233L24,2C24,0.974 24.772,0.129 25.767,0.013L26,0L38,0ZM17.226,8.419L17.414,8.586L27.414,18.586C28.135,19.307 28.191,20.441 27.581,21.226L27.414,21.414L17.414,31.414C16.633,32.195 15.367,32.195 14.586,31.414C13.865,30.693 13.809,29.559 14.419,28.774L14.586,28.586L21.17,22L2,22C0.895,22 0,21.105 0,20C0,18.974 0.772,18.129 1.767,18.013L2,18L21.17,18L14.586,11.414C13.865,10.693 13.809,9.559 14.419,8.774L14.586,8.586C15.247,7.925 16.255,7.823 17.023,8.281L17.226,8.419Z" clip-rule="evenodd" fill-rule="evenodd" fill="#7D8592"/>
</svg>
