<svg width="48" height="48" viewBox="0 0 48 48" fill="none" xmlns="http://www.w3.org/2000/svg" xmlns:xlink="http://www.w3.org/1999/xlink">
<path d="M43.32,20.88L41.86,20.538L41.86,20.538L43.32,20.88ZM41.36,29.24L39.9,28.897L39.899,28.9L41.36,29.24ZM30.12,38.78L30.264,37.287L30.24,37.285L30.12,38.78ZM26.88,38.24L27.232,36.782L27.228,36.781L26.88,38.24ZM23.52,37.44L23.868,35.981L23.867,35.98L23.52,37.44ZM14.56,22.98L16.021,23.322L16.021,23.322L14.56,22.98ZM16.52,14.6L15.06,14.256L15.06,14.258L16.52,14.6ZM18,10.2L19.346,10.862L19.351,10.853L18,10.2ZM31,5.64L30.655,7.1L30.659,7.101L31,5.64ZM34.34,6.42L34.682,4.959L34.682,4.959L34.34,6.42ZM41.86,20.538L39.9,28.897L42.821,29.582L44.781,21.222L41.86,20.538ZM39.899,28.9C39.09,32.379 37.941,34.548 36.475,35.803C35.06,37.014 33.123,37.562 30.264,37.287L29.977,40.273C33.358,40.598 36.201,39.986 38.426,38.082C40.6,36.222 41.951,33.32 42.821,29.58L39.899,28.9ZM30.24,37.285C29.331,37.212 28.33,37.047 27.232,36.782L26.528,39.698C27.751,39.993 28.909,40.188 30.001,40.275L30.24,37.285ZM27.228,36.781L23.868,35.981L23.173,38.899L26.533,39.699L27.228,36.781ZM23.867,35.98C19.84,35.024 17.583,33.632 16.452,31.811C15.322,29.991 15.075,27.356 16.021,23.322L13.1,22.638C12.086,26.964 12.149,30.569 13.904,33.394C15.657,36.217 18.861,37.875 23.174,38.899L23.867,35.98ZM16.021,23.322L17.981,14.942L15.06,14.258L13.1,22.638L16.021,23.322ZM17.98,14.944C18.366,13.306 18.814,11.944 19.346,10.862L16.654,9.538C15.987,10.896 15.475,12.494 15.06,14.256L17.98,14.944ZM19.351,10.853C20.387,8.709 21.697,7.505 23.362,6.93C25.098,6.332 27.437,6.339 30.655,7.1L31.346,4.18C27.884,3.361 24.893,3.228 22.384,4.095C19.804,4.985 17.953,6.851 16.65,9.547L19.351,10.853ZM30.659,7.101L33.999,7.881L34.682,4.959L31.341,4.179L30.659,7.101ZM33.999,7.881C38.044,8.827 40.303,10.219 41.433,12.041C42.563,13.862 42.806,16.502 41.86,20.538L44.781,21.222C45.794,16.898 45.737,13.288 43.983,10.459C42.228,7.631 39.016,5.973 34.682,4.959L33.999,7.881Z" fill="#10194A"/>
<path d="M30.12,38.78L30.961,40.022C31.488,39.665 31.732,39.013 31.57,38.398C31.408,37.782 30.874,37.336 30.239,37.285L30.12,38.78ZM25.42,40.94L24.954,39.514L24.951,39.515L25.42,40.94ZM22.26,41.98L22.72,43.408L22.729,43.405L22.26,41.98ZM7.56,34.46L6.133,34.922L6.133,34.924L7.56,34.46ZM5,26.56L3.572,27.02L3.573,27.022L5,26.56ZM12.5,11.86L12.96,13.288L12.969,13.285L12.5,11.86ZM15.66,10.82L15.206,9.39L15.191,9.395L15.66,10.82ZM18,10.2L19.346,10.862C19.597,10.352 19.538,9.744 19.194,9.292C18.849,8.839 18.279,8.62 17.721,8.726L18,10.2ZM16.52,14.6L15.06,14.256L15.059,14.258L16.52,14.6ZM14.56,22.98L16.02,23.322L16.02,23.322L14.56,22.98ZM23.52,37.44L23.867,35.981L23.866,35.981L23.52,37.44ZM26.88,38.24L27.232,36.782L27.227,36.781L26.88,38.24ZM29.278,37.538C28.195,38.272 26.777,38.919 24.954,39.514L25.885,42.366C27.862,41.721 29.564,40.968 30.961,40.022L29.278,37.538ZM24.951,39.515L21.791,40.555L22.729,43.405L25.889,42.365L24.951,39.515ZM21.799,40.552C17.969,41.787 15.415,41.76 13.583,40.822C11.75,39.884 10.231,37.828 8.986,33.996L6.133,34.924C7.468,39.032 9.329,42.016 12.216,43.493C15.104,44.97 18.611,44.733 22.72,43.408L21.799,40.552ZM8.987,33.998L6.427,26.098L3.573,27.022L6.133,34.922L8.987,33.998ZM6.427,26.1C5.192,22.268 5.215,19.708 6.149,17.873C7.082,16.04 9.131,14.522 12.96,13.288L12.039,10.432C7.928,11.758 4.948,13.62 3.475,16.512C2.004,19.402 2.248,22.912 3.572,27.02L6.427,26.1ZM12.969,13.285L16.129,12.245L15.191,9.395L12.031,10.435L12.969,13.285ZM16.113,12.25C16.91,11.997 17.625,11.798 18.279,11.674L17.721,8.726C16.895,8.882 16.049,9.123 15.206,9.39L16.113,12.25ZM16.654,9.538C15.986,10.896 15.474,12.494 15.06,14.256L17.98,14.944C18.365,13.306 18.814,11.944 19.346,10.862L16.654,9.538ZM15.059,14.258L13.099,22.638L16.02,23.322L17.98,14.942L15.059,14.258ZM13.099,22.638C12.085,26.964 12.148,30.569 13.903,33.394C15.657,36.217 18.86,37.875 23.173,38.899L23.866,35.981C19.839,35.025 17.583,33.633 16.451,31.811C15.321,29.991 15.074,27.356 16.02,23.322L13.099,22.638ZM23.172,38.899L26.532,39.699L27.227,36.781L23.867,35.981L23.172,38.899ZM26.528,39.698C27.75,39.993 28.909,40.188 30,40.275L30.239,37.285C29.331,37.212 28.329,37.047 27.232,36.782L26.528,39.698Z" fill="#10194A"/>
<path d="M25.649,15.606C24.846,15.402 24.03,15.888 23.826,16.691C23.623,17.494 24.109,18.31 24.912,18.514L25.649,15.606ZM34.612,20.974C35.415,21.178 36.231,20.692 36.434,19.889C36.638,19.086 36.152,18.27 35.349,18.066L34.612,20.974ZM24.912,18.514L34.612,20.974L35.349,18.066L25.649,15.606L24.912,18.514Z" fill="#10194A"/>
<path d="M23.691,23.347C22.888,23.142 22.072,23.626 21.867,24.429C21.662,25.232 22.147,26.049 22.949,26.253L23.691,23.347ZM28.749,27.733C29.552,27.938 30.369,27.454 30.574,26.651C30.779,25.848 30.294,25.031 29.491,24.827L28.749,27.733ZM22.949,26.253L28.749,27.733L29.491,24.827L23.691,23.347L22.949,26.253Z" fill="#10194A"/>
</svg>
