<svg width="40" height="40" viewBox="0 0 40 40" fill="none" xmlns="http://www.w3.org/2000/svg" xmlns:xlink="http://www.w3.org/1999/xlink">
<path d="M20,0C27.902,0 34.338,6.279 34.592,14.12L34.6,14.602L34.6,23.604C34.6,25.383 35.966,26.844 37.707,26.992L38.266,27.019C40.489,27.257 40.574,30.48 38.523,30.948L38.266,30.991L38,31.005L2,31.005L1.734,30.991C-0.578,30.743 -0.578,27.267 1.734,27.019L2.293,26.992C3.937,26.852 5.247,25.542 5.388,23.897L5.4,23.604L5.4,14.602C5.4,6.538 11.937,0 20,0ZM23.114,34.206C24.655,34.206 25.617,35.876 24.844,37.209C23.842,38.937 21.997,40 20,40C18.003,40 16.158,38.937 15.156,37.209C14.421,35.943 15.253,34.372 16.659,34.218L16.886,34.206L23.114,34.206ZM9.409,14.165C9.638,8.512 14.292,4 20,4C25.854,4 30.6,8.747 30.6,14.602L30.6,23.604L30.61,23.997L30.655,24.513C30.759,25.363 31.008,26.17 31.376,26.906L31.428,27.004L8.57,27.004L8.624,26.906L8.824,26.472C9.195,25.59 9.4,24.621 9.4,23.604L9.4,14.602L9.409,14.165Z" clip-rule="evenodd" fill-rule="evenodd" fill="#10194A"/>
</svg>
