<svg width="24" height="32" viewBox="0 0 24 32" fill="none" xmlns="http://www.w3.org/2000/svg" xmlns:xlink="http://www.w3.org/1999/xlink">
<path d="M13.226,31.581L13.414,31.414L23.414,21.414C24.195,20.633 24.195,19.367 23.414,18.586C22.693,17.865 21.559,17.809 20.774,18.419L20.586,18.586L14,25.17L14,2C14,0.895 13.105,0 12,0C10.974,0 10.129,0.772 10.013,1.767L10,2L10,25.17L3.414,18.586C2.693,17.865 1.559,17.809 0.774,18.419L0.586,18.586C-0.135,19.307 -0.191,20.441 0.419,21.226L0.586,21.414L10.586,31.414C11.307,32.135 12.441,32.191 13.226,31.581Z" fill="#0AC947"/>
</svg>
