<svg width="48" height="48" viewBox="0 0 48 48" fill="none" xmlns="http://www.w3.org/2000/svg" xmlns:xlink="http://www.w3.org/1999/xlink">
<path d="M34,40.5L14,40.5L14,43.5L34,43.5L34,40.5ZM14,40.5C9.989,40.5 8.084,39.962 7.061,38.939C6.038,37.916 5.5,36.011 5.5,32L2.5,32C2.5,35.989 2.962,39.084 4.939,41.061C6.916,43.038 10.011,43.5 14,43.5L14,40.5ZM5.5,32L5.5,16L2.5,16L2.5,32L5.5,32ZM5.5,16C5.5,11.989 6.038,10.084 7.061,9.061C8.084,8.038 9.989,7.5 14,7.5L14,4.5C10.011,4.5 6.916,4.962 4.939,6.939C2.962,8.916 2.5,12.011 2.5,16L5.5,16ZM14,7.5L34,7.5L34,4.5L14,4.5L14,7.5ZM34,7.5C38.011,7.5 39.916,8.038 40.939,9.061C41.962,10.084 42.5,11.989 42.5,16L45.5,16C45.5,12.011 45.038,8.916 43.061,6.939C41.084,4.962 37.989,4.5 34,4.5L34,7.5ZM42.5,16L42.5,32L45.5,32L45.5,16L42.5,16ZM42.5,32C42.5,36.011 41.962,37.916 40.939,38.939C39.916,39.962 38.011,40.5 34,40.5L34,43.5C37.989,43.5 41.084,43.038 43.061,41.061C45.038,39.084 45.5,35.989 45.5,32L42.5,32Z" fill="#10194A"/>
<line x1="28" y1="14.5" x2="38" y2="14.5" stroke="#10194A" stroke-width="1.5" stroke-miterlimit="3.999327" stroke-linecap="round" stroke-linejoin="round"/>
<line x1="30" y1="22.5" x2="38" y2="22.5" stroke="#10194A" stroke-width="1.5" stroke-miterlimit="3.999327" stroke-linecap="round" stroke-linejoin="round"/>
<line x1="34" y1="30.5" x2="38" y2="30.5" stroke="#10194A" stroke-width="1.5" stroke-miterlimit="3.999327" stroke-linecap="round" stroke-linejoin="round"/>
<path d="M19.12,18.96C19.12,20.131 18.171,21.08 17,21.08L17,24.08C19.828,24.08 22.12,21.788 22.12,18.96L19.12,18.96ZM17,21.08C15.829,21.08 14.88,20.131 14.88,18.96L11.88,18.96C11.88,21.788 14.172,24.08 17,24.08L17,21.08ZM14.88,18.96C14.88,17.789 15.829,16.84 17,16.84L17,13.84C14.172,13.84 11.88,16.132 11.88,18.96L14.88,18.96ZM17,16.84C18.171,16.84 19.12,17.789 19.12,18.96L22.12,18.96C22.12,16.132 19.828,13.84 17,13.84L17,16.84Z" fill="#10194A"/>
<path d="M22.507,32.804C22.587,33.629 23.32,34.233 24.144,34.153C24.969,34.073 25.573,33.34 25.493,32.516L22.507,32.804ZM18.52,27.22L18.371,28.713L18.386,28.714L18.52,27.22ZM15.48,27.22L15.624,28.713L15.626,28.713L15.48,27.22ZM8.507,32.516C8.427,33.34 9.031,34.073 9.856,34.153C10.68,34.233 11.413,33.629 11.493,32.804L8.507,32.516ZM25.493,32.516C25.144,28.896 22.272,26.05 18.654,25.726L18.386,28.714C20.568,28.91 22.296,30.624 22.507,32.804L25.493,32.516ZM18.669,25.727C17.569,25.617 16.45,25.618 15.334,25.727L15.626,28.713C16.55,28.622 17.471,28.623 18.371,28.713L18.669,25.727ZM15.336,25.727C11.735,26.075 8.857,28.888 8.507,32.516L11.493,32.804C11.703,30.632 13.425,28.925 15.624,28.713L15.336,25.727Z" fill="#10194A"/>
</svg>
