<svg width="48" height="48" viewBox="0 0 48 48" fill="none" xmlns="http://www.w3.org/2000/svg" xmlns:xlink="http://www.w3.org/1999/xlink">
<path d="M24.24,25.56L24.028,27.045C24.115,27.057 24.204,27.062 24.292,27.059L24.24,25.56ZM23.76,25.56L23.709,27.059C23.789,27.062 23.868,27.058 23.946,27.048L23.76,25.56ZM30.56,19.02L32.06,19.029L32.06,19.02L30.56,19.02ZM24.453,24.075C24.164,24.034 23.849,24.037 23.574,24.072L23.946,27.048C23.961,27.047 23.983,27.045 24.008,27.045C24.019,27.045 24.028,27.045 24.033,27.046C24.039,27.046 24.037,27.046 24.028,27.045L24.453,24.075ZM23.812,24.061C21.097,23.968 18.94,21.749 18.94,19.02L15.94,19.02C15.94,23.371 19.384,26.912 23.709,27.059L23.812,24.061ZM18.94,19.02C18.94,16.225 21.192,13.96 24,13.96L24,10.96C19.529,10.96 15.94,14.575 15.94,19.02L18.94,19.02ZM24,13.96C26.792,13.96 29.06,16.228 29.06,19.02L32.06,19.02C32.06,14.572 28.449,10.96 24,10.96L24,13.96ZM29.06,19.012C29.045,21.755 26.896,23.969 24.189,24.061L24.292,27.059C28.625,26.911 32.036,23.365 32.06,19.029L29.06,19.012Z" fill="#10194A"/>
<path d="M37.48,38.76L38.493,39.866C38.844,39.545 39.022,39.075 38.971,38.601L37.48,38.76ZM10.52,38.76L9.028,38.601C8.978,39.075 9.155,39.545 9.507,39.866L10.52,38.76ZM14.06,33.6L13.23,32.35L13.222,32.356L14.06,33.6ZM33.94,33.6L34.777,32.356L34.774,32.353L33.94,33.6ZM36.467,37.654C33.172,40.671 28.81,42.5 24,42.5L24,45.5C29.589,45.5 34.667,43.369 38.493,39.866L36.467,37.654ZM24,42.5C19.189,42.5 14.827,40.671 11.533,37.654L9.507,39.866C13.332,43.369 18.41,45.5 24,45.5L24,42.5ZM12.011,38.919C12.153,37.589 13.022,36.106 14.897,34.844L13.222,32.356C10.817,33.974 9.287,36.171 9.028,38.601L12.011,38.919ZM14.889,34.849C17.332,33.227 20.637,32.37 24.015,32.37C27.393,32.37 30.685,33.227 33.105,34.847L34.774,32.353C31.754,30.333 27.846,29.37 24.015,29.37C20.182,29.37 16.267,30.333 13.23,32.351L14.889,34.849ZM33.102,34.844C34.977,36.106 35.847,37.589 35.988,38.919L38.971,38.601C38.713,36.171 37.182,33.974 34.777,32.356L33.102,34.844Z" fill="#10194A"/>
<path d="M42.5,24C42.5,34.217 34.217,42.5 24,42.5L24,45.5C35.874,45.5 45.5,35.874 45.5,24L42.5,24ZM24,42.5C13.783,42.5 5.5,34.217 5.5,24L2.5,24C2.5,35.874 12.126,45.5 24,45.5L24,42.5ZM5.5,24C5.5,13.783 13.783,5.5 24,5.5L24,2.5C12.126,2.5 2.5,12.126 2.5,24L5.5,24ZM24,5.5C34.217,5.5 42.5,13.783 42.5,24L45.5,24C45.5,12.126 35.874,2.5 24,2.5L24,5.5Z" fill="#10194A"/>
</svg>
