<svg width="148" height="148" viewBox="0 0 148 148" fill="none" xmlns="http://www.w3.org/2000/svg" xmlns:xlink="http://www.w3.org/1999/xlink">
<path d="M74,4C75.105,4 76,3.105 76,2C76,0.895 75.105,0 74,0L74,4ZM146.633,59.773C146.422,58.688 145.372,57.981 144.288,58.192C143.204,58.403 142.496,59.453 142.707,60.537L146.633,59.773ZM74,0C33.131,0 0,33.131 0,74L4,74C4,35.34 35.34,4 74,4L74,0ZM0,74C0,114.869 33.131,148 74,148L74,144C35.34,144 4,112.66 4,74L0,74ZM74,148C114.869,148 148,114.869 148,74L144,74C144,112.66 112.66,144 74,144L74,148ZM148,74C148,69.135 147.53,64.378 146.633,59.773L142.707,60.537C143.555,64.892 144,69.393 144,74L148,74Z" fill="#D21B21"/>
</svg>
