<svg width="138" height="64" viewBox="0 0 138 64" fill="none" xmlns="http://www.w3.org/2000/svg" xmlns:xlink="http://www.w3.org/1999/xlink">
<path d="M67.497,2.382L67.536,2.382L67.536,1.187L69.41,1.187L69.41,10.273L67.509,10.273L67.509,6.868L67.47,6.868C67.144,7.623 66.33,8.146 65.315,8.146C63.569,8.146 62.483,6.792 62.483,4.6C62.483,2.409 63.584,1.078 65.348,1.078C66.363,1.078 67.138,1.601 67.497,2.382ZM67.518,4.612C67.518,3.367 66.898,2.573 65.961,2.573C65.024,2.573 64.432,3.352 64.432,4.612C64.432,5.872 65.012,6.645 65.961,6.645C66.91,6.645 67.518,5.867 67.518,4.612Z" fill="#FFFFFF"/>
<path d="M77.095,8.037L75.26,8.037L75.26,6.804L75.221,6.804C74.877,7.667 74.185,8.164 73.131,8.164C71.62,8.164 70.617,7.2 70.617,5.602L70.617,1.187L72.518,1.187L72.518,5.214C72.518,6.128 72.979,6.613 73.82,6.613C74.661,6.613 75.194,6.019 75.194,5.112L75.194,1.187L77.095,1.187L77.095,8.037Z" fill="#FFFFFF"/>
<path d="M84.699,5.943C84.493,7.285 83.241,8.187 81.514,8.187C79.364,8.187 78.074,6.839 78.074,4.647C78.074,2.456 79.376,1.043 81.442,1.043C83.508,1.043 84.756,2.391 84.756,4.474L84.756,5.041L79.945,5.041L79.945,5.156C79.945,6.134 80.577,6.804 81.547,6.804C82.244,6.804 82.777,6.466 82.954,5.94L84.699,5.94L84.699,5.943ZM79.966,3.898L82.93,3.898C82.891,3.023 82.31,2.421 81.463,2.421C80.616,2.421 80.029,3.04 79.966,3.898Z" fill="#FFFFFF"/>
<path d="M92.103,5.943C91.893,7.285 90.645,8.187 88.917,8.187C86.768,8.187 85.478,6.839 85.478,4.647C85.478,2.456 86.78,1.043 88.846,1.043C90.911,1.043 92.16,2.391 92.16,4.474L92.16,5.041L87.349,5.041L87.349,5.156C87.349,6.134 87.98,6.804 88.95,6.804C89.648,6.804 90.181,6.466 90.357,5.94L92.103,5.94L92.103,5.943ZM87.37,3.898L90.333,3.898C90.295,3.023 89.717,2.421 88.87,2.421C88.022,2.421 87.436,3.04 87.373,3.898Z" fill="#FFFFFF"/>
<path d="M94.974,1.187L94.974,2.409L95.013,2.409C95.384,1.56 96.12,1.06 97.195,1.06C98.746,1.06 99.617,2.018 99.617,3.622L99.617,8.037L97.716,8.037L97.716,4.01C97.716,3.114 97.285,2.603 96.432,2.603C95.579,2.603 95.037,3.217 95.037,4.104L95.037,8.035L93.136,8.035L93.136,1.187L94.974,1.187Z" fill="#FFFFFF"/>
<path d="M62.737,12.582L64.572,12.582L64.572,13.822L64.611,13.822C64.905,12.996 65.653,12.453 66.605,12.453C67.614,12.453 68.317,12.964 68.551,13.86L68.59,13.86C68.901,12.996 69.736,12.453 70.757,12.453C72.125,12.453 73.045,13.372 73.045,14.753L73.045,19.43L71.144,19.43L71.144,15.217C71.144,14.424 70.739,13.989 70.003,13.989C69.266,13.989 68.802,14.506 68.802,15.267L68.802,19.427L66.973,19.427L66.973,15.158C66.973,14.424 66.551,13.989 65.848,13.989C65.144,13.989 64.635,14.527 64.635,15.293L64.635,19.43L62.734,19.43L62.734,12.579L62.737,12.582Z" fill="#FFFFFF"/>
<path d="M74.218,10.864C74.218,10.32 74.661,9.897 75.233,9.897C75.805,9.897 76.251,10.32 76.251,10.864C76.251,11.407 75.808,11.827 75.233,11.827C74.658,11.827 74.218,11.398 74.218,10.864ZM74.281,12.582L76.182,12.582L76.182,19.433L74.281,19.433L74.281,12.582Z" fill="#FFFFFF"/>
<path d="M77.445,12.582L79.281,12.582L79.281,13.816L79.319,13.816C79.565,12.946 80.161,12.473 80.981,12.473C81.203,12.473 81.391,12.506 81.52,12.544L81.52,14.186C81.364,14.121 81.104,14.077 80.831,14.077C79.894,14.077 79.346,14.638 79.346,15.605L79.346,19.433L77.445,19.433L77.445,12.582Z" fill="#FFFFFF"/>
<path d="M81.867,17.464C81.867,16.219 82.843,15.496 84.582,15.393L86.34,15.291L86.34,14.838C86.34,14.198 85.885,13.828 85.169,13.828C84.454,13.828 84.008,14.171 83.918,14.677L82.179,14.677C82.25,13.349 83.403,12.435 85.253,12.435C87.103,12.435 88.211,13.343 88.211,14.724L88.211,19.433L86.376,19.433L86.376,18.384L86.337,18.384C85.948,19.112 85.079,19.541 84.208,19.541C82.879,19.541 81.87,18.698 81.87,17.464M86.34,16.921L86.34,16.422L84.867,16.51C84.157,16.56 83.753,16.874 83.753,17.359C83.753,17.87 84.184,18.19 84.828,18.19C85.654,18.19 86.34,17.661 86.34,16.918Z" fill="#FFFFFF"/>
<path d="M62.704,22.259C62.704,21.715 63.147,21.295 63.719,21.295C64.291,21.295 64.734,21.715 64.734,22.259C64.734,22.802 64.291,23.225 63.719,23.225C63.147,23.225 62.704,22.796 62.704,22.259ZM62.77,23.977L64.671,23.977L64.671,30.828L62.77,30.828L62.77,23.977Z" fill="#FFFFFF"/>
<path d="M65.934,23.977L67.77,23.977L67.77,25.199L67.808,25.199C68.18,24.35 68.916,23.851 69.991,23.851C71.542,23.851 72.413,24.809 72.413,26.413L72.413,30.828L70.512,30.828L70.512,26.8C70.512,25.904 70.081,25.393 69.228,25.393C68.374,25.393 67.832,26.007 67.832,26.894L67.832,30.825L65.931,30.825L65.931,23.974L65.934,23.977Z" fill="#FFFFFF"/>
<path d="M76.026,22.4L76.026,23.977L77.317,23.977L77.317,25.384L76.026,25.384L76.026,28.663C76.026,29.186 76.287,29.435 76.847,29.435C77.014,29.435 77.191,29.424 77.308,29.403L77.308,30.778C77.113,30.822 76.787,30.854 76.404,30.854C74.763,30.854 74.125,30.317 74.125,28.983L74.125,25.384L73.14,25.384L73.14,23.977L74.125,23.977L74.125,22.4L76.026,22.4Z" fill="#FFFFFF"/>
<path d="M84.63,28.733C84.421,30.076 83.172,30.978 81.445,30.978C79.296,30.978 78.005,29.629 78.005,27.438C78.005,25.246 79.307,23.833 81.373,23.833C83.439,23.833 84.687,25.182 84.687,27.264L84.687,27.831L79.873,27.831L79.873,27.946C79.873,28.924 80.505,29.594 81.475,29.594C82.173,29.594 82.705,29.256 82.882,28.73L84.627,28.73L84.63,28.733ZM79.894,26.689L82.858,26.689C82.819,25.813 82.241,25.211 81.394,25.211C80.547,25.211 79.96,25.831 79.897,26.689Z" fill="#FFFFFF"/>
<path d="M85.663,23.977L87.498,23.977L87.498,25.211L87.537,25.211C87.783,24.342 88.379,23.869 89.199,23.869C89.42,23.869 89.609,23.901 89.738,23.939L89.738,25.581C89.582,25.517 89.322,25.473 89.049,25.473C88.112,25.473 87.564,26.034 87.564,27L87.564,30.828L85.663,30.828L85.663,23.977Z" fill="#FFFFFF"/>
<path d="M90.513,23.977L92.348,23.977L92.348,25.199L92.387,25.199C92.758,24.35 93.495,23.851 94.57,23.851C96.12,23.851 96.992,24.809 96.992,26.413L96.992,30.828L95.091,30.828L95.091,26.8C95.091,25.904 94.659,25.393 93.806,25.393C92.953,25.393 92.411,26.007 92.411,26.894L92.411,30.825L90.51,30.825L90.51,23.974L90.513,23.977Z" fill="#FFFFFF"/>
<path d="M97.932,28.86C97.932,27.614 98.908,26.891 100.647,26.789L102.404,26.686L102.404,26.233C102.404,25.593 101.949,25.223 101.231,25.223C100.512,25.223 100.072,25.567 99.979,26.072L98.24,26.072C98.312,24.744 99.464,23.83 101.315,23.83C103.165,23.83 104.272,24.738 104.272,26.119L104.272,30.828L102.437,30.828L102.437,29.779L102.398,29.779C102.009,30.508 101.141,30.937 100.27,30.937C98.941,30.937 97.932,30.093 97.932,28.86ZM102.404,28.316L102.404,27.817L100.931,27.905C100.222,27.955 99.818,28.269 99.818,28.754C99.818,29.265 100.249,29.585 100.892,29.585C101.719,29.585 102.404,29.056 102.404,28.313Z" fill="#FFFFFF"/>
<path d="M107.907,22.4L107.907,23.977L109.197,23.977L109.197,25.384L107.907,25.384L107.907,28.663C107.907,29.186 108.167,29.435 108.727,29.435C108.895,29.435 109.071,29.424 109.188,29.403L109.188,30.778C108.994,30.822 108.667,30.854 108.284,30.854C106.643,30.854 106.006,30.317 106.006,28.983L106.006,25.384L105.021,25.384L105.021,23.977L106.006,23.977L106.006,22.4L107.907,22.4Z" fill="#FFFFFF"/>
<path d="M110.203,22.259C110.203,21.715 110.646,21.295 111.221,21.295C111.796,21.295 112.236,21.715 112.236,22.259C112.236,22.802 111.793,23.225 111.221,23.225C110.649,23.225 110.203,22.796 110.203,22.259ZM110.269,23.977L112.17,23.977L112.17,30.828L110.269,30.828L110.269,23.977Z" fill="#FFFFFF"/>
<path d="M113.179,27.397C113.179,25.179 114.547,23.83 116.637,23.83C118.726,23.83 120.094,25.173 120.094,27.397C120.094,29.62 118.747,30.975 116.637,30.975C114.526,30.975 113.179,29.644 113.179,27.397ZM118.16,27.403C118.16,26.042 117.562,25.255 116.637,25.255C115.712,25.255 115.107,26.042 115.107,27.403C115.107,28.763 115.7,29.55 116.637,29.55C117.574,29.55 118.16,28.777 118.16,27.403Z" fill="#FFFFFF"/>
<path d="M121.07,23.977L122.906,23.977L122.906,25.199L122.944,25.199C123.316,24.35 124.052,23.851 125.127,23.851C126.678,23.851 127.549,24.809 127.549,26.413L127.549,30.828L125.648,30.828L125.648,26.8C125.648,25.904 125.217,25.393 124.363,25.393C123.51,25.393 122.968,26.007 122.968,26.894L122.968,30.825L121.067,30.825L121.067,23.974L121.07,23.977Z" fill="#FFFFFF"/>
<path d="M128.489,28.86C128.489,27.614 129.465,26.891 131.204,26.789L132.962,26.686L132.962,26.233C132.962,25.593 132.506,25.223 131.791,25.223C131.075,25.223 130.629,25.567 130.54,26.072L128.8,26.072C128.872,24.744 130.025,23.83 131.875,23.83C133.725,23.83 134.833,24.738 134.833,26.119L134.833,30.828L132.997,30.828L132.997,29.779L132.959,29.779C132.569,30.508 131.701,30.937 130.83,30.937C129.501,30.937 128.492,30.093 128.492,28.86M132.962,28.316L132.962,27.817L131.489,27.905C130.779,27.955 130.375,28.269 130.375,28.754C130.375,29.265 130.806,29.585 131.45,29.585C132.276,29.585 132.962,29.056 132.962,28.313Z" fill="#FFFFFF"/>
<path d="M138,21.607L136.099,21.607L136.099,30.828L138,30.828L138,21.607Z" fill="#FFFFFF"/>
<path d="M65.563,35.226C67.315,35.226 68.455,36.095 68.482,37.423L66.731,37.423C66.692,36.874 66.243,36.536 65.539,36.536C64.881,36.536 64.452,36.83 64.452,37.27C64.452,37.608 64.752,37.84 65.366,37.978L66.701,38.26C68.102,38.566 68.668,39.109 68.668,40.131C68.668,41.48 67.404,42.367 65.56,42.367C63.716,42.367 62.551,41.486 62.447,40.149L64.303,40.149C64.396,40.725 64.857,41.057 65.611,41.057C66.366,41.057 66.77,40.775 66.77,40.328C66.77,39.985 66.536,39.791 65.91,39.644L64.62,39.362C63.297,39.068 62.62,38.389 62.62,37.382C62.62,36.077 63.773,35.223 65.563,35.223Z" fill="#FFFFFF"/>
<path d="M74.185,37.922C74.074,37.2 73.586,36.689 72.805,36.689C71.865,36.689 71.281,37.467 71.281,38.792C71.281,40.117 71.868,40.907 72.811,40.907C73.574,40.907 74.068,40.46 74.185,39.711L75.957,39.711C75.859,41.327 74.628,42.37 72.793,42.37C70.688,42.37 69.353,41.027 69.353,38.792C69.353,36.556 70.688,35.226 72.778,35.226C74.667,35.226 75.865,36.371 75.949,37.922L74.185,37.922Z" fill="#FFFFFF"/>
<path d="M76.918,33.002L78.787,33.002L78.787,36.592L78.825,36.592C79.197,35.728 79.96,35.243 81.02,35.243C82.571,35.243 83.457,36.227 83.457,37.814L83.457,42.223L81.556,42.223L81.556,38.21C81.556,37.329 81.113,36.791 80.248,36.791C79.382,36.791 78.823,37.411 78.823,38.313L78.823,42.223L76.921,42.223L76.921,33.002L76.918,33.002Z" fill="#FFFFFF"/>
<path d="M84.412,38.792C84.412,36.574 85.78,35.226 87.87,35.226C89.959,35.226 91.327,36.568 91.327,38.792C91.327,41.016 89.98,42.37 87.87,42.37C85.759,42.37 84.412,41.039 84.412,38.792ZM89.396,38.798C89.396,37.438 88.798,36.65 87.873,36.65C86.948,36.65 86.343,37.438 86.343,38.798C86.343,40.158 86.936,40.945 87.873,40.945C88.81,40.945 89.396,40.173 89.396,38.798Z" fill="#FFFFFF"/>
<path d="M92.052,38.792C92.052,36.574 93.42,35.226 95.51,35.226C97.599,35.226 98.967,36.568 98.967,38.792C98.967,41.016 97.62,42.37 95.51,42.37C93.399,42.37 92.052,41.039 92.052,38.792ZM97.034,38.798C97.034,37.438 96.435,36.65 95.51,36.65C94.585,36.65 93.98,37.438 93.98,38.798C93.98,40.158 94.573,40.945 95.51,40.945C96.447,40.945 97.034,40.173 97.034,38.798Z" fill="#FFFFFF"/>
<path d="M101.889,33.002L99.988,33.002L99.988,42.223L101.889,42.223L101.889,33.002Z" fill="#FFFFFF"/>
<path d="M51.909,0L0,0L0,38.448C0,44.376 4.341,50.463 12.903,56.544C19.175,60.998 25.339,63.727 25.6,63.841L25.956,64L26.315,63.841C26.576,63.727 32.74,61.001 39.012,56.544C47.574,50.463 51.915,44.373 51.915,38.445L51.915,0L51.909,0Z" fill="#FFFFFF"/>
<path d="M51.909,0L0,0L0,12.984L51.909,12.984L51.909,0Z" fill="#D21B21"/>
<path d="M21.833,23.249C21.827,21.269 23.468,19.653 25.483,19.65C27.501,19.644 29.147,21.254 29.15,23.231C29.153,24.903 27.989,26.307 26.411,26.709L26.417,28.542C29.009,28.111 30.982,25.896 30.976,23.228C30.97,20.255 28.51,17.852 25.48,17.861C22.45,17.867 20.001,20.282 20.01,23.255C20.016,25.922 21.998,28.128 24.594,28.548L24.594,26.715C23.013,26.319 21.839,24.917 21.833,23.249Z" fill="#10194A"/>
<path d="M30.476,47.432L31.183,45.12C32.701,44.476 34.09,44.156 35.093,43.903L35.093,31.348C32.635,31.53 30.27,32.452 28.351,33.992L27.081,32.47C29.587,30.458 32.749,29.35 35.985,29.35L37.093,29.35L37.093,45.46L36.311,45.631C36.284,45.637 32.5,46.565 30.47,47.426Z" fill="#10194A"/>
<path d="M25.926,51.362L25.156,50.475C23.184,48.192 22.139,45.537 22.139,42.564C22.139,40.854 22.675,38.472 23.528,36.58L25.04,38.254C24.444,39.594 24.142,41.004 24.142,42.443C24.142,44.526 24.749,46.494 25.911,48.201C27.04,46.5 27.65,44.497 27.65,42.443C27.65,36.697 22.723,31.797 16.699,31.354L16.699,43.906C17.714,44.162 18.962,44.476 20.492,45.131L21.214,47.435C19.181,46.565 15.508,45.643 15.481,45.637L14.699,45.466L14.699,29.353L15.807,29.353C23.312,29.353 29.656,35.346 29.656,42.443C29.656,45.378 28.602,48.231 26.689,50.472L25.926,51.365L25.926,51.362Z" fill="#10194A"/>
<path d="M26.417,28.545L24.594,28.545L24.594,30.334L26.417,30.334L26.417,28.545Z" fill="#10194A"/>
<path d="M8.128,8.384C8.128,8.516 8.065,8.581 7.945,8.581C7.814,8.581 7.751,8.51 7.751,8.372L7.751,6.052L7.149,6.052L7.149,7.802C7.149,8.017 7.077,8.19 6.934,8.325C6.79,8.46 6.619,8.528 6.422,8.528L4.997,8.528C4.799,8.528 4.631,8.455 4.494,8.311C4.356,8.164 4.287,7.982 4.287,7.761L4.287,6.419C4.287,6.204 4.359,6.028 4.497,5.89C4.637,5.752 4.829,5.681 5.068,5.681L5.068,4.929C5.068,4.718 5.146,4.536 5.299,4.383C5.452,4.23 5.619,4.157 5.796,4.157L6.41,4.157C6.628,4.157 6.811,4.239 6.957,4.407C7.083,4.565 7.146,4.747 7.146,4.956L7.146,5.681L7.748,5.681L7.748,4.709C7.748,4.571 7.814,4.503 7.942,4.503C8.065,4.503 8.125,4.574 8.125,4.709L8.125,8.387L8.128,8.384ZM6.766,7.782L6.766,6.052L6.344,6.052L6.344,6.519C6.344,6.727 6.287,6.898 6.176,7.036C6.065,7.174 5.916,7.244 5.727,7.244C5.553,7.244 5.398,7.174 5.266,7.027C5.131,6.883 5.068,6.698 5.068,6.475L5.068,6.052C4.976,6.037 4.892,6.06 4.808,6.119C4.727,6.178 4.688,6.26 4.688,6.366L4.688,7.861C4.688,7.932 4.721,7.996 4.787,8.061C4.853,8.123 4.931,8.155 5.015,8.155L6.401,8.155C6.646,8.155 6.769,8.032 6.769,7.782M5.964,6.616L5.964,5.449C5.964,5.258 5.88,5.164 5.715,5.164C5.535,5.164 5.446,5.261 5.446,5.449L5.446,6.627C5.446,6.792 5.538,6.871 5.727,6.871C5.883,6.871 5.964,6.786 5.964,6.616ZM6.745,5.678L6.745,4.882C6.745,4.806 6.715,4.733 6.661,4.659C6.604,4.586 6.535,4.55 6.449,4.55L5.835,4.55C5.751,4.55 5.67,4.58 5.598,4.633C5.523,4.689 5.488,4.753 5.488,4.83C5.55,4.803 5.64,4.788 5.757,4.788C5.937,4.788 6.08,4.853 6.185,4.979C6.29,5.106 6.341,5.261 6.341,5.441L6.341,5.678L6.745,5.678Z" fill="#FFFFFF"/>
<path d="M11.251,8.27C11.251,8.904 10.891,9.224 10.17,9.224L9.035,9.224C8.942,9.224 8.861,9.254 8.79,9.312C8.718,9.371 8.685,9.433 8.685,9.495L8.685,9.618C8.685,9.741 8.619,9.806 8.49,9.806C8.368,9.806 8.308,9.756 8.308,9.653L8.308,9.53C8.308,9.345 8.377,9.186 8.517,9.054C8.658,8.922 8.82,8.854 8.999,8.854L10.134,8.854C10.4,8.854 10.589,8.801 10.703,8.698C10.813,8.593 10.87,8.411 10.87,8.146L10.87,5.291C10.87,5.047 10.751,4.926 10.505,4.926L9.942,4.926L9.942,8.293C9.942,8.452 9.885,8.531 9.775,8.531C9.649,8.531 9.586,8.455 9.586,8.302L9.586,5.288C9.586,5.047 9.475,4.924 9.254,4.924C9.047,4.924 8.942,5.038 8.942,5.267L8.942,8.343C8.942,8.466 8.885,8.528 8.769,8.528C8.631,8.528 8.562,8.469 8.562,8.352L8.562,5.182C8.562,4.997 8.628,4.844 8.763,4.727C8.897,4.609 9.059,4.55 9.248,4.55C9.436,4.55 9.598,4.606 9.745,4.715L9.745,4.55L10.61,4.55C10.786,4.55 10.939,4.621 11.065,4.762C11.194,4.903 11.256,5.07 11.256,5.264L11.256,8.267L11.251,8.27Z" fill="#FFFFFF"/>
<path d="M14.493,7.741C14.493,7.99 14.421,8.181 14.28,8.319C14.139,8.458 13.975,8.525 13.786,8.525L11.885,8.525C11.736,8.525 11.664,8.466 11.664,8.349L11.664,4.753C11.664,4.615 11.73,4.548 11.858,4.548C11.981,4.548 12.041,4.618 12.041,4.753L12.041,8.131L12.939,8.131L12.939,4.715C12.939,4.606 12.99,4.55 13.095,4.55L13.735,4.55C13.945,4.55 14.125,4.627 14.268,4.78C14.415,4.932 14.49,5.114 14.49,5.329L14.49,7.744L14.493,7.741ZM13.005,3.969C13.005,4.08 12.945,4.133 12.825,4.133C12.705,4.133 12.646,4.077 12.646,3.969L12.646,3.37C12.646,3.231 12.705,3.161 12.825,3.161C12.945,3.161 13.005,3.231 13.005,3.37L13.005,3.969ZM14.113,7.761L14.113,5.294C14.113,5.191 14.074,5.103 13.996,5.029C13.918,4.956 13.825,4.921 13.717,4.921L13.322,4.921L13.322,8.131L13.75,8.131C13.993,8.131 14.113,8.008 14.113,7.761Z" fill="#FFFFFF"/>
<path d="M40.203,8.384C40.203,8.516 40.14,8.581 40.02,8.581C39.889,8.581 39.826,8.51 39.826,8.372L39.826,6.052L39.224,6.052L39.224,7.802C39.224,8.017 39.152,8.19 39.009,8.325C38.865,8.46 38.694,8.528 38.497,8.528L37.072,8.528C36.874,8.528 36.706,8.455 36.569,8.311C36.431,8.164 36.362,7.982 36.362,7.761L36.362,6.419C36.362,6.204 36.434,6.028 36.572,5.89C36.712,5.752 36.904,5.681 37.143,5.681L37.143,4.929C37.143,4.718 37.221,4.536 37.374,4.383C37.53,4.233 37.694,4.157 37.871,4.157L38.485,4.157C38.703,4.157 38.886,4.239 39.033,4.407C39.158,4.565 39.221,4.747 39.221,4.956L39.221,5.681L39.823,5.681L39.823,4.709C39.823,4.571 39.889,4.503 40.017,4.503C40.14,4.503 40.2,4.574 40.2,4.709L40.2,8.387L40.203,8.384ZM38.844,7.782L38.844,6.052L38.422,6.052L38.422,6.519C38.422,6.727 38.365,6.898 38.254,7.036C38.143,7.174 37.994,7.244 37.805,7.244C37.631,7.244 37.479,7.174 37.344,7.027C37.209,6.883 37.146,6.698 37.146,6.475L37.146,6.052C37.054,6.037 36.97,6.06 36.886,6.119C36.805,6.178 36.766,6.26 36.766,6.366L36.766,7.861C36.766,7.932 36.799,7.996 36.865,8.061C36.931,8.123 37.009,8.155 37.093,8.155L38.479,8.155C38.724,8.155 38.847,8.032 38.847,7.782M38.039,6.616L38.039,5.449C38.039,5.258 37.955,5.164 37.79,5.164C37.611,5.164 37.521,5.261 37.521,5.449L37.521,6.627C37.521,6.792 37.614,6.871 37.802,6.871C37.958,6.871 38.039,6.786 38.039,6.616ZM38.82,5.678L38.82,4.882C38.82,4.806 38.79,4.733 38.736,4.659C38.679,4.586 38.61,4.55 38.524,4.55L37.91,4.55C37.826,4.55 37.745,4.58 37.673,4.633C37.599,4.689 37.563,4.753 37.563,4.83C37.625,4.803 37.715,4.788 37.832,4.788C38.012,4.788 38.155,4.853 38.26,4.979C38.365,5.106 38.416,5.261 38.416,5.441L38.416,5.678L38.82,5.678Z" fill="#FFFFFF"/>
<path d="M44.185,8.299C44.185,8.452 44.125,8.528 44.011,8.528C43.873,8.528 43.805,8.452 43.805,8.299L43.805,4.189C43.805,3.975 43.727,3.866 43.568,3.866L43.173,3.866C43.125,3.866 43.077,3.892 43.035,3.942C42.993,3.995 42.972,4.048 42.972,4.104L42.972,4.404C42.972,4.506 43.044,4.624 43.185,4.753C43.326,4.879 43.394,5.062 43.394,5.297L43.394,8.264C43.394,8.913 43.032,9.239 42.308,9.239L41.146,9.239C41.062,9.239 40.981,9.271 40.907,9.333C40.835,9.395 40.796,9.459 40.796,9.53L40.796,9.644C40.796,9.762 40.73,9.821 40.595,9.821C40.476,9.821 40.416,9.771 40.416,9.668L40.416,9.536C40.416,9.356 40.485,9.204 40.622,9.069C40.76,8.936 40.922,8.869 41.104,8.869L42.386,8.869C42.802,8.869 43.011,8.681 43.011,8.308L43.011,5.297C43.011,5.047 42.844,4.921 42.502,4.921L42.071,4.921L42.071,8.328C42.071,8.46 42.008,8.525 41.886,8.525C41.754,8.525 41.688,8.463 41.688,8.34L41.688,5.285C41.688,5.044 41.577,4.921 41.359,4.921C41.14,4.921 41.014,5.032 41.014,5.253L41.014,8.34C41.014,8.463 40.958,8.525 40.841,8.525C40.703,8.525 40.634,8.463 40.634,8.34L40.634,5.232C40.634,5.044 40.706,4.885 40.85,4.75C40.993,4.615 41.161,4.548 41.35,4.548C41.511,4.548 41.67,4.603 41.826,4.712L41.826,4.548L42.703,4.548C42.625,4.465 42.586,4.386 42.586,4.31L42.586,4.101C42.586,3.936 42.646,3.793 42.763,3.672C42.883,3.552 43.008,3.49 43.14,3.49L43.58,3.49C43.757,3.49 43.897,3.558 44.008,3.693C44.119,3.828 44.176,3.986 44.176,4.174L44.176,8.296L44.185,8.299Z" fill="#FFFFFF"/>
<path d="M47.625,9.553C47.625,9.671 47.571,9.73 47.466,9.73C47.319,9.73 47.244,9.671 47.244,9.553L47.244,8.528L46.209,8.528C46.026,8.528 45.933,8.463 45.933,8.331C45.933,8.27 45.999,8.208 46.134,8.146C46.268,8.084 46.334,7.985 46.334,7.846L46.334,5.361C46.334,5.07 46.191,4.926 45.909,4.926L45.343,4.926C45.095,4.926 44.972,5.053 44.972,5.308L44.972,5.796C45.008,5.734 45.11,5.702 45.275,5.702C45.454,5.702 45.595,5.77 45.697,5.905C45.798,6.04 45.846,6.207 45.846,6.407L45.846,7.838C45.846,8.026 45.789,8.187 45.676,8.325C45.562,8.463 45.415,8.534 45.239,8.534C45.053,8.534 44.9,8.472 44.775,8.346C44.652,8.223 44.589,8.07 44.589,7.891L44.589,5.332C44.589,5.097 44.664,4.909 44.816,4.768C44.966,4.627 45.161,4.556 45.391,4.556L45.888,4.556C46.436,4.556 46.712,4.809 46.712,5.314L46.712,7.852C46.712,8.011 46.673,8.114 46.595,8.164L47.238,8.164L47.238,4.788C47.238,4.636 47.301,4.559 47.43,4.559C47.559,4.559 47.619,4.647 47.619,4.818L47.619,9.562L47.625,9.553ZM45.472,7.888L45.472,6.351C45.472,6.151 45.394,6.052 45.233,6.052C45.059,6.052 44.975,6.16 44.975,6.381L44.975,7.885C44.975,8.064 45.056,8.152 45.224,8.152C45.391,8.152 45.472,8.064 45.472,7.885Z" fill="#FFFFFF"/>
<path d="M26.001,8.458L25.689,7.926C25.411,7.453 25.001,7.068 24.51,6.818L23.956,6.536L24.498,6.231C24.98,5.958 25.372,5.555 25.627,5.073L25.914,4.53L26.225,5.062C26.504,5.535 26.914,5.919 27.405,6.169L27.959,6.451L27.417,6.757C26.935,7.03 26.543,7.432 26.288,7.914L26.001,8.458Z" fill="#FFFFFF"/>
<path d="M22.052,7.738L21.872,7.432C21.711,7.159 21.477,6.939 21.193,6.792L20.872,6.63L21.184,6.454C21.462,6.295 21.687,6.066 21.836,5.784L22.001,5.47L22.181,5.775C22.339,6.049 22.576,6.269 22.86,6.416L23.181,6.577L22.869,6.754C22.591,6.912 22.366,7.141 22.217,7.421L22.052,7.735L22.052,7.738Z" fill="#FFFFFF"/>
<path d="M29.911,7.564L29.731,7.259C29.569,6.986 29.336,6.765 29.051,6.619L28.731,6.457L29.042,6.281C29.321,6.122 29.545,5.893 29.695,5.611L29.86,5.297L30.039,5.602C30.198,5.875 30.434,6.096 30.719,6.243L31.039,6.404L30.728,6.58C30.449,6.739 30.225,6.968 30.075,7.247L29.911,7.562L29.911,7.564Z" fill="#FFFFFF"/>
</svg>
