<svg width="404" height="192" viewBox="0 0 404 192" fill="none" xmlns="http://www.w3.org/2000/svg" xmlns:xlink="http://www.w3.org/1999/xlink">
<path d="M197.6,7.147L197.714,7.147L197.714,3.56L203.2,3.56L203.2,30.819L197.635,30.819L197.635,20.605L197.521,20.605C196.566,22.87 194.182,24.438 191.211,24.438C186.102,24.438 182.92,20.376 182.92,13.801C182.92,7.227 186.145,3.234 191.308,3.234C194.279,3.234 196.549,4.803 197.6,7.147ZM197.662,13.836C197.662,10.1 195.847,7.72 193.104,7.72C190.361,7.72 188.626,10.056 188.626,13.836C188.626,17.617 190.326,19.935 193.104,19.935C195.883,19.935 197.662,17.6 197.662,13.836Z" fill="#FFFFFF"/>
<path d="M225.698,24.112L220.326,24.112L220.326,20.411L220.212,20.411C219.204,23.002 217.18,24.491 214.094,24.491C209.668,24.491 206.732,21.601 206.732,16.806L206.732,3.56L212.298,3.56L212.298,15.643C212.298,18.384 213.648,19.838 216.11,19.838C218.574,19.838 220.134,18.058 220.134,15.335L220.134,3.56L225.698,3.56L225.698,24.112Z" fill="#FFFFFF"/>
<path d="M247.96,17.829C247.356,21.856 243.692,24.562 238.634,24.562C232.342,24.562 228.564,20.517 228.564,13.942C228.564,7.368 232.378,3.129 238.424,3.129C244.472,3.129 248.126,7.174 248.126,13.422L248.126,15.123L234.042,15.123L234.042,15.467C234.042,18.402 235.892,20.411 238.732,20.411C240.774,20.411 242.334,19.397 242.85,17.82L247.96,17.82L247.96,17.829ZM234.104,11.695L242.78,11.695C242.666,9.069 240.966,7.262 238.486,7.262C236.006,7.262 234.288,9.121 234.104,11.695Z" fill="#FFFFFF"/>
<path d="M269.634,17.829C269.02,21.856 265.366,24.562 260.31,24.562C254.016,24.562 250.238,20.517 250.238,13.942C250.238,7.368 254.052,3.129 260.098,3.129C266.146,3.129 269.8,7.174 269.8,13.422L269.8,15.123L255.716,15.123L255.716,15.467C255.716,18.402 257.566,20.411 260.406,20.411C262.448,20.411 264.008,19.397 264.524,17.82L269.634,17.82L269.634,17.829ZM255.778,11.695L264.454,11.695C264.34,9.069 262.65,7.262 260.168,7.262C257.688,7.262 255.97,9.121 255.786,11.695Z" fill="#FFFFFF"/>
<path d="M278.04,3.56L278.04,7.227L278.154,7.227C279.24,4.68 281.396,3.182 284.542,3.182C289.082,3.182 291.632,6.055 291.632,10.866L291.632,24.112L286.068,24.112L286.068,12.03C286.068,9.342 284.806,7.808 282.308,7.808C279.81,7.808 278.224,9.65 278.224,12.312L278.224,24.104L272.658,24.104L272.658,3.56L278.04,3.56Z" fill="#FFFFFF"/>
<path d="M183.665,37.746L189.038,37.746L189.038,41.465L189.152,41.465C190.01,38.989 192.201,37.358 194.989,37.358C197.942,37.358 200.002,38.892 200.686,41.58L200.8,41.58C201.71,38.989 204.156,37.358 207.144,37.358C211.15,37.358 213.84,40.117 213.84,44.259L213.84,58.289L208.276,58.289L208.276,45.651C208.276,43.272 207.092,41.968 204.936,41.968C202.78,41.968 201.422,43.519 201.422,45.801L201.422,58.28L196.067,58.28L196.067,45.475C196.067,43.272 194.831,41.968 192.771,41.968C190.712,41.968 189.222,43.58 189.222,45.88L189.222,58.289L183.656,58.289L183.656,37.737L183.665,37.746Z" fill="#FFFFFF"/>
<path d="M217.276,32.59C217.276,30.96 218.574,29.691 220.248,29.691C221.922,29.691 223.228,30.96 223.228,32.59C223.228,34.221 221.93,35.481 220.248,35.481C218.564,35.481 217.276,34.194 217.276,32.59ZM217.46,37.746L223.026,37.746L223.026,58.298L217.46,58.298L217.46,37.746Z" fill="#FFFFFF"/>
<path d="M226.724,37.746L232.096,37.746L232.096,41.448L232.21,41.448C232.93,38.839 234.674,37.42 237.074,37.42C237.724,37.42 238.276,37.517 238.652,37.632L238.652,42.558C238.196,42.364 237.434,42.232 236.636,42.232C233.894,42.232 232.29,43.915 232.29,46.815L232.29,58.298L226.724,58.298L226.724,37.746Z" fill="#FFFFFF"/>
<path d="M239.67,52.393C239.67,48.657 242.526,46.489 247.618,46.18L252.762,45.872L252.762,44.514C252.762,42.593 251.43,41.483 249.336,41.483C247.242,41.483 245.936,42.514 245.672,44.03L240.58,44.03C240.79,40.046 244.166,37.305 249.582,37.305C254.998,37.305 258.24,40.029 258.24,44.171L258.24,58.298L252.868,58.298L252.868,55.152L252.754,55.152C251.614,57.337 249.074,58.624 246.522,58.624C242.632,58.624 239.678,56.095 239.678,52.393M252.762,50.763L252.762,49.265L248.45,49.529C246.374,49.679 245.19,50.622 245.19,52.076C245.19,53.609 246.452,54.57 248.336,54.57C250.756,54.57 252.762,52.984 252.762,50.754Z" fill="#FFFFFF"/>
<path d="M183.569,66.776C183.569,65.146 184.866,63.885 186.54,63.885C188.214,63.885 189.511,65.146 189.511,66.776C189.511,68.406 188.214,69.676 186.54,69.676C184.866,69.676 183.569,68.389 183.569,66.776ZM183.761,71.932L189.327,71.932L189.327,92.484L183.761,92.484L183.761,71.932Z" fill="#FFFFFF"/>
<path d="M193.025,71.932L198.398,71.932L198.398,75.598L198.512,75.598C199.599,73.051 201.754,71.553 204.9,71.553C209.44,71.553 211.992,74.426 211.992,79.238L211.992,92.484L206.426,92.484L206.426,80.401C206.426,77.713 205.164,76.18 202.666,76.18C200.168,76.18 198.582,78.021 198.582,80.683L198.582,92.475L193.017,92.475L193.017,71.923L193.025,71.932Z" fill="#FFFFFF"/>
<path d="M222.57,67.199L222.57,71.932L226.348,71.932L226.348,76.153L222.57,76.153L222.57,85.988C222.57,87.557 223.332,88.306 224.972,88.306C225.462,88.306 225.98,88.271 226.32,88.209L226.32,92.334C225.752,92.466 224.796,92.563 223.674,92.563C218.872,92.563 217.004,90.95 217.004,86.949L217.004,76.153L214.122,76.153L214.122,71.932L217.004,71.932L217.004,67.199L222.57,67.199Z" fill="#FFFFFF"/>
<path d="M247.758,86.2C247.146,90.227 243.49,92.933 238.434,92.933C232.14,92.933 228.364,88.888 228.364,82.313C228.364,75.739 232.176,71.5 238.222,71.5C244.27,71.5 247.926,75.545 247.926,81.793L247.926,83.494L233.832,83.494L233.832,83.838C233.832,86.773 235.682,88.782 238.52,88.782C240.564,88.782 242.124,87.769 242.64,86.191L247.75,86.191L247.758,86.2ZM233.894,80.066L242.57,80.066C242.456,77.44 240.764,75.633 238.284,75.633C235.804,75.633 234.086,77.493 233.902,80.066Z" fill="#FFFFFF"/>
<path d="M250.782,71.932L256.154,71.932L256.154,75.633L256.268,75.633C256.988,73.025 258.732,71.606 261.132,71.606C261.782,71.606 262.334,71.703 262.71,71.817L262.71,76.744C262.254,76.55 261.492,76.418 260.694,76.418C257.952,76.418 256.348,78.101 256.348,81L256.348,92.484L250.782,92.484L250.782,71.932Z" fill="#FFFFFF"/>
<path d="M264.98,71.932L270.352,71.932L270.352,75.598L270.466,75.598C271.554,73.051 273.71,71.553 276.856,71.553C281.396,71.553 283.946,74.426 283.946,79.238L283.946,92.484L278.382,92.484L278.382,80.401C278.382,77.713 277.118,76.18 274.622,76.18C272.124,76.18 270.536,78.021 270.536,80.683L270.536,92.475L264.972,92.475L264.972,71.923L264.98,71.932Z" fill="#FFFFFF"/>
<path d="M286.698,86.579C286.698,82.842 289.556,80.674 294.648,80.366L299.792,80.057L299.792,78.7C299.792,76.779 298.46,75.668 296.356,75.668C294.254,75.668 292.964,76.7 292.694,78.215L287.602,78.215C287.812,74.232 291.186,71.491 296.602,71.491C302.018,71.491 305.262,74.214 305.262,78.356L305.262,92.484L299.888,92.484L299.888,89.337L299.774,89.337C298.636,91.523 296.094,92.81 293.544,92.81C289.652,92.81 286.698,90.28 286.698,86.579ZM299.792,84.949L299.792,83.45L295.48,83.715C293.404,83.864 292.22,84.807 292.22,86.262C292.22,87.795 293.482,88.756 295.366,88.756C297.786,88.756 299.792,87.169 299.792,84.94Z" fill="#FFFFFF"/>
<path d="M315.902,67.199L315.902,71.932L319.678,71.932L319.678,76.153L315.902,76.153L315.902,85.988C315.902,87.557 316.664,88.306 318.302,88.306C318.794,88.306 319.31,88.271 319.652,88.209L319.652,92.334C319.082,92.466 318.128,92.563 317.006,92.563C312.202,92.563 310.336,90.95 310.336,86.949L310.336,76.153L307.452,76.153L307.452,71.932L310.336,71.932L310.336,67.199L315.902,67.199Z" fill="#FFFFFF"/>
<path d="M322.624,66.776C322.624,65.146 323.92,63.885 325.604,63.885C327.286,63.885 328.574,65.146 328.574,66.776C328.574,68.406 327.278,69.676 325.604,69.676C323.93,69.676 322.624,68.389 322.624,66.776ZM322.816,71.932L328.382,71.932L328.382,92.484L322.816,92.484L322.816,71.932Z" fill="#FFFFFF"/>
<path d="M331.336,82.19C331.336,75.536 335.34,71.491 341.458,71.491C347.576,71.491 351.58,75.519 351.58,82.19C351.58,88.861 347.636,92.924 341.458,92.924C335.278,92.924 331.336,88.932 331.336,82.19ZM345.918,82.208C345.918,78.127 344.166,75.765 341.458,75.765C338.75,75.765 336.98,78.127 336.98,82.208C336.98,86.288 338.714,88.65 341.458,88.65C344.202,88.65 345.918,86.332 345.918,82.208Z" fill="#FFFFFF"/>
<path d="M354.438,71.932L359.81,71.932L359.81,75.598L359.924,75.598C361.012,73.051 363.168,71.553 366.314,71.553C370.854,71.553 373.404,74.426 373.404,79.238L373.404,92.484L367.838,92.484L367.838,80.401C367.838,77.713 366.576,76.18 364.078,76.18C361.58,76.18 359.994,78.021 359.994,80.683L359.994,92.475L354.43,92.475L354.43,71.923L354.438,71.932Z" fill="#FFFFFF"/>
<path d="M376.156,86.579C376.156,82.842 379.012,80.674 384.106,80.366L389.25,80.057L389.25,78.7C389.25,76.779 387.918,75.668 385.822,75.668C383.728,75.668 382.422,76.7 382.16,78.215L377.068,78.215C377.278,74.232 380.652,71.491 386.068,71.491C391.484,71.491 394.728,74.214 394.728,78.356L394.728,92.484L389.354,92.484L389.354,89.337L389.24,89.337C388.102,91.523 385.56,92.81 383.01,92.81C379.118,92.81 376.164,90.28 376.164,86.579M389.25,84.949L389.25,83.45L384.938,83.715C382.86,83.864 381.678,84.807 381.678,86.262C381.678,87.795 382.94,88.756 384.824,88.756C387.242,88.756 389.25,87.169 389.25,84.94Z" fill="#FFFFFF"/>
<path d="M404,64.82L398.434,64.82L398.434,92.484L404,92.484L404,64.82Z" fill="#FFFFFF"/>
<path d="M191.939,105.677C197.066,105.677 200.404,108.285 200.484,112.269L195.357,112.269C195.243,110.621 193.928,109.607 191.868,109.607C189.94,109.607 188.687,110.489 188.687,111.811C188.687,112.824 189.563,113.52 191.36,113.934L195.269,114.781C199.371,115.697 201.028,117.327 201.028,120.394C201.028,124.44 197.329,127.101 191.93,127.101C186.531,127.101 183.122,124.457 182.815,120.447L188.249,120.447C188.52,122.175 189.87,123.17 192.079,123.17C194.287,123.17 195.471,122.324 195.471,120.985C195.471,119.954 194.787,119.372 192.955,118.931L189.178,118.085C185.304,117.204 183.323,115.168 183.323,112.145C183.323,108.232 186.698,105.668 191.939,105.668Z" fill="#FFFFFF"/>
<path d="M217.18,113.767C216.856,111.599 215.426,110.066 213.14,110.066C210.388,110.066 208.678,112.401 208.678,116.376C208.678,120.35 210.396,122.721 213.156,122.721C215.392,122.721 216.838,121.381 217.18,119.134L222.368,119.134C222.08,123.981 218.476,127.11 213.104,127.11C206.944,127.11 203.034,123.082 203.034,116.376C203.034,109.669 206.944,105.677 213.06,105.677C218.59,105.677 222.096,109.114 222.342,113.767L217.18,113.767Z" fill="#FFFFFF"/>
<path d="M225.182,99.005L230.65,99.005L230.65,109.775L230.764,109.775C231.852,107.184 234.086,105.73 237.188,105.73C241.728,105.73 244.322,108.682 244.322,113.441L244.322,126.669L238.758,126.669L238.758,114.631C238.758,111.987 237.46,110.374 234.928,110.374C232.394,110.374 230.756,112.234 230.756,114.939L230.756,126.669L225.19,126.669L225.19,99.005L225.182,99.005Z" fill="#FFFFFF"/>
<path d="M247.118,116.376C247.118,109.722 251.124,105.677 257.242,105.677C263.36,105.677 267.364,109.704 267.364,116.376C267.364,123.047 263.42,127.11 257.242,127.11C251.062,127.11 247.118,123.118 247.118,116.376ZM261.712,116.393C261.712,112.313 259.958,109.951 257.25,109.951C254.542,109.951 252.772,112.313 252.772,116.393C252.772,120.474 254.508,122.836 257.25,122.836C259.994,122.836 261.712,120.518 261.712,116.393Z" fill="#FFFFFF"/>
<path d="M269.486,116.376C269.486,109.722 273.49,105.677 279.608,105.677C285.726,105.677 289.73,109.704 289.73,116.376C289.73,123.047 285.786,127.11 279.608,127.11C273.43,127.11 269.486,123.118 269.486,116.376ZM284.07,116.393C284.07,112.313 282.316,109.951 279.608,109.951C276.9,109.951 275.13,112.313 275.13,116.393C275.13,120.474 276.864,122.836 279.608,122.836C282.352,122.836 284.07,120.518 284.07,116.393Z" fill="#FFFFFF"/>
<path d="M298.284,99.005L292.72,99.005L292.72,126.669L298.284,126.669L298.284,99.005Z" fill="#FFFFFF"/>
<path d="M151.965,0L0,0L0,115.345C0,133.129 12.708,151.39 37.774,169.633C56.135,182.993 74.181,191.18 74.944,191.524L75.987,192L77.038,191.524C77.801,191.18 95.847,183.002 114.208,169.633C139.274,151.39 151.982,133.12 151.982,115.336L151.982,0L151.965,0Z" fill="#FFFFFF"/>
<path d="M151.965,0L0,0L0,38.953L151.965,38.953L151.965,0Z" fill="#D21B21"/>
<path d="M63.918,69.746C63.901,63.806 68.703,58.959 74.602,58.95C80.509,58.933 85.329,63.762 85.338,69.693C85.347,74.708 81.938,78.92 77.319,80.128L77.336,85.627C84.926,84.332 90.702,77.687 90.684,69.684C90.667,60.766 83.463,53.557 74.593,53.583C65.724,53.601 58.554,60.845 58.581,69.764C58.598,77.766 64.4,84.384 71.999,85.645L71.999,80.145C67.371,78.956 63.936,74.752 63.918,69.746Z" fill="#10194A"/>
<path d="M89.221,142.295L91.289,135.359C95.733,133.429 99.799,132.468 102.735,131.71L102.735,94.044C95.54,94.59 88.616,97.357 82.998,101.975L79.282,97.41C86.618,91.373 95.873,88.051 105.347,88.051L108.59,88.051L108.59,136.381L106.302,136.892C106.224,136.91 95.145,139.695 89.203,142.277Z" fill="#10194A"/>
<path d="M75.899,154.086L73.647,151.425C67.871,144.577 64.812,136.61 64.812,127.692C64.812,122.562 66.381,115.415 68.879,109.739L73.305,114.763C71.561,118.782 70.675,123.012 70.675,127.33C70.675,133.579 72.455,139.483 75.855,144.604C79.159,139.501 80.947,133.49 80.947,127.33C80.947,110.092 66.521,95.392 48.887,94.061L48.887,131.719C51.858,132.486 55.513,133.429 59.992,135.394L62.104,142.303C56.153,139.695 45.399,136.928 45.32,136.91L43.033,136.399L43.033,88.059L46.276,88.059C68.248,88.059 86.819,106.038 86.819,127.33C86.819,136.134 83.734,144.692 78.134,151.416L75.899,154.095L75.899,154.086Z" fill="#10194A"/>
<path d="M77.336,85.636L71.999,85.636L71.999,91.003L77.336,91.003L77.336,85.636Z" fill="#10194A"/>
<path d="M23.795,25.152C23.795,25.549 23.611,25.743 23.261,25.743C22.875,25.743 22.691,25.531 22.691,25.117L22.691,18.155L20.929,18.155L20.929,23.407C20.929,24.051 20.719,24.571 20.298,24.976C19.877,25.381 19.378,25.584 18.799,25.584L14.628,25.584C14.049,25.584 13.558,25.364 13.155,24.932C12.752,24.491 12.55,23.945 12.55,23.284L12.55,19.256C12.55,18.613 12.761,18.084 13.164,17.67C13.576,17.256 14.137,17.044 14.838,17.044L14.838,14.788C14.838,14.154 15.066,13.607 15.513,13.149C15.96,12.691 16.451,12.47 16.968,12.47L18.764,12.47C19.404,12.47 19.939,12.717 20.368,13.22C20.736,13.695 20.92,14.242 20.92,14.868L20.92,17.044L22.682,17.044L22.682,14.127C22.682,13.713 22.875,13.51 23.252,13.51C23.611,13.51 23.786,13.722 23.786,14.127L23.786,25.161L23.795,25.152ZM19.807,23.346L19.807,18.155L18.572,18.155L18.572,19.556C18.572,20.182 18.405,20.693 18.081,21.107C17.756,21.521 17.318,21.733 16.766,21.733C16.258,21.733 15.802,21.521 15.416,21.081C15.022,20.649 14.838,20.094 14.838,19.424L14.838,18.155C14.566,18.111 14.321,18.181 14.075,18.357C13.839,18.534 13.725,18.78 13.725,19.098L13.725,23.584C13.725,23.795 13.821,23.989 14.014,24.183C14.207,24.368 14.435,24.465 14.68,24.465L18.738,24.465C19.457,24.465 19.816,24.095 19.816,23.346M17.459,19.847L17.459,16.348C17.459,15.775 17.213,15.493 16.731,15.493C16.205,15.493 15.942,15.784 15.942,16.348L15.942,19.882C15.942,20.376 16.214,20.614 16.766,20.614C17.222,20.614 17.459,20.358 17.459,19.847ZM19.746,17.036L19.746,14.647C19.746,14.418 19.658,14.198 19.501,13.977C19.334,13.757 19.133,13.651 18.878,13.651L17.082,13.651C16.836,13.651 16.6,13.739 16.389,13.898C16.17,14.066 16.065,14.259 16.065,14.489C16.249,14.409 16.512,14.365 16.854,14.365C17.38,14.365 17.8,14.559 18.107,14.938C18.414,15.317 18.563,15.784 18.563,16.322L18.563,17.036L19.746,17.036Z" fill="#FFFFFF"/>
<path d="M32.936,24.809C32.936,26.712 31.885,27.673 29.772,27.673L26.451,27.673C26.179,27.673 25.942,27.761 25.732,27.937C25.522,28.113 25.425,28.299 25.425,28.484L25.425,28.854C25.425,29.224 25.232,29.418 24.856,29.418C24.496,29.418 24.321,29.268 24.321,28.96L24.321,28.589C24.321,28.034 24.523,27.558 24.934,27.162C25.346,26.765 25.82,26.562 26.346,26.562L29.667,26.562C30.447,26.562 30.999,26.404 31.332,26.095C31.657,25.778 31.823,25.232 31.823,24.438L31.823,15.872C31.823,15.141 31.473,14.779 30.754,14.779L29.106,14.779L29.106,24.879C29.106,25.355 28.94,25.593 28.615,25.593C28.247,25.593 28.063,25.364 28.063,24.906L28.063,15.863C28.063,15.141 27.739,14.771 27.091,14.771C26.486,14.771 26.179,15.114 26.179,15.802L26.179,25.029C26.179,25.399 26.012,25.584 25.671,25.584C25.268,25.584 25.066,25.408 25.066,25.055L25.066,15.546C25.066,14.991 25.259,14.533 25.653,14.18C26.048,13.828 26.521,13.651 27.073,13.651C27.625,13.651 28.098,13.819 28.528,14.145L28.528,13.651L31.061,13.651C31.578,13.651 32.025,13.863 32.393,14.286C32.77,14.709 32.954,15.211 32.954,15.793L32.954,24.8L32.936,24.809Z" fill="#FFFFFF"/>
<path d="M42.428,23.222C42.428,23.971 42.218,24.544 41.806,24.958C41.394,25.373 40.912,25.575 40.36,25.575L34.794,25.575C34.356,25.575 34.146,25.399 34.146,25.047L34.146,14.259C34.146,13.845 34.339,13.643 34.715,13.643C35.075,13.643 35.25,13.854 35.25,14.259L35.25,24.394L37.879,24.394L37.879,14.145C37.879,13.819 38.028,13.651 38.335,13.651L40.211,13.651C40.824,13.651 41.35,13.88 41.771,14.339C42.2,14.797 42.419,15.343 42.419,15.987L42.419,23.231L42.428,23.222ZM38.072,11.906C38.072,12.241 37.897,12.4 37.546,12.4C37.196,12.4 37.02,12.232 37.02,11.906L37.02,10.109C37.02,9.694 37.196,9.483 37.546,9.483C37.897,9.483 38.072,9.694 38.072,10.109L38.072,11.906ZM41.315,23.284L41.315,15.881C41.315,15.573 41.201,15.308 40.973,15.088C40.745,14.868 40.474,14.762 40.158,14.762L39.001,14.762L39.001,24.394L40.255,24.394C40.964,24.394 41.315,24.024 41.315,23.284Z" fill="#FFFFFF"/>
<path d="M117.696,25.152C117.696,25.549 117.512,25.743 117.161,25.743C116.776,25.743 116.592,25.531 116.592,25.117L116.592,18.155L114.83,18.155L114.83,23.407C114.83,24.051 114.62,24.571 114.199,24.976C113.778,25.381 113.279,25.584 112.7,25.584L108.529,25.584C107.95,25.584 107.459,25.364 107.056,24.932C106.653,24.491 106.451,23.945 106.451,23.284L106.451,19.256C106.451,18.613 106.662,18.084 107.065,17.67C107.477,17.256 108.038,17.044 108.739,17.044L108.739,14.788C108.739,14.154 108.967,13.607 109.414,13.149C109.869,12.7 110.352,12.47 110.869,12.47L112.665,12.47C113.305,12.47 113.84,12.717 114.269,13.22C114.637,13.695 114.821,14.242 114.821,14.868L114.821,17.044L116.583,17.044L116.583,14.127C116.583,13.713 116.776,13.51 117.153,13.51C117.512,13.51 117.687,13.722 117.687,14.127L117.687,25.161L117.696,25.152ZM113.717,23.346L113.717,18.155L112.481,18.155L112.481,19.556C112.481,20.182 112.315,20.693 111.99,21.107C111.666,21.521 111.228,21.733 110.676,21.733C110.167,21.733 109.72,21.521 109.326,21.081C108.932,20.649 108.748,20.094 108.748,19.424L108.748,18.155C108.476,18.111 108.231,18.181 107.985,18.357C107.749,18.534 107.635,18.78 107.635,19.098L107.635,23.584C107.635,23.795 107.731,23.989 107.924,24.183C108.117,24.368 108.345,24.465 108.59,24.465L112.648,24.465C113.366,24.465 113.726,24.095 113.726,23.346M111.359,19.847L111.359,16.348C111.359,15.775 111.114,15.493 110.632,15.493C110.106,15.493 109.843,15.784 109.843,16.348L109.843,19.882C109.843,20.376 110.115,20.614 110.667,20.614C111.123,20.614 111.359,20.358 111.359,19.847ZM113.647,17.036L113.647,14.647C113.647,14.418 113.559,14.198 113.402,13.977C113.235,13.757 113.033,13.651 112.779,13.651L110.983,13.651C110.737,13.651 110.501,13.739 110.29,13.898C110.071,14.066 109.966,14.259 109.966,14.489C110.15,14.409 110.413,14.365 110.755,14.365C111.281,14.365 111.701,14.559 112.008,14.938C112.315,15.317 112.464,15.784 112.464,16.322L112.464,17.036L113.647,17.036Z" fill="#FFFFFF"/>
<path d="M129.353,24.897C129.353,25.355 129.177,25.584 128.844,25.584C128.441,25.584 128.24,25.355 128.24,24.897L128.24,12.567C128.24,11.924 128.012,11.598 127.547,11.598L126.39,11.598C126.25,11.598 126.11,11.677 125.987,11.827C125.864,11.986 125.803,12.144 125.803,12.312L125.803,13.211C125.803,13.519 126.013,13.872 126.425,14.259C126.837,14.638 127.039,15.185 127.039,15.89L127.039,24.791C127.039,26.739 125.978,27.717 123.857,27.717L120.457,27.717C120.211,27.717 119.975,27.814 119.756,27.999C119.545,28.184 119.431,28.378 119.431,28.589L119.431,28.933C119.431,29.286 119.239,29.462 118.844,29.462C118.494,29.462 118.318,29.312 118.318,29.004L118.318,28.607C118.318,28.069 118.52,27.611 118.923,27.206C119.326,26.809 119.799,26.606 120.334,26.606L124.085,26.606C125.303,26.606 125.917,26.042 125.917,24.923L125.917,15.89C125.917,15.141 125.426,14.762 124.427,14.762L123.165,14.762L123.165,24.985C123.165,25.381 122.981,25.575 122.622,25.575C122.236,25.575 122.043,25.39 122.043,25.02L122.043,15.855C122.043,15.132 121.719,14.762 121.079,14.762C120.439,14.762 120.071,15.097 120.071,15.758L120.071,25.02C120.071,25.39 119.905,25.575 119.563,25.575C119.16,25.575 118.958,25.39 118.958,25.02L118.958,15.696C118.958,15.132 119.168,14.656 119.589,14.251C120.01,13.845 120.501,13.643 121.053,13.643C121.526,13.643 121.991,13.81 122.446,14.136L122.446,13.643L125.014,13.643C124.786,13.396 124.672,13.158 124.672,12.929L124.672,12.303C124.672,11.809 124.848,11.378 125.19,11.016C125.54,10.655 125.908,10.47 126.294,10.47L127.582,10.47C128.099,10.47 128.511,10.673 128.835,11.078C129.16,11.483 129.326,11.959 129.326,12.523L129.326,24.888L129.353,24.897Z" fill="#FFFFFF"/>
<path d="M139.423,28.66C139.423,29.012 139.265,29.189 138.958,29.189C138.529,29.189 138.31,29.012 138.31,28.66L138.31,25.584L135.277,25.584C134.743,25.584 134.471,25.39 134.471,24.994C134.471,24.809 134.664,24.624 135.058,24.438C135.453,24.253 135.645,23.954 135.645,23.54L135.645,16.084C135.645,15.211 135.225,14.779 134.401,14.779L132.744,14.779C132.017,14.779 131.658,15.158 131.658,15.925L131.658,17.388C131.763,17.203 132.061,17.106 132.543,17.106C133.069,17.106 133.481,17.309 133.779,17.714C134.077,18.12 134.217,18.622 134.217,19.221L134.217,23.513C134.217,24.077 134.05,24.562 133.717,24.976C133.384,25.39 132.955,25.602 132.438,25.602C131.894,25.602 131.447,25.417 131.079,25.038C130.72,24.668 130.536,24.209 130.536,23.672L130.536,15.996C130.536,15.291 130.755,14.727 131.202,14.303C131.64,13.88 132.21,13.669 132.885,13.669L134.339,13.669C135.943,13.669 136.75,14.427 136.75,15.943L136.75,23.557C136.75,24.033 136.636,24.342 136.408,24.491L138.292,24.491L138.292,14.365C138.292,13.907 138.476,13.678 138.853,13.678C139.23,13.678 139.405,13.942 139.405,14.453L139.405,28.686L139.423,28.66ZM133.121,23.663L133.121,19.054C133.121,18.454 132.893,18.155 132.42,18.155C131.912,18.155 131.666,18.481 131.666,19.142L131.666,23.654C131.666,24.192 131.903,24.456 132.394,24.456C132.885,24.456 133.121,24.192 133.121,23.654Z" fill="#FFFFFF"/>
<path d="M76.118,25.373L75.207,23.777C74.392,22.359 73.191,21.204 71.753,20.455L70.132,19.609L71.718,18.692C73.129,17.873 74.278,16.665 75.023,15.22L75.864,13.59L76.775,15.185C77.591,16.604 78.791,17.758 80.229,18.507L81.85,19.353L80.264,20.27C78.853,21.09 77.704,22.297 76.959,23.742L76.118,25.373Z" fill="#FFFFFF"/>
<path d="M64.558,23.213L64.032,22.297C63.559,21.477 62.875,20.816 62.043,20.376L61.105,19.891L62.016,19.362C62.831,18.886 63.489,18.199 63.927,17.353L64.409,16.41L64.935,17.326C65.399,18.146 66.092,18.807 66.924,19.248L67.862,19.732L66.951,20.261C66.136,20.737 65.478,21.424 65.04,22.262L64.558,23.205L64.558,23.213Z" fill="#FFFFFF"/>
<path d="M87.564,22.693L87.038,21.777C86.565,20.957 85.882,20.296 85.049,19.856L84.111,19.371L85.023,18.842C85.838,18.366 86.495,17.679 86.933,16.833L87.415,15.89L87.941,16.806C88.406,17.626 89.098,18.287 89.931,18.728L90.868,19.212L89.957,19.741C89.142,20.217 88.485,20.904 88.046,21.742L87.564,22.685L87.564,22.693Z" fill="#FFFFFF"/>
</svg>
