<svg width="334" height="162" viewBox="0 0 334 162" fill="none" xmlns="http://www.w3.org/2000/svg" xmlns:xlink="http://www.w3.org/1999/xlink">
<path d="M163.363,6.031L163.457,6.031L163.457,3.004L167.993,3.004L167.993,26.004L163.392,26.004L163.392,17.385L163.297,17.385C162.508,19.296 160.537,20.62 158.08,20.62C153.856,20.62 151.226,17.192 151.226,11.645C151.226,6.097 153.892,2.729 158.16,2.729C160.617,2.729 162.493,4.053 163.363,6.031ZM163.413,11.674C163.413,8.522 161.913,6.514 159.646,6.514C157.378,6.514 155.943,8.484 155.943,11.674C155.943,14.865 157.349,16.82 159.646,16.82C161.942,16.82 163.413,14.85 163.413,11.674Z" fill="#FFFFFF"/>
<path d="M186.592,20.345L182.151,20.345L182.151,17.222L182.057,17.222C181.223,19.408 179.55,20.665 176.999,20.665C173.34,20.665 170.913,18.226 170.913,14.18L170.913,3.004L175.514,3.004L175.514,13.199C175.514,15.511 176.63,16.738 178.666,16.738C180.702,16.738 181.991,15.236 181.991,12.939L181.991,3.004L186.592,3.004L186.592,20.345Z" fill="#FFFFFF"/>
<path d="M204.996,15.043C204.496,18.441 201.468,20.724 197.287,20.724C192.085,20.724 188.962,17.311 188.962,11.764C188.962,6.216 192.114,2.64 197.113,2.64C202.112,2.64 205.134,6.053 205.134,11.325L205.134,12.76L193.49,12.76L193.49,13.05C193.49,15.526 195.019,17.222 197.367,17.222C199.055,17.222 200.344,16.367 200.772,15.036L204.996,15.036L204.996,15.043ZM193.541,9.868L200.714,9.868C200.62,7.652 199.215,6.127 197.164,6.127C195.113,6.127 193.693,7.696 193.541,9.868Z" fill="#FFFFFF"/>
<path d="M222.916,15.043C222.408,18.441 219.386,20.724 215.206,20.724C210.004,20.724 206.88,17.311 206.88,11.764C206.88,6.216 210.032,2.64 215.032,2.64C220.032,2.64 223.054,6.053 223.054,11.325L223.054,12.76L211.41,12.76L211.41,13.05C211.41,15.526 212.938,17.222 215.286,17.222C216.974,17.222 218.264,16.367 218.692,15.036L222.916,15.036L222.916,15.043ZM211.46,9.868L218.634,9.868C218.54,7.652 217.14,6.127 215.09,6.127C213.04,6.127 211.62,7.696 211.468,9.868Z" fill="#FFFFFF"/>
<path d="M229.864,3.004L229.864,6.097L229.958,6.097C230.856,3.948 232.64,2.684 235.24,2.684C238.994,2.684 241.102,5.109 241.102,9.169L241.102,20.345L236.502,20.345L236.502,10.15C236.502,7.882 235.458,6.588 233.392,6.588C231.328,6.588 230.016,8.142 230.016,10.388L230.016,20.337L225.416,20.337L225.416,3.004L229.864,3.004Z" fill="#FFFFFF"/>
<path d="M151.842,31.848L156.284,31.848L156.284,34.986L156.378,34.986C157.088,32.897 158.899,31.521 161.203,31.521C163.645,31.521 165.348,32.815 165.913,35.083L166.007,35.083C166.761,32.897 168.782,31.521 171.253,31.521C174.565,31.521 176.789,33.849 176.789,37.343L176.789,49.181L172.188,49.181L172.188,38.518C172.188,36.511 171.21,35.41 169.427,35.41C167.645,35.41 166.522,36.719 166.522,38.645L166.522,49.174L162.095,49.174L162.095,38.37C162.095,36.511 161.073,35.41 159.37,35.41C157.667,35.41 156.436,36.771 156.436,38.712L156.436,49.181L151.835,49.181L151.835,31.841L151.842,31.848Z" fill="#FFFFFF"/>
<path d="M179.629,27.498C179.629,26.123 180.702,25.052 182.086,25.052C183.47,25.052 184.549,26.123 184.549,27.498C184.549,28.874 183.477,29.937 182.086,29.937C180.694,29.937 179.629,28.852 179.629,27.498ZM179.781,31.848L184.383,31.848L184.383,49.189L179.781,49.189L179.781,31.848Z" fill="#FFFFFF"/>
<path d="M187.44,31.848L191.882,31.848L191.882,34.971L191.976,34.971C192.57,32.77 194.012,31.573 195.997,31.573C196.534,31.573 196.99,31.655 197.302,31.752L197.302,35.908C196.925,35.745 196.295,35.633 195.635,35.633C193.367,35.633 192.041,37.053 192.041,39.5L192.041,49.189L187.44,49.189L187.44,31.848Z" fill="#FFFFFF"/>
<path d="M198.142,44.207C198.142,41.054 200.504,39.225 204.714,38.964L208.968,38.704L208.968,37.559C208.968,35.938 207.866,35.001 206.134,35.001C204.402,35.001 203.322,35.871 203.106,37.15L198.896,37.15C199.07,33.789 201.86,31.476 206.338,31.476C210.816,31.476 213.496,33.774 213.496,37.269L213.496,49.189L209.054,49.189L209.054,46.534L208.96,46.534C208.018,48.378 205.916,49.464 203.808,49.464C200.592,49.464 198.149,47.33 198.149,44.207M208.968,42.831L208.968,41.567L205.402,41.79C203.686,41.917 202.708,42.712 202.708,43.939C202.708,45.233 203.75,46.044 205.308,46.044C207.308,46.044 208.968,44.705 208.968,42.824Z" fill="#FFFFFF"/>
<path d="M151.762,56.342C151.762,54.967 152.835,53.903 154.219,53.903C155.602,53.903 156.675,54.967 156.675,56.342C156.675,57.718 155.602,58.789 154.219,58.789C152.835,58.789 151.762,57.703 151.762,56.342ZM151.922,60.692L156.523,60.692L156.523,78.033L151.922,78.033L151.922,60.692Z" fill="#FFFFFF"/>
<path d="M159.58,60.692L164.022,60.692L164.022,63.786L164.116,63.786C165.015,61.637 166.797,60.373 169.398,60.373C173.152,60.373 175.26,62.797 175.26,66.857L175.26,78.033L170.659,78.033L170.659,67.838C170.659,65.57 169.616,64.277 167.551,64.277C165.486,64.277 164.174,65.831 164.174,68.076L164.174,78.026L159.573,78.026L159.573,60.685L159.58,60.692Z" fill="#FFFFFF"/>
<path d="M184.006,56.699L184.006,60.692L187.129,60.692L187.129,64.254L184.006,64.254L184.006,72.553C184.006,73.876 184.636,74.508 185.991,74.508C186.397,74.508 186.824,74.479 187.107,74.427L187.107,77.907C186.636,78.018 185.846,78.1 184.919,78.1C180.948,78.1 179.405,76.739 179.405,73.363L179.405,64.254L177.021,64.254L177.021,60.692L179.405,60.692L179.405,56.699L184.006,56.699Z" fill="#FFFFFF"/>
<path d="M204.83,72.731C204.322,76.129 201.302,78.412 197.121,78.412C191.918,78.412 188.795,74.999 188.795,69.452C188.795,63.905 191.947,60.328 196.947,60.328C201.946,60.328 204.968,63.741 204.968,69.013L204.968,70.448L193.317,70.448L193.317,70.738C193.317,73.215 194.845,74.91 197.193,74.91C198.881,74.91 200.172,74.055 200.598,72.724L204.822,72.724L204.83,72.731ZM193.367,67.556L200.54,67.556C200.446,65.34 199.048,63.815 196.997,63.815C194.947,63.815 193.527,65.384 193.375,67.556Z" fill="#FFFFFF"/>
<path d="M207.33,60.692L211.772,60.692L211.772,63.815L211.866,63.815C212.46,61.614 213.902,60.417 215.888,60.417C216.424,60.417 216.88,60.499 217.192,60.596L217.192,64.752C216.814,64.589 216.184,64.477 215.524,64.477C213.256,64.477 211.93,65.898 211.93,68.344L211.93,78.033L207.33,78.033L207.33,60.692Z" fill="#FFFFFF"/>
<path d="M219.068,60.692L223.51,60.692L223.51,63.786L223.604,63.786C224.502,61.637 226.284,60.373 228.886,60.373C232.64,60.373 234.748,62.797 234.748,66.857L234.748,78.033L230.146,78.033L230.146,67.838C230.146,65.57 229.104,64.277 227.038,64.277C224.974,64.277 223.662,65.831 223.662,68.076L223.662,78.026L219.06,78.026L219.06,60.685L219.068,60.692Z" fill="#FFFFFF"/>
<path d="M237.022,73.051C237.022,69.898 239.386,68.069 243.594,67.809L247.848,67.548L247.848,66.403C247.848,64.782 246.746,63.845 245.008,63.845C243.268,63.845 242.204,64.715 241.978,65.994L237.77,65.994C237.944,62.633 240.732,60.321 245.21,60.321C249.688,60.321 252.37,62.618 252.37,66.113L252.37,78.033L247.928,78.033L247.928,75.378L247.834,75.378C246.892,77.223 244.79,78.308 242.682,78.308C239.464,78.308 237.022,76.174 237.022,73.051ZM247.848,71.675L247.848,70.411L244.284,70.634C242.566,70.761 241.588,71.556 241.588,72.783C241.588,74.077 242.632,74.888 244.188,74.888C246.188,74.888 247.848,73.549 247.848,71.668Z" fill="#FFFFFF"/>
<path d="M261.166,56.699L261.166,60.692L264.288,60.692L264.288,64.254L261.166,64.254L261.166,72.553C261.166,73.876 261.796,74.508 263.152,74.508C263.556,74.508 263.984,74.479 264.266,74.427L264.266,77.907C263.796,78.018 263.006,78.1 262.078,78.1C258.108,78.1 256.564,76.739 256.564,73.363L256.564,64.254L254.18,64.254L254.18,60.692L256.564,60.692L256.564,56.699L261.166,56.699Z" fill="#FFFFFF"/>
<path d="M266.724,56.342C266.724,54.967 267.796,53.903 269.186,53.903C270.578,53.903 271.644,54.967 271.644,56.342C271.644,57.718 270.57,58.789 269.186,58.789C267.802,58.789 266.724,57.703 266.724,56.342ZM266.882,60.692L271.484,60.692L271.484,78.033L266.882,78.033L266.882,60.692Z" fill="#FFFFFF"/>
<path d="M273.926,69.348C273.926,63.734 277.236,60.321 282.294,60.321C287.352,60.321 290.664,63.719 290.664,69.348C290.664,74.977 287.402,78.405 282.294,78.405C277.186,78.405 273.926,75.036 273.926,69.348ZM285.982,69.363C285.982,65.92 284.534,63.927 282.294,63.927C280.056,63.927 278.592,65.92 278.592,69.363C278.592,72.806 280.026,74.798 282.294,74.798C284.562,74.798 285.982,72.843 285.982,69.363Z" fill="#FFFFFF"/>
<path d="M293.026,60.692L297.466,60.692L297.466,63.786L297.562,63.786C298.46,61.637 300.242,60.373 302.844,60.373C306.596,60.373 308.706,62.797 308.706,66.857L308.706,78.033L304.104,78.033L304.104,67.838C304.104,65.57 303.06,64.277 300.996,64.277C298.93,64.277 297.62,65.831 297.62,68.076L297.62,78.026L293.018,78.026L293.018,60.685L293.026,60.692Z" fill="#FFFFFF"/>
<path d="M310.98,73.051C310.98,69.898 313.342,68.069 317.552,67.809L321.806,67.548L321.806,66.403C321.806,64.782 320.704,63.845 318.972,63.845C317.24,63.845 316.16,64.715 315.944,65.994L311.734,65.994C311.908,62.633 314.698,60.321 319.176,60.321C323.654,60.321 326.334,62.618 326.334,66.113L326.334,78.033L321.892,78.033L321.892,75.378L321.798,75.378C320.856,77.223 318.754,78.308 316.646,78.308C313.43,78.308 310.988,76.174 310.988,73.051M321.806,71.675L321.806,70.411L318.24,70.634C316.524,70.761 315.546,71.556 315.546,72.783C315.546,74.077 316.588,74.888 318.146,74.888C320.146,74.888 321.806,73.549 321.806,71.668Z" fill="#FFFFFF"/>
<path d="M334,54.692L329.398,54.692L329.398,78.033L334,78.033L334,54.692Z" fill="#FFFFFF"/>
<path d="M158.682,89.165C162.921,89.165 165.681,91.366 165.746,94.727L161.508,94.727C161.414,93.336 160.327,92.481 158.624,92.481C157.03,92.481 155.994,93.225 155.994,94.34C155.994,95.195 156.718,95.783 158.204,96.132L161.435,96.846C164.826,97.619 166.196,98.995 166.196,101.583C166.196,104.996 163.138,107.242 158.675,107.242C154.211,107.242 151.393,105.011 151.139,101.627L155.631,101.627C155.856,103.085 156.972,103.925 158.798,103.925C160.624,103.925 161.602,103.211 161.602,102.081C161.602,101.211 161.037,100.72 159.522,100.348L156.399,99.635C153.197,98.891 151.559,97.173 151.559,94.623C151.559,91.321 154.349,89.157 158.682,89.157Z" fill="#FFFFFF"/>
<path d="M179.55,95.991C179.282,94.162 178.1,92.868 176.209,92.868C173.934,92.868 172.521,94.838 172.521,98.192C172.521,101.546 173.941,103.546 176.224,103.546C178.072,103.546 179.267,102.416 179.55,100.519L183.839,100.519C183.6,104.609 180.622,107.249 176.18,107.249C171.087,107.249 167.855,103.851 167.855,98.192C167.855,92.533 171.087,89.165 176.144,89.165C180.716,89.165 183.615,92.065 183.817,95.991L179.55,95.991Z" fill="#FFFFFF"/>
<path d="M186.165,83.536L190.686,83.536L190.686,92.622L190.781,92.622C191.679,90.436 193.527,89.209 196.092,89.209C199.845,89.209 201.99,91.7 201.99,95.716L201.99,106.877L197.389,106.877L197.389,96.72C197.389,94.489 196.316,93.128 194.222,93.128C192.128,93.128 190.773,94.697 190.773,96.98L190.773,106.877L186.172,106.877L186.172,83.536L186.165,83.536Z" fill="#FFFFFF"/>
<path d="M204.302,98.192C204.302,92.578 207.612,89.165 212.67,89.165C217.728,89.165 221.038,92.563 221.038,98.192C221.038,103.821 217.778,107.249 212.67,107.249C207.562,107.249 204.302,103.88 204.302,98.192ZM216.366,98.207C216.366,94.764 214.916,92.771 212.678,92.771C210.438,92.771 208.974,94.764 208.974,98.207C208.974,101.65 210.41,103.643 212.678,103.643C214.946,103.643 216.366,101.687 216.366,98.207Z" fill="#FFFFFF"/>
<path d="M222.792,98.192C222.792,92.578 226.104,89.165 231.162,89.165C236.218,89.165 239.53,92.563 239.53,98.192C239.53,103.821 236.27,107.249 231.162,107.249C226.052,107.249 222.792,103.88 222.792,98.192ZM234.85,98.207C234.85,94.764 233.4,92.771 231.162,92.771C228.922,92.771 227.458,94.764 227.458,98.207C227.458,101.65 228.894,103.643 231.162,103.643C233.43,103.643 234.85,101.687 234.85,98.207Z" fill="#FFFFFF"/>
<path d="M246.602,83.536L242,83.536L242,106.877L246.602,106.877L246.602,83.536Z" fill="#FFFFFF"/>
<path d="M125.634,0L0,0L0,97.322C0,112.328 10.506,127.735 31.229,143.128C46.409,154.4 61.328,161.308 61.958,161.598L62.821,162L63.69,161.598C64.321,161.308 79.24,154.408 94.419,143.128C115.142,127.735 125.649,112.32 125.649,97.315L125.649,0L125.634,0Z" fill="#FFFFFF"/>
<path d="M125.634,0L0,0L0,32.867L125.634,32.867L125.634,0Z" fill="#D21B21"/>
<path d="M52.843,58.848C52.829,53.836 56.799,49.747 61.676,49.739C66.559,49.724 70.545,53.799 70.552,58.804C70.559,63.035 67.741,66.589 63.922,67.608L63.936,72.248C70.211,71.155 74.986,65.548 74.972,58.796C74.957,51.271 69.001,45.188 61.669,45.211C54.336,45.226 48.409,51.338 48.431,58.863C48.445,65.615 53.242,71.199 59.524,72.263L59.524,67.623C55.698,66.619 52.858,63.072 52.843,58.848Z" fill="#10194A"/>
<path d="M73.762,120.061L75.472,114.209C79.145,112.581 82.507,111.77 84.935,111.131L84.935,79.349C78.986,79.81 73.262,82.145 68.617,86.042L65.545,82.19C71.61,77.096 79.261,74.293 87.094,74.293L89.775,74.293L89.775,115.072L87.884,115.503C87.818,115.518 78.66,117.868 73.747,120.046Z" fill="#10194A"/>
<path d="M62.748,130.01L60.886,127.765C56.111,121.987 53.582,115.265 53.582,107.74C53.582,103.412 54.879,97.381 56.944,92.593L60.603,96.831C59.162,100.222 58.43,103.791 58.43,107.435C58.43,112.707 59.901,117.689 62.712,122.009C65.444,117.704 66.922,112.633 66.922,107.435C66.922,92.89 54.995,80.487 40.417,79.364L40.417,111.138C42.873,111.785 45.895,112.581 49.597,114.239L51.343,120.069C46.424,117.868 37.533,115.533 37.468,115.518L35.577,115.086L35.577,74.3L38.258,74.3C56.423,74.3 71.776,89.47 71.776,107.435C71.776,114.863 69.226,122.084 64.596,127.757L62.748,130.018L62.748,130.01Z" fill="#10194A"/>
<path d="M63.936,72.255L59.524,72.255L59.524,76.784L63.936,76.784L63.936,72.255Z" fill="#10194A"/>
<path d="M19.672,21.222C19.672,21.557 19.52,21.72 19.23,21.72C18.911,21.72 18.759,21.542 18.759,21.193L18.759,15.318L17.303,15.318L17.303,19.75C17.303,20.293 17.129,20.731 16.781,21.074C16.433,21.416 16.02,21.587 15.542,21.587L12.093,21.587C11.615,21.587 11.209,21.401 10.876,21.036C10.543,20.665 10.376,20.204 10.376,19.646L10.376,16.248C10.376,15.705 10.55,15.259 10.883,14.909C11.224,14.56 11.687,14.381 12.267,14.381L12.267,12.478C12.267,11.942 12.455,11.481 12.825,11.094C13.195,10.708 13.6,10.522 14.028,10.522L15.513,10.522C16.042,10.522 16.484,10.73 16.839,11.154C17.143,11.556 17.296,12.017 17.296,12.544L17.296,14.381L18.752,14.381L18.752,11.92C18.752,11.57 18.911,11.399 19.223,11.399C19.52,11.399 19.665,11.578 19.665,11.92L19.665,21.23L19.672,21.222ZM16.375,19.698L16.375,15.318L15.354,15.318L15.354,16.5C15.354,17.028 15.216,17.46 14.948,17.809C14.68,18.159 14.318,18.337 13.861,18.337C13.441,18.337 13.064,18.159 12.745,17.787C12.419,17.422 12.267,16.954 12.267,16.389L12.267,15.318C12.042,15.281 11.84,15.34 11.637,15.489C11.441,15.638 11.347,15.846 11.347,16.114L11.347,19.899C11.347,20.077 11.427,20.241 11.586,20.404C11.745,20.56 11.934,20.642 12.137,20.642L15.491,20.642C16.086,20.642 16.383,20.33 16.383,19.698M14.434,16.746L14.434,13.794C14.434,13.31 14.231,13.072 13.832,13.072C13.397,13.072 13.18,13.318 13.18,13.794L13.18,16.776C13.18,17.192 13.405,17.393 13.861,17.393C14.238,17.393 14.434,17.177 14.434,16.746ZM16.325,14.374L16.325,12.359C16.325,12.165 16.252,11.979 16.122,11.793C15.984,11.608 15.817,11.518 15.607,11.518L14.122,11.518C13.919,11.518 13.723,11.593 13.55,11.727C13.368,11.868 13.281,12.031 13.281,12.225C13.434,12.158 13.651,12.121 13.934,12.121C14.368,12.121 14.716,12.284 14.97,12.604C15.223,12.924 15.347,13.318 15.347,13.771L15.347,14.374L16.325,14.374Z" fill="#FFFFFF"/>
<path d="M27.23,20.932C27.23,22.538 26.36,23.349 24.614,23.349L21.868,23.349C21.643,23.349 21.447,23.423 21.274,23.572C21.1,23.721 21.02,23.877 21.02,24.033L21.02,24.345C21.02,24.658 20.861,24.821 20.549,24.821C20.252,24.821 20.107,24.695 20.107,24.435L20.107,24.122C20.107,23.654 20.274,23.252 20.614,22.918C20.955,22.583 21.346,22.412 21.781,22.412L24.527,22.412C25.172,22.412 25.628,22.278 25.904,22.018C26.172,21.75 26.309,21.289 26.309,20.62L26.309,13.392C26.309,12.775 26.019,12.47 25.425,12.47L24.063,12.47L24.063,20.992C24.063,21.393 23.925,21.594 23.657,21.594C23.353,21.594 23.201,21.401 23.201,21.014L23.201,13.385C23.201,12.775 22.933,12.463 22.397,12.463C21.897,12.463 21.643,12.753 21.643,13.333L21.643,21.118C21.643,21.43 21.505,21.587 21.223,21.587C20.889,21.587 20.723,21.438 20.723,21.14L20.723,13.117C20.723,12.649 20.882,12.262 21.208,11.964C21.534,11.667 21.926,11.518 22.382,11.518C22.839,11.518 23.23,11.66 23.585,11.935L23.585,11.518L25.679,11.518C26.106,11.518 26.476,11.697 26.78,12.054C27.092,12.411 27.244,12.834 27.244,13.325L27.244,20.925L27.23,20.932Z" fill="#FFFFFF"/>
<path d="M35.077,19.594C35.077,20.226 34.903,20.709 34.562,21.059C34.222,21.408 33.823,21.579 33.367,21.579L28.766,21.579C28.403,21.579 28.229,21.43 28.229,21.133L28.229,12.031C28.229,11.682 28.389,11.511 28.7,11.511C28.997,11.511 29.142,11.689 29.142,12.031L29.142,20.583L31.316,20.583L31.316,11.935C31.316,11.66 31.439,11.518 31.693,11.518L33.243,11.518C33.751,11.518 34.185,11.712 34.533,12.098C34.888,12.485 35.069,12.946 35.069,13.489L35.069,19.601L35.077,19.594ZM31.476,10.046C31.476,10.329 31.331,10.462 31.041,10.462C30.751,10.462 30.606,10.321 30.606,10.046L30.606,8.529C30.606,8.18 30.751,8.001 31.041,8.001C31.331,8.001 31.476,8.18 31.476,8.529L31.476,10.046ZM34.156,19.646L34.156,13.4C34.156,13.139 34.062,12.916 33.874,12.73C33.685,12.544 33.461,12.455 33.2,12.455L32.244,12.455L32.244,20.583L33.28,20.583C33.867,20.583 34.156,20.27 34.156,19.646Z" fill="#FFFFFF"/>
<path d="M97.303,21.222C97.303,21.557 97.151,21.72 96.861,21.72C96.542,21.72 96.39,21.542 96.39,21.193L96.39,15.318L94.934,15.318L94.934,19.75C94.934,20.293 94.76,20.731 94.412,21.074C94.064,21.416 93.651,21.587 93.173,21.587L89.724,21.587C89.246,21.587 88.84,21.401 88.507,21.036C88.174,20.665 88.007,20.204 88.007,19.646L88.007,16.248C88.007,15.705 88.181,15.259 88.514,14.909C88.855,14.56 89.318,14.381 89.898,14.381L89.898,12.478C89.898,11.942 90.086,11.481 90.456,11.094C90.833,10.715 91.231,10.522 91.659,10.522L93.144,10.522C93.673,10.522 94.115,10.73 94.47,11.154C94.774,11.556 94.927,12.017 94.927,12.544L94.927,14.381L96.383,14.381L96.383,11.92C96.383,11.57 96.542,11.399 96.854,11.399C97.151,11.399 97.296,11.578 97.296,11.92L97.296,21.23L97.303,21.222ZM94.014,19.698L94.014,15.318L92.992,15.318L92.992,16.5C92.992,17.028 92.854,17.46 92.586,17.809C92.318,18.159 91.956,18.337 91.499,18.337C91.079,18.337 90.71,18.159 90.383,17.787C90.057,17.422 89.905,16.954 89.905,16.389L89.905,15.318C89.681,15.281 89.478,15.34 89.275,15.489C89.079,15.638 88.985,15.846 88.985,16.114L88.985,19.899C88.985,20.077 89.065,20.241 89.224,20.404C89.384,20.56 89.572,20.642 89.775,20.642L93.13,20.642C93.724,20.642 94.021,20.33 94.021,19.698M92.064,16.746L92.064,13.794C92.064,13.31 91.862,13.072 91.463,13.072C91.028,13.072 90.811,13.318 90.811,13.794L90.811,16.776C90.811,17.192 91.036,17.393 91.492,17.393C91.869,17.393 92.064,17.177 92.064,16.746ZM93.956,14.374L93.956,12.359C93.956,12.165 93.883,11.979 93.753,11.793C93.615,11.608 93.448,11.518 93.238,11.518L91.753,11.518C91.55,11.518 91.354,11.593 91.18,11.727C90.999,11.868 90.912,12.031 90.912,12.225C91.065,12.158 91.282,12.121 91.565,12.121C91.999,12.121 92.347,12.284 92.601,12.604C92.854,12.924 92.977,13.318 92.977,13.771L92.977,14.374L93.956,14.374Z" fill="#FFFFFF"/>
<path d="M106.94,21.007C106.94,21.393 106.795,21.587 106.52,21.587C106.186,21.587 106.02,21.393 106.02,21.007L106.02,10.604C106.02,10.061 105.831,9.786 105.447,9.786L104.491,9.786C104.375,9.786 104.259,9.853 104.158,9.979C104.056,10.113 104.005,10.247 104.005,10.388L104.005,11.147C104.005,11.407 104.179,11.704 104.52,12.031C104.86,12.351 105.027,12.812 105.027,13.407L105.027,20.917C105.027,22.561 104.15,23.386 102.397,23.386L99.586,23.386C99.383,23.386 99.187,23.468 99.006,23.624C98.832,23.78 98.738,23.944 98.738,24.122L98.738,24.412C98.738,24.71 98.578,24.858 98.252,24.858C97.963,24.858 97.818,24.732 97.818,24.472L97.818,24.137C97.818,23.684 97.984,23.297 98.318,22.955C98.651,22.62 99.042,22.449 99.484,22.449L102.585,22.449C103.592,22.449 104.1,21.973 104.1,21.029L104.1,13.407C104.1,12.775 103.694,12.455 102.868,12.455L101.824,12.455L101.824,21.081C101.824,21.416 101.672,21.579 101.375,21.579C101.056,21.579 100.897,21.423 100.897,21.111L100.897,13.377C100.897,12.768 100.629,12.455 100.1,12.455C99.571,12.455 99.267,12.738 99.267,13.296L99.267,21.111C99.267,21.423 99.129,21.579 98.846,21.579C98.513,21.579 98.347,21.423 98.347,21.111L98.347,13.243C98.347,12.768 98.52,12.366 98.868,12.024C99.216,11.682 99.622,11.511 100.078,11.511C100.47,11.511 100.854,11.652 101.23,11.927L101.23,11.511L103.353,11.511C103.165,11.303 103.071,11.102 103.071,10.909L103.071,10.381C103.071,9.964 103.216,9.6 103.498,9.295C103.788,8.99 104.092,8.834 104.411,8.834L105.476,8.834C105.904,8.834 106.244,9.005 106.512,9.347C106.781,9.689 106.918,10.091 106.918,10.567L106.918,20.999L106.94,21.007Z" fill="#FFFFFF"/>
<path d="M115.265,24.182C115.265,24.479 115.135,24.628 114.881,24.628C114.526,24.628 114.345,24.479 114.345,24.182L114.345,21.587L111.838,21.587C111.396,21.587 111.172,21.423 111.172,21.088C111.172,20.932 111.331,20.776 111.657,20.62C111.983,20.464 112.142,20.211 112.142,19.861L112.142,13.571C112.142,12.834 111.795,12.47 111.114,12.47L109.744,12.47C109.143,12.47 108.846,12.79 108.846,13.437L108.846,14.671C108.933,14.515 109.179,14.433 109.577,14.433C110.012,14.433 110.353,14.604 110.599,14.946C110.845,15.288 110.961,15.712 110.961,16.218L110.961,19.839C110.961,20.315 110.824,20.724 110.548,21.074C110.273,21.423 109.918,21.601 109.49,21.601C109.041,21.601 108.672,21.445 108.367,21.126C108.07,20.813 107.918,20.427 107.918,19.973L107.918,13.496C107.918,12.901 108.099,12.426 108.469,12.069C108.831,11.712 109.302,11.533 109.86,11.533L111.063,11.533C112.389,11.533 113.055,12.173 113.055,13.452L113.055,19.876C113.055,20.278 112.961,20.538 112.773,20.665L114.331,20.665L114.331,12.121C114.331,11.734 114.483,11.541 114.794,11.541C115.106,11.541 115.251,11.764 115.251,12.195L115.251,24.204L115.265,24.182ZM110.056,19.966L110.056,16.077C110.056,15.571 109.867,15.318 109.476,15.318C109.056,15.318 108.853,15.593 108.853,16.151L108.853,19.958C108.853,20.412 109.049,20.635 109.454,20.635C109.86,20.635 110.056,20.412 110.056,19.958Z" fill="#FFFFFF"/>
<path d="M62.929,21.408L62.176,20.062C61.502,18.865 60.509,17.891 59.321,17.259L57.98,16.545L59.292,15.772C60.459,15.08 61.408,14.061 62.024,12.842L62.719,11.466L63.473,12.812C64.147,14.009 65.139,14.983 66.328,15.616L67.668,16.329L66.357,17.103C65.19,17.794 64.241,18.813 63.625,20.032L62.929,21.408Z" fill="#FFFFFF"/>
<path d="M53.372,19.586L52.937,18.813C52.546,18.121 51.981,17.564 51.293,17.192L50.517,16.783L51.271,16.337C51.945,15.935 52.488,15.355 52.85,14.641L53.249,13.846L53.684,14.619C54.068,15.311 54.64,15.868 55.329,16.24L56.104,16.649L55.35,17.095C54.676,17.497 54.133,18.077 53.771,18.783L53.372,19.579L53.372,19.586Z" fill="#FFFFFF"/>
<path d="M72.392,19.148L71.958,18.374C71.566,17.683 71.001,17.125 70.313,16.753L69.537,16.344L70.291,15.898C70.965,15.497 71.508,14.917 71.871,14.203L72.269,13.407L72.704,14.18C73.088,14.872 73.66,15.43 74.349,15.801L75.124,16.21L74.37,16.657C73.697,17.058 73.153,17.638 72.791,18.345L72.392,19.14L72.392,19.148Z" fill="#FFFFFF"/>
</svg>
