<svg width="320" height="154" viewBox="0 0 320 154" fill="none" xmlns="http://www.w3.org/2000/svg" xmlns:xlink="http://www.w3.org/1999/xlink">
<path d="M156.515,5.733L156.605,5.733L156.605,2.856L160.951,2.856L160.951,24.719L156.543,24.719L156.543,16.527L156.453,16.527C155.696,18.343 153.808,19.602 151.454,19.602C147.407,19.602 144.887,16.343 144.887,11.07C144.887,5.796 147.442,2.594 151.531,2.594C153.884,2.594 155.682,3.852 156.515,5.733ZM156.564,11.098C156.564,8.101 155.127,6.192 152.954,6.192C150.781,6.192 149.406,8.065 149.406,11.098C149.406,14.13 150.753,15.99 152.954,15.99C155.154,15.99 156.564,14.116 156.564,11.098Z" fill="#10194A"/>
<path d="M178.771,19.34L174.516,19.34L174.516,16.371L174.426,16.371C173.627,18.449 172.024,19.644 169.58,19.644C166.074,19.644 163.749,17.326 163.749,13.48L163.749,2.856L168.157,2.856L168.157,12.547C168.157,14.745 169.226,15.912 171.177,15.912C173.127,15.912 174.363,14.484 174.363,12.3L174.363,2.856L178.771,2.856L178.771,19.34Z" fill="#10194A"/>
<path d="M196.404,14.3C195.925,17.531 193.023,19.701 189.018,19.701C184.033,19.701 181.041,16.456 181.041,11.183C181.041,5.909 184.061,2.509 188.851,2.509C193.641,2.509 196.536,5.754 196.536,10.766L196.536,12.13L185.38,12.13L185.38,12.406C185.38,14.76 186.845,16.371 189.094,16.371C190.712,16.371 191.947,15.558 192.357,14.293L196.404,14.293L196.404,14.3ZM185.429,9.38L192.301,9.38C192.211,7.274 190.864,5.825 188.9,5.825C186.935,5.825 185.574,7.316 185.429,9.38Z" fill="#10194A"/>
<path d="M213.572,14.3C213.086,17.531 210.19,19.701 206.186,19.701C201.202,19.701 198.209,16.456 198.209,11.183C198.209,5.909 201.228,2.509 206.018,2.509C210.808,2.509 213.704,5.754 213.704,10.766L213.704,12.13L202.548,12.13L202.548,12.406C202.548,14.76 204.012,16.371 206.262,16.371C207.88,16.371 209.114,15.558 209.524,14.293L213.572,14.293L213.572,14.3ZM202.596,9.38L209.468,9.38C209.378,7.274 208.038,5.825 206.074,5.825C204.11,5.825 202.75,7.316 202.604,9.38Z" fill="#10194A"/>
<path d="M220.23,2.856L220.23,5.796L220.32,5.796C221.18,3.754 222.888,2.552 225.38,2.552C228.976,2.552 230.996,4.856 230.996,8.716L230.996,19.34L226.588,19.34L226.588,9.649C226.588,7.493 225.588,6.263 223.61,6.263C221.632,6.263 220.374,7.74 220.374,9.875L220.374,19.333L215.966,19.333L215.966,2.856L220.23,2.856Z" fill="#10194A"/>
<path d="M145.477,30.276L149.733,30.276L149.733,33.259L149.823,33.259C150.503,31.272 152.239,29.964 154.446,29.964C156.786,29.964 158.417,31.194 158.959,33.35L159.049,33.35C159.771,31.272 161.708,29.964 164.075,29.964C167.247,29.964 169.379,32.177 169.379,35.499L169.379,46.753L164.971,46.753L164.971,36.616C164.971,34.708 164.033,33.661 162.326,33.661C160.618,33.661 159.542,34.906 159.542,36.736L159.542,46.746L155.3,46.746L155.3,36.475C155.3,34.708 154.321,33.661 152.69,33.661C151.059,33.661 149.879,34.955 149.879,36.8L149.879,46.753L145.47,46.753L145.47,30.268L145.477,30.276Z" fill="#10194A"/>
<path d="M172.1,26.14C172.1,24.833 173.127,23.815 174.453,23.815C175.779,23.815 176.814,24.833 176.814,26.14C176.814,27.448 175.786,28.459 174.453,28.459C173.12,28.459 172.1,27.427 172.1,26.14ZM172.246,30.276L176.654,30.276L176.654,46.76L172.246,46.76L172.246,30.276Z" fill="#10194A"/>
<path d="M179.583,30.276L183.839,30.276L183.839,33.244L183.929,33.244C184.498,31.152 185.88,30.014 187.782,30.014C188.296,30.014 188.733,30.092 189.032,30.184L189.032,34.135C188.671,33.98 188.067,33.873 187.435,33.873C185.262,33.873 183.992,35.224 183.992,37.549L183.992,46.76L179.583,46.76L179.583,30.276Z" fill="#10194A"/>
<path d="M189.837,42.024C189.837,39.027 192.1,37.288 196.133,37.04L200.208,36.793L200.208,35.704C200.208,34.163 199.153,33.273 197.494,33.273C195.835,33.273 194.8,34.1 194.592,35.316L190.559,35.316C190.725,32.12 193.398,29.922 197.688,29.922C201.978,29.922 204.548,32.106 204.548,35.429L204.548,46.76L200.292,46.76L200.292,44.236L200.202,44.236C199.299,45.989 197.286,47.021 195.266,47.021C192.183,47.021 189.844,44.993 189.844,42.024M200.208,40.716L200.208,39.514L196.793,39.726C195.148,39.847 194.21,40.603 194.21,41.769C194.21,42.999 195.21,43.77 196.703,43.77C198.619,43.77 200.208,42.497 200.208,40.709Z" fill="#10194A"/>
<path d="M145.401,53.56C145.401,52.252 146.428,51.241 147.754,51.241C149.08,51.241 150.108,52.252 150.108,53.56C150.108,54.868 149.08,55.886 147.754,55.886C146.428,55.886 145.401,54.854 145.401,53.56ZM145.554,57.695L149.962,57.695L149.962,74.18L145.554,74.18L145.554,57.695Z" fill="#10194A"/>
<path d="M152.891,57.695L157.147,57.695L157.147,60.636L157.237,60.636C158.098,58.593 159.806,57.391 162.298,57.391C165.894,57.391 167.914,59.696 167.914,63.555L167.914,74.18L163.506,74.18L163.506,64.488C163.506,62.332 162.506,61.102 160.528,61.102C158.549,61.102 157.293,62.58 157.293,64.715L157.293,74.173L152.884,74.173L152.884,57.688L152.891,57.695Z" fill="#10194A"/>
<path d="M176.293,53.899L176.293,57.695L179.285,57.695L179.285,61.081L176.293,61.081L176.293,68.97C176.293,70.228 176.897,70.829 178.195,70.829C178.584,70.829 178.993,70.801 179.264,70.751L179.264,74.059C178.813,74.165 178.056,74.243 177.168,74.243C173.363,74.243 171.885,72.95 171.885,69.74L171.885,61.081L169.601,61.081L169.601,57.695L171.885,57.695L171.885,53.899L176.293,53.899Z" fill="#10194A"/>
<path d="M196.244,69.14C195.758,72.37 192.864,74.54 188.858,74.54C183.874,74.54 180.882,71.296 180.882,66.022C180.882,60.749 183.901,57.349 188.691,57.349C193.481,57.349 196.376,60.593 196.376,65.605L196.376,66.969L185.213,66.969L185.213,67.245C185.213,69.599 186.678,71.211 188.927,71.211C190.545,71.211 191.781,70.398 192.19,69.132L196.237,69.132L196.244,69.14ZM185.262,64.22L192.135,64.22C192.044,62.113 190.705,60.664 188.74,60.664C186.775,60.664 185.415,62.156 185.269,64.22Z" fill="#10194A"/>
<path d="M198.639,57.695L202.894,57.695L202.894,60.664L202.986,60.664C203.554,58.572 204.936,57.434 206.838,57.434C207.352,57.434 207.788,57.511 208.088,57.603L208.088,61.555C207.726,61.399 207.122,61.293 206.49,61.293C204.318,61.293 203.048,62.643 203.048,64.969L203.048,74.18L198.639,74.18L198.639,57.695Z" fill="#10194A"/>
<path d="M209.886,57.695L214.14,57.695L214.14,60.636L214.232,60.636C215.092,58.593 216.8,57.391 219.292,57.391C222.888,57.391 224.908,59.696 224.908,63.555L224.908,74.18L220.5,74.18L220.5,64.488C220.5,62.332 219.5,61.102 217.522,61.102C215.544,61.102 214.286,62.58 214.286,64.715L214.286,74.173L209.878,74.173L209.878,57.688L209.886,57.695Z" fill="#10194A"/>
<path d="M227.088,69.443C227.088,66.446 229.35,64.707 233.384,64.46L237.46,64.213L237.46,63.124C237.46,61.583 236.404,60.692 234.738,60.692C233.072,60.692 232.052,61.519 231.836,62.735L227.802,62.735C227.97,59.54 230.642,57.342 234.932,57.342C239.222,57.342 241.792,59.526 241.792,62.848L241.792,74.18L237.536,74.18L237.536,71.656L237.446,71.656C236.542,73.409 234.53,74.441 232.51,74.441C229.428,74.441 227.088,72.412 227.088,69.443ZM237.46,68.136L237.46,66.934L234.044,67.146C232.398,67.266 231.462,68.023 231.462,69.189C231.462,70.419 232.46,71.189 233.954,71.189C235.87,71.189 237.46,69.917 237.46,68.129Z" fill="#10194A"/>
<path d="M250.218,53.899L250.218,57.695L253.21,57.695L253.21,61.081L250.218,61.081L250.218,68.97C250.218,70.228 250.822,70.829 252.12,70.829C252.51,70.829 252.92,70.801 253.19,70.751L253.19,74.059C252.738,74.165 251.982,74.243 251.094,74.243C247.29,74.243 245.81,72.95 245.81,69.74L245.81,61.081L243.526,61.081L243.526,57.695L245.81,57.695L245.81,53.899L250.218,53.899Z" fill="#10194A"/>
<path d="M255.544,53.56C255.544,52.252 256.57,51.241 257.904,51.241C259.236,51.241 260.256,52.252 260.256,53.56C260.256,54.868 259.23,55.886 257.904,55.886C256.578,55.886 255.544,54.854 255.544,53.56ZM255.696,57.695L260.104,57.695L260.104,74.18L255.696,74.18L255.696,57.695Z" fill="#10194A"/>
<path d="M262.444,65.923C262.444,60.586 265.616,57.342 270.462,57.342C275.308,57.342 278.48,60.572 278.48,65.923C278.48,71.274 275.356,74.533 270.462,74.533C265.568,74.533 262.444,71.331 262.444,65.923ZM273.996,65.937C273.996,62.665 272.606,60.77 270.462,60.77C268.316,60.77 266.914,62.665 266.914,65.937C266.914,69.21 268.288,71.105 270.462,71.105C272.634,71.105 273.996,69.246 273.996,65.937Z" fill="#10194A"/>
<path d="M280.742,57.695L284.998,57.695L284.998,60.636L285.088,60.636C285.95,58.593 287.658,57.391 290.15,57.391C293.746,57.391 295.766,59.696 295.766,63.555L295.766,74.18L291.358,74.18L291.358,64.488C291.358,62.332 290.358,61.102 288.38,61.102C286.4,61.102 285.144,62.58 285.144,64.715L285.144,74.173L280.736,74.173L280.736,57.688L280.742,57.695Z" fill="#10194A"/>
<path d="M297.946,69.443C297.946,66.446 300.208,64.707 304.242,64.46L308.316,64.213L308.316,63.124C308.316,61.583 307.262,60.692 305.602,60.692C303.944,60.692 302.908,61.519 302.7,62.735L298.668,62.735C298.834,59.54 301.506,57.342 305.796,57.342C310.086,57.342 312.656,59.526 312.656,62.848L312.656,74.18L308.4,74.18L308.4,71.656L308.31,71.656C307.408,73.409 305.394,74.441 303.374,74.441C300.292,74.441 297.952,72.412 297.952,69.443M308.316,68.136L308.316,66.934L304.902,67.146C303.256,67.266 302.318,68.023 302.318,69.189C302.318,70.419 303.318,71.189 304.81,71.189C306.726,71.189 308.316,69.917 308.316,68.129Z" fill="#10194A"/>
<path d="M320,51.991L315.592,51.991L315.592,74.18L320,74.18L320,51.991Z" fill="#10194A"/>
<path d="M152.031,84.762C156.092,84.762 158.737,86.854 158.799,90.049L154.738,90.049C154.648,88.727 153.606,87.914 151.975,87.914C150.448,87.914 149.455,88.621 149.455,89.681C149.455,90.494 150.149,91.053 151.572,91.385L154.669,92.064C157.917,92.799 159.229,94.106 159.229,96.566C159.229,99.811 156.3,101.946 152.024,101.946C147.747,101.946 145.047,99.825 144.804,96.609L149.108,96.609C149.323,97.994 150.392,98.793 152.142,98.793C153.891,98.793 154.828,98.114 154.828,97.04C154.828,96.213 154.287,95.746 152.836,95.393L149.844,94.714C146.775,94.007 145.207,92.375 145.207,89.95C145.207,86.811 147.879,84.754 152.031,84.754Z" fill="#10194A"/>
<path d="M172.024,91.251C171.767,89.512 170.635,88.282 168.823,88.282C166.644,88.282 165.29,90.155 165.29,93.343C165.29,96.531 166.65,98.432 168.837,98.432C170.607,98.432 171.753,97.358 172.024,95.555L176.133,95.555C175.904,99.443 173.051,101.953 168.796,101.953C163.915,101.953 160.819,98.722 160.819,93.343C160.819,87.964 163.915,84.762 168.761,84.762C173.141,84.762 175.918,87.518 176.112,91.251L172.024,91.251Z" fill="#10194A"/>
<path d="M178.362,79.41L182.694,79.41L182.694,88.048L182.784,88.048C183.645,85.97 185.415,84.804 187.872,84.804C191.468,84.804 193.523,87.172 193.523,90.989L193.523,101.599L189.115,101.599L189.115,91.943C189.115,89.823 188.087,88.529 186.081,88.529C184.075,88.529 182.777,90.021 182.777,92.191L182.777,101.599L178.369,101.599L178.369,79.41L178.362,79.41Z" fill="#10194A"/>
<path d="M195.738,93.343C195.738,88.006 198.91,84.762 203.756,84.762C208.602,84.762 211.774,87.992 211.774,93.343C211.774,98.694 208.65,101.953 203.756,101.953C198.862,101.953 195.738,98.751 195.738,93.343ZM207.296,93.357C207.296,90.084 205.908,88.19 203.762,88.19C201.618,88.19 200.216,90.084 200.216,93.357C200.216,96.63 201.59,98.524 203.762,98.524C205.936,98.524 207.296,96.665 207.296,93.357Z" fill="#10194A"/>
<path d="M213.454,93.343C213.454,88.006 216.626,84.762 221.472,84.762C226.318,84.762 229.49,87.992 229.49,93.343C229.49,98.694 226.366,101.953 221.472,101.953C216.578,101.953 213.454,98.751 213.454,93.343ZM225.006,93.357C225.006,90.084 223.616,88.19 221.472,88.19C219.326,88.19 217.924,90.084 217.924,93.357C217.924,96.63 219.298,98.524 221.472,98.524C223.644,98.524 225.006,96.665 225.006,93.357Z" fill="#10194A"/>
<path d="M236.266,79.41L231.858,79.41L231.858,101.599L236.266,101.599L236.266,79.41Z" fill="#10194A"/>
<path d="M120.368,0L0,0L0,92.516C0,106.781 10.066,121.427 29.92,136.059C44.464,146.776 58.757,153.343 59.361,153.618L60.187,154L61.02,153.618C61.624,153.343 75.918,146.783 90.462,136.059C110.316,121.427 120.382,106.774 120.382,92.509L120.382,0L120.368,0Z" fill="#10194A"/>
<path d="M120.368,0L0,0L0,31.244L120.368,31.244L120.368,0Z" fill="#D21B21"/>
<path d="M18.848,20.174C18.848,20.492 18.702,20.648 18.424,20.648C18.119,20.648 17.973,20.478 17.973,20.146L17.973,14.562L16.578,14.562L16.578,18.775C16.578,19.291 16.411,19.708 16.078,20.033C15.745,20.358 15.349,20.521 14.891,20.521L11.586,20.521C11.128,20.521 10.739,20.344 10.42,19.998C10.101,19.644 9.941,19.206 9.941,18.676L9.941,15.445C9.941,14.929 10.108,14.505 10.427,14.173C10.753,13.841 11.198,13.671 11.753,13.671L11.753,11.861C11.753,11.352 11.933,10.914 12.287,10.547C12.648,10.186 13.03,10.002 13.44,10.002L14.863,10.002C15.37,10.002 15.793,10.2 16.133,10.603C16.425,10.985 16.571,11.423 16.571,11.925L16.571,13.671L17.966,13.671L17.966,11.331C17.966,10.999 18.119,10.836 18.417,10.836C18.702,10.836 18.841,11.006 18.841,11.331L18.841,20.181L18.848,20.174ZM15.689,18.725L15.689,14.562L14.71,14.562L14.71,15.686C14.71,16.187 14.578,16.597 14.321,16.93C14.065,17.262 13.717,17.432 13.28,17.432C12.877,17.432 12.516,17.262 12.211,16.908C11.899,16.562 11.753,16.117 11.753,15.58L11.753,14.562C11.538,14.526 11.343,14.583 11.149,14.724C10.961,14.866 10.871,15.064 10.871,15.318L10.871,18.916C10.871,19.086 10.948,19.241 11.1,19.397C11.253,19.545 11.434,19.623 11.628,19.623L14.842,19.623C15.411,19.623 15.696,19.326 15.696,18.725M13.829,15.919L13.829,13.113C13.829,12.653 13.634,12.427 13.252,12.427C12.836,12.427 12.628,12.66 12.628,13.113L12.628,15.947C12.628,16.343 12.843,16.534 13.28,16.534C13.641,16.534 13.829,16.329 13.829,15.919ZM15.64,13.664L15.64,11.748C15.64,11.565 15.571,11.388 15.446,11.211C15.314,11.034 15.154,10.95 14.953,10.95L13.53,10.95C13.336,10.95 13.148,11.02 12.982,11.147C12.808,11.282 12.725,11.437 12.725,11.621C12.871,11.557 13.079,11.522 13.35,11.522C13.766,11.522 14.099,11.678 14.342,11.982C14.585,12.286 14.703,12.66 14.703,13.091L14.703,13.664L15.64,13.664Z" fill="#FFFFFF"/>
<path d="M26.088,19.899C26.088,21.425 25.255,22.196 23.582,22.196L20.951,22.196C20.736,22.196 20.548,22.267 20.382,22.408C20.215,22.549 20.139,22.698 20.139,22.846L20.139,23.143C20.139,23.44 19.986,23.596 19.688,23.596C19.403,23.596 19.264,23.475 19.264,23.228L19.264,22.931C19.264,22.486 19.424,22.104 19.75,21.786C20.076,21.468 20.451,21.305 20.868,21.305L23.499,21.305C24.117,21.305 24.554,21.178 24.818,20.931C25.075,20.676 25.207,20.238 25.207,19.602L25.207,12.731C25.207,12.144 24.929,11.854 24.36,11.854L23.054,11.854L23.054,19.955C23.054,20.337 22.923,20.528 22.666,20.528C22.374,20.528 22.228,20.344 22.228,19.976L22.228,12.724C22.228,12.144 21.972,11.847 21.458,11.847C20.979,11.847 20.736,12.123 20.736,12.674L20.736,20.075C20.736,20.372 20.604,20.521 20.333,20.521C20.014,20.521 19.854,20.379 19.854,20.096L19.854,12.469C19.854,12.024 20.007,11.656 20.319,11.374C20.632,11.091 21.007,10.95 21.444,10.95C21.881,10.95 22.256,11.084 22.596,11.345L22.596,10.95L24.603,10.95C25.012,10.95 25.366,11.119 25.658,11.458C25.956,11.798 26.102,12.201 26.102,12.667L26.102,19.892L26.088,19.899Z" fill="#FFFFFF"/>
<path d="M33.606,18.626C33.606,19.227 33.44,19.687 33.114,20.019C32.787,20.351 32.405,20.514 31.968,20.514L27.56,20.514C27.213,20.514 27.046,20.372 27.046,20.089L27.046,11.437C27.046,11.105 27.199,10.942 27.497,10.942C27.782,10.942 27.921,11.112 27.921,11.437L27.921,19.566L30.003,19.566L30.003,11.345C30.003,11.084 30.121,10.95 30.364,10.95L31.85,10.95C32.336,10.95 32.753,11.133 33.086,11.501C33.426,11.868 33.599,12.307 33.599,12.823L33.599,18.633L33.606,18.626ZM30.156,9.55C30.156,9.818 30.017,9.946 29.74,9.946C29.462,9.946 29.323,9.811 29.323,9.55L29.323,8.108C29.323,7.776 29.462,7.606 29.74,7.606C30.017,7.606 30.156,7.776 30.156,8.108L30.156,9.55ZM32.725,18.676L32.725,12.738C32.725,12.49 32.635,12.278 32.454,12.102C32.274,11.925 32.058,11.84 31.808,11.84L30.892,11.84L30.892,19.566L31.885,19.566C32.447,19.566 32.725,19.269 32.725,18.676Z" fill="#FFFFFF"/>
<path d="M93.225,20.174C93.225,20.492 93.079,20.648 92.801,20.648C92.496,20.648 92.35,20.478 92.35,20.146L92.35,14.562L90.955,14.562L90.955,18.775C90.955,19.291 90.788,19.708 90.455,20.033C90.121,20.358 89.726,20.521 89.268,20.521L85.963,20.521C85.505,20.521 85.116,20.344 84.797,19.998C84.478,19.644 84.318,19.206 84.318,18.676L84.318,15.445C84.318,14.929 84.485,14.505 84.804,14.173C85.13,13.841 85.574,13.671 86.13,13.671L86.13,11.861C86.13,11.352 86.31,10.914 86.664,10.547C87.025,10.186 87.407,10.002 87.817,10.002L89.24,10.002C89.747,10.002 90.17,10.2 90.51,10.603C90.802,10.985 90.948,11.423 90.948,11.925L90.948,13.671L92.343,13.671L92.343,11.331C92.343,10.999 92.496,10.836 92.794,10.836C93.079,10.836 93.218,11.006 93.218,11.331L93.218,20.181L93.225,20.174ZM90.073,18.725L90.073,14.562L89.094,14.562L89.094,15.686C89.094,16.187 88.962,16.597 88.705,16.93C88.448,17.262 88.101,17.432 87.664,17.432C87.261,17.432 86.907,17.262 86.595,16.908C86.283,16.562 86.137,16.117 86.137,15.58L86.137,14.562C85.922,14.526 85.727,14.583 85.533,14.724C85.345,14.866 85.255,15.064 85.255,15.318L85.255,18.916C85.255,19.086 85.331,19.241 85.484,19.397C85.637,19.545 85.817,19.623 86.012,19.623L89.226,19.623C89.795,19.623 90.08,19.326 90.08,18.725M88.205,15.919L88.205,13.113C88.205,12.653 88.011,12.427 87.629,12.427C87.213,12.427 87.005,12.66 87.005,13.113L87.005,15.947C87.005,16.343 87.22,16.534 87.657,16.534C88.018,16.534 88.205,16.329 88.205,15.919ZM90.017,13.664L90.017,11.748C90.017,11.565 89.948,11.388 89.823,11.211C89.691,11.034 89.531,10.95 89.33,10.95L87.907,10.95C87.713,10.95 87.525,11.02 87.359,11.147C87.185,11.282 87.102,11.437 87.102,11.621C87.247,11.557 87.456,11.522 87.726,11.522C88.143,11.522 88.476,11.678 88.719,11.982C88.962,12.286 89.08,12.66 89.08,13.091L89.08,13.664L90.017,13.664Z" fill="#FFFFFF"/>
<path d="M102.457,19.969C102.457,20.337 102.319,20.521 102.055,20.521C101.736,20.521 101.576,20.337 101.576,19.969L101.576,10.08C101.576,9.564 101.395,9.302 101.027,9.302L100.111,9.302C100,9.302 99.889,9.366 99.792,9.486C99.695,9.614 99.646,9.741 99.646,9.875L99.646,10.596C99.646,10.843 99.813,11.126 100.139,11.437C100.465,11.741 100.625,12.179 100.625,12.745L100.625,19.884C100.625,21.447 99.785,22.231 98.105,22.231L95.411,22.231C95.217,22.231 95.03,22.309 94.856,22.457C94.689,22.606 94.599,22.761 94.599,22.931L94.599,23.207C94.599,23.489 94.446,23.631 94.134,23.631C93.856,23.631 93.717,23.511 93.717,23.263L93.717,22.945C93.717,22.514 93.877,22.146 94.196,21.821C94.516,21.503 94.891,21.341 95.314,21.341L98.285,21.341C99.25,21.341 99.736,20.888 99.736,19.99L99.736,12.745C99.736,12.144 99.347,11.84 98.556,11.84L97.556,11.84L97.556,20.04C97.556,20.358 97.411,20.514 97.126,20.514C96.821,20.514 96.668,20.365 96.668,20.068L96.668,12.717C96.668,12.137 96.411,11.84 95.904,11.84C95.397,11.84 95.106,12.109 95.106,12.639L95.106,20.068C95.106,20.365 94.974,20.514 94.703,20.514C94.384,20.514 94.224,20.365 94.224,20.068L94.224,12.589C94.224,12.137 94.391,11.755 94.724,11.43C95.057,11.105 95.446,10.942 95.883,10.942C96.258,10.942 96.626,11.077 96.987,11.338L96.987,10.942L99.021,10.942C98.841,10.745 98.75,10.554 98.75,10.37L98.75,9.868C98.75,9.472 98.889,9.126 99.16,8.836C99.438,8.546 99.729,8.398 100.035,8.398L101.055,8.398C101.465,8.398 101.791,8.56 102.048,8.885C102.305,9.211 102.437,9.592 102.437,10.045L102.437,19.962L102.457,19.969Z" fill="#FFFFFF"/>
<path d="M110.434,22.988C110.434,23.27 110.309,23.412 110.066,23.412C109.726,23.412 109.552,23.27 109.552,22.988L109.552,20.521L107.15,20.521C106.727,20.521 106.512,20.365 106.512,20.047C106.512,19.899 106.664,19.75 106.977,19.602C107.289,19.453 107.442,19.213 107.442,18.881L107.442,12.9C107.442,12.201 107.109,11.854 106.456,11.854L105.144,11.854C104.568,11.854 104.283,12.158 104.283,12.773L104.283,13.947C104.367,13.798 104.603,13.72 104.984,13.72C105.401,13.72 105.727,13.883 105.963,14.208C106.199,14.533 106.31,14.936 106.31,15.417L106.31,18.859C106.31,19.312 106.178,19.701 105.915,20.033C105.651,20.365 105.311,20.535 104.901,20.535C104.471,20.535 104.117,20.386 103.825,20.082C103.54,19.785 103.395,19.418 103.395,18.987L103.395,12.83C103.395,12.264 103.568,11.812 103.922,11.473C104.269,11.133 104.721,10.964 105.255,10.964L106.408,10.964C107.678,10.964 108.317,11.572 108.317,12.787L108.317,18.895C108.317,19.277 108.226,19.524 108.046,19.644L109.538,19.644L109.538,11.522C109.538,11.154 109.684,10.971 109.983,10.971C110.281,10.971 110.42,11.183 110.42,11.593L110.42,23.009L110.434,22.988ZM105.443,18.98L105.443,15.283C105.443,14.802 105.262,14.562 104.887,14.562C104.485,14.562 104.29,14.823 104.29,15.353L104.29,18.973C104.29,19.404 104.478,19.616 104.866,19.616C105.255,19.616 105.443,19.404 105.443,18.973Z" fill="#FFFFFF"/>
<path d="M50.628,55.942C50.614,51.178 54.419,47.29 59.091,47.283C63.77,47.269 67.588,51.142 67.595,55.9C67.602,59.922 64.901,63.301 61.243,64.269L61.257,68.68C67.268,67.641 71.843,62.311 71.829,55.893C71.815,48.739 66.109,42.957 59.084,42.978C52.058,42.992 46.38,48.803 46.401,55.956C46.414,62.375 51.01,67.683 57.029,68.694L57.029,64.283C53.363,63.329 50.642,59.957 50.628,55.942Z" fill="#FFFFFF"/>
<path d="M70.67,114.132L72.308,108.569C75.828,107.021 79.049,106.251 81.375,105.643L81.375,75.431C75.675,75.869 70.191,78.089 65.741,81.793L62.798,78.131C68.608,73.289 75.939,70.624 83.443,70.624L86.012,70.624L86.012,109.389L84.2,109.799C84.137,109.813 75.363,112.047 70.656,114.118Z" fill="#FFFFFF"/>
<path d="M60.118,123.59L58.334,121.455C53.759,115.963 51.336,109.573 51.336,102.419C51.336,98.305 52.579,92.572 54.557,88.02L58.063,92.049C56.682,95.273 55.981,98.666 55.981,102.129C55.981,107.141 57.39,111.877 60.083,115.984C62.7,111.891 64.117,107.071 64.117,102.129C64.117,88.303 52.69,76.512 38.723,75.445L38.723,105.65C41.076,106.265 43.971,107.021 47.518,108.597L49.191,114.139C44.478,112.047 35.96,109.827 35.897,109.813L34.085,109.403L34.085,70.631L36.654,70.631C54.058,70.631 68.768,85.051 68.768,102.129C68.768,109.191 66.324,116.055 61.888,121.448L60.118,123.597L60.118,123.59Z" fill="#FFFFFF"/>
<path d="M61.257,68.687L57.029,68.687L57.029,72.992L61.257,72.992L61.257,68.687Z" fill="#FFFFFF"/>
<path d="M60.292,20.351L59.57,19.072C58.924,17.933 57.973,17.007 56.834,16.407L55.55,15.728L56.807,14.993C57.924,14.335 58.834,13.367 59.424,12.208L60.09,10.9L60.812,12.179C61.458,13.318 62.409,14.244 63.547,14.844L64.832,15.523L63.575,16.258C62.457,16.916 61.548,17.884 60.958,19.043L60.292,20.351Z" fill="#FFFFFF"/>
<path d="M51.135,18.619L50.719,17.884C50.344,17.227 49.802,16.696 49.143,16.343L48.4,15.954L49.122,15.53C49.767,15.148 50.288,14.597 50.635,13.918L51.017,13.162L51.434,13.897C51.801,14.555 52.35,15.085 53.009,15.438L53.752,15.827L53.03,16.251C52.385,16.633 51.864,17.184 51.517,17.856L51.135,18.612L51.135,18.619Z" fill="#FFFFFF"/>
<path d="M69.358,18.202L68.941,17.467C68.566,16.81 68.025,16.279 67.366,15.926L66.623,15.537L67.345,15.113C67.99,14.731 68.511,14.18 68.858,13.501L69.24,12.745L69.656,13.48C70.024,14.138 70.573,14.668 71.232,15.021L71.975,15.41L71.253,15.834C70.607,16.216 70.087,16.767 69.74,17.439L69.358,18.195L69.358,18.202Z" fill="#FFFFFF"/>
</svg>
