<svg width="38" height="38" viewBox="0 0 38 38" fill="none" xmlns="http://www.w3.org/2000/svg" xmlns:xlink="http://www.w3.org/1999/xlink">
<path d="M17,0C7.611,0 0,7.611 0,17C0,26.389 7.611,34 17,34C20.969,34 24.62,32.64 27.513,30.36L28.32,31.148L34.586,37.414L34.774,37.581C35.559,38.191 36.693,38.135 37.414,37.414C38.195,36.633 38.195,35.367 37.414,34.586L31.132,28.304L30.344,27.534C32.633,24.637 34,20.978 34,17C34,7.611 26.389,0 17,0ZM17,4C24.18,4 30,9.82 30,17C30,24.18 24.18,30 17,30C9.82,30 4,24.18 4,17C4,9.82 9.82,4 17,4Z" clip-rule="evenodd" fill-rule="evenodd" fill="#10194A"/>
</svg>
