<svg width="48" height="48" viewBox="0 0 48 48" fill="none" xmlns="http://www.w3.org/2000/svg" xmlns:xlink="http://www.w3.org/1999/xlink">
<path d="M24,0C20.686,0 18,2.686 18,6L18,6.34L17.985,6.529C17.937,6.839 17.776,7.121 17.536,7.323L17.412,7.41L17.293,7.436C17.204,7.461 17.117,7.493 17.032,7.53C16.546,7.745 15.978,7.642 15.599,7.27L15.494,7.166C14.37,6.04 12.842,5.407 11.25,5.407C9.658,5.407 8.13,6.04 7.005,7.167C5.88,8.29 5.247,9.818 5.247,11.41C5.247,12.87 5.779,14.275 6.735,15.365L7.126,15.774C7.482,16.138 7.585,16.706 7.37,17.192C7.139,17.811 6.667,18.148 6.133,18.161L6,18.16C2.686,18.16 0,20.846 0,24.16C0,27.474 2.686,30.16 6,30.16L6.34,30.16C6.85,30.162 7.318,30.472 7.522,30.948C7.745,31.454 7.642,32.022 7.27,32.401L7.166,32.506C6.04,33.63 5.407,35.158 5.407,36.75C5.407,38.342 6.04,39.87 7.167,40.995C8.29,42.12 9.818,42.753 11.41,42.753C12.87,42.753 14.275,42.221 15.365,41.265L15.774,40.874C16.138,40.518 16.706,40.415 17.192,40.63C17.811,40.861 18.148,41.333 18.161,41.867L18.16,42C18.16,45.314 20.846,48 24.16,48C27.474,48 30.16,45.314 30.16,42L30.16,41.66C30.162,41.15 30.472,40.682 30.948,40.478C31.454,40.255 32.022,40.358 32.401,40.73L32.506,40.834C33.63,41.96 35.158,42.593 36.75,42.593C38.342,42.593 39.87,41.96 40.995,40.833C42.12,39.71 42.753,38.182 42.753,36.59C42.753,35.13 42.221,33.725 41.265,32.635L40.874,32.226C40.518,31.862 40.415,31.294 40.63,30.808C40.842,30.312 41.31,30.002 41.828,30L42,30C45.314,30 48,27.314 48,24C48,20.686 45.314,18 42,18L41.66,18L41.471,17.985C41.161,17.937 40.879,17.776 40.677,17.536L40.588,17.412L40.564,17.293C40.539,17.204 40.507,17.117 40.47,17.032C40.255,16.546 40.358,15.978 40.73,15.599L40.834,15.494C41.96,14.37 42.593,12.842 42.593,11.25C42.593,9.658 41.96,8.13 40.833,7.005C39.71,5.88 38.182,5.247 36.59,5.247C35.13,5.247 33.725,5.779 32.635,6.735L32.226,7.126C31.862,7.482 31.294,7.585 30.808,7.37C30.312,7.158 30.002,6.69 30,6.172L30,6C30,2.686 27.314,0 24,0ZM24,4C25.105,4 26,4.895 26,6L26,6.18C26.008,8.3 27.271,10.206 29.212,11.038C31.175,11.905 33.49,11.485 35.039,9.97L35.174,9.834C35.55,9.458 36.059,9.247 36.59,9.247C37.121,9.247 37.63,9.458 38.005,9.833C38.382,10.21 38.593,10.719 38.593,11.25C38.593,11.781 38.382,12.29 38.007,12.665L37.886,12.786L37.627,13.069C36.475,14.428 36.083,16.251 36.555,17.936L36.64,18C36.64,18.271 36.695,18.539 36.802,18.788C37.634,20.729 39.54,21.992 41.652,22L42,22C43.105,22 44,22.895 44,24C44,25.105 43.105,26 42,26L41.82,26C39.7,26.008 37.794,27.271 36.962,29.212C36.095,31.175 36.515,33.49 38.03,35.039L38.166,35.174C38.542,35.55 38.753,36.059 38.753,36.59C38.753,37.121 38.542,37.63 38.167,38.005C37.79,38.382 37.281,38.593 36.75,38.593C36.219,38.593 35.71,38.382 35.335,38.007L35.214,37.886C33.65,36.355 31.335,35.935 29.352,36.81C27.431,37.634 26.168,39.54 26.16,41.652L26.16,42C26.16,43.105 25.265,44 24.16,44C23.055,44 22.16,43.105 22.16,42L22.16,41.82C22.112,39.728 20.89,37.901 19.044,37.067L18.69,36.923C16.825,36.095 14.51,36.515 12.961,38.03L12.826,38.166C12.45,38.542 11.941,38.753 11.41,38.753C10.879,38.753 10.37,38.542 9.995,38.167C9.618,37.79 9.407,37.281 9.407,36.75C9.407,36.219 9.618,35.71 9.993,35.335L10.114,35.214C11.645,33.65 12.065,31.335 11.19,29.352C10.366,27.431 8.46,26.168 6.348,26.16L6,26.16C4.895,26.16 4,25.265 4,24.16C4,23.055 4.895,22.16 6,22.16L6.18,22.16C8.272,22.112 10.099,20.89 10.933,19.044L11.077,18.69C11.905,16.825 11.485,14.51 9.97,12.961L9.834,12.826C9.458,12.45 9.247,11.941 9.247,11.41C9.247,10.879 9.458,10.37 9.833,9.995C10.21,9.618 10.719,9.407 11.25,9.407C11.781,9.407 12.29,9.618 12.665,9.993L12.786,10.114L13.069,10.373C14.428,11.525 16.251,11.917 17.936,11.445L18,11.36C18.271,11.36 18.539,11.305 18.788,11.198C20.729,10.366 21.992,8.46 22,6.348L22,6C22,4.895 22.895,4 24,4ZM24,16C19.582,16 16,19.582 16,24C16,28.418 19.582,32 24,32C28.418,32 32,28.418 32,24C32,19.582 28.418,16 24,16ZM24,20C26.209,20 28,21.791 28,24C28,26.209 26.209,28 24,28C21.791,28 20,26.209 20,24C20,21.791 21.791,20 24,20Z" clip-rule="evenodd" fill-rule="evenodd" fill="#0A1629"/>
</svg>
