<svg width="42" height="32" viewBox="0 0 42 32" fill="none" xmlns="http://www.w3.org/2000/svg" xmlns:xlink="http://www.w3.org/1999/xlink">
<path d="M41.427,11.932C40.854,11.139 39.936,10.668 38.959,10.667L36.506,10.667L36.478,8.52C36.45,6.331 34.668,4.571 32.479,4.571L20.95,4.571C20.516,4.571 20.094,4.43 19.747,4.169L15.281,0.805C14.588,0.283 13.743,0 12.875,0L4,0C1.791,0 0,1.791 0,4L0,28C0,30.209 1.791,32 4,32L33.194,32C34.916,32 36.445,30.898 36.989,29.264L41.845,14.678C42.153,13.749 41.997,12.727 41.427,11.932ZM12.515,3.048C12.948,3.048 13.37,3.188 13.716,3.449L18.456,7.009C18.983,7.404 19.623,7.618 20.281,7.619L31.464,7.619C32.568,7.619 33.464,8.514 33.464,9.619L33.464,10.667L8.702,10.667C7.392,10.665 6.229,11.505 5.816,12.751L3.042,21.086L3.042,5.048C3.042,3.943 3.938,3.048 5.042,3.048L12.515,3.048Z" clip-rule="evenodd" fill-rule="evenodd" fill="#7D8592"/>
</svg>
