<svg width="40" height="40" viewBox="0 0 40 40" fill="none" xmlns="http://www.w3.org/2000/svg" xmlns:xlink="http://www.w3.org/1999/xlink">
<path d="M20.234,0L19.234,0C16.284,-0.007 13.369,0.683 10.732,2.015C4.304,5.228 0.237,11.804 0.234,18.999L0.246,19.736C0.328,21.943 0.799,24.119 1.636,26.161L1.848,26.65L0.457,30.006C-0.169,31.517 -0.151,33.217 0.505,34.714L0.656,35.033C2.089,37.844 5.484,39.082 8.41,37.798L11.606,36.394L12.073,36.598C14.342,37.528 16.777,38.007 19.239,38C26.43,37.997 33.006,33.93 36.223,27.494C37.551,24.865 38.242,21.95 38.234,18.995L38.234,18C37.708,8.421 30.276,0.822 20.878,0.04L20.234,0ZM19.229,4L20.15,3.998L20.124,3.997C27.737,4.417 33.817,10.497 34.237,18.11L34.234,19C34.24,21.33 33.697,23.623 32.649,25.699C30.105,30.787 24.914,33.998 19.233,34C16.904,34.006 14.611,33.463 12.536,32.415C12.003,32.146 11.377,32.129 10.83,32.369L6.803,34.135C5.792,34.579 4.612,34.119 4.168,33.107C3.95,32.608 3.944,32.041 4.152,31.538L5.881,27.366C6.105,26.828 6.082,26.219 5.819,25.699C4.771,23.623 4.228,21.33 4.234,19.005C4.236,13.321 7.447,8.129 12.528,5.589C14.611,4.537 16.904,3.994 19.229,4Z" clip-rule="evenodd" fill-rule="evenodd" fill="#FFFFFF"/>
</svg>
