<svg width="40" height="40" viewBox="0 0 40 40" fill="none" xmlns="http://www.w3.org/2000/svg" xmlns:xlink="http://www.w3.org/1999/xlink">
<path d="M20,0C8.954,0 0,8.954 0,20C0,31.046 8.954,40 20,40C31.046,40 40,31.046 40,20C40,8.954 31.046,0 20,0ZM20,4C28.837,4 36,11.163 36,20C36,28.837 28.837,36 20,36C11.163,36 4,28.837 4,20C4,11.163 11.163,4 20,4ZM21.987,9.767C21.871,8.772 21.026,8 20,8C18.895,8 18,8.895 18,10L18,20.5L18.017,20.762C18.108,21.449 18.551,22.049 19.198,22.332L27.198,25.832L27.417,25.913C28.375,26.206 29.421,25.741 29.832,24.802L29.913,24.583C30.206,23.625 29.741,22.579 28.802,22.168L22,19.192L22,10L21.987,9.767Z" clip-rule="evenodd" fill-rule="evenodd" fill="#7D8592"/>
</svg>
