<svg width="32" height="32" viewBox="0 0 32 32" fill="none" xmlns="http://www.w3.org/2000/svg" xmlns:xlink="http://www.w3.org/1999/xlink">
<path d="M16,32C24.837,32 32,24.837 32,16C32,7.163 24.837,0 16,0C7.163,0 0,7.163 0,16C0,24.837 7.163,32 16,32ZM17.987,9.767C17.871,8.772 17.026,8 16,8C14.895,8 14,8.895 14,10L14,17.5L14.014,17.739C14.1,18.449 14.56,19.067 15.231,19.346L21.231,21.846L21.451,21.923C22.414,22.199 23.452,21.716 23.846,20.769L23.923,20.549C24.199,19.586 23.716,18.548 22.769,18.154L18,16.166L18,10L17.987,9.767Z" clip-rule="evenodd" fill-rule="evenodd" fill="#7D8592"/>
</svg>
