<svg width="40" height="40" viewBox="0 0 40 40" fill="none" xmlns="http://www.w3.org/2000/svg" xmlns:xlink="http://www.w3.org/1999/xlink">
<path d="M37.72,12.74L23.86,1.66C21.72,-0.06 18.26,-0.06 16.14,1.64L2.28,12.74C0.72,13.98 -0.28,16.6 0.06,18.56L2.72,34.48C3.2,37.32 5.92,39.62 8.8,39.62L31.2,39.62C34.06,39.62 36.8,37.3 37.28,34.48L39.94,18.56C40.26,16.6 39.26,13.98 37.72,12.74ZM20,27C17.24,27 15,24.76 15,22C15,19.24 17.24,17 20,17C22.76,17 25,19.24 25,22C25,24.76 22.76,27 20,27Z" fill="#D21B21"/>
</svg>
