<svg width="54" height="54" viewBox="0 0 54 54" fill="none" xmlns="http://www.w3.org/2000/svg" xmlns:xlink="http://www.w3.org/1999/xlink">
<path d="M53.562,38.221C53.126,37.473 52.419,36.937 51.573,36.712C50.726,36.487 49.844,36.601 49.088,37.034L39.801,42.347C39.377,41.677 38.706,41.157 37.876,40.937L23.455,37.107C22.916,36.965 22.41,36.948 21.864,37.055L16.337,38.138L16.337,36.296C16.337,35.933 16.039,35.638 15.672,35.638L8.167,35.638C7.801,35.638 7.503,35.933 7.503,36.296L7.503,37.289L0.665,37.289C0.298,37.289 0,37.584 0,37.947L0,51.692C0,52.055 0.298,52.35 0.665,52.35L7.503,52.35L7.503,53.341C7.503,53.705 7.801,54 8.167,54L15.67,54C16.036,54 16.334,53.705 16.334,53.341L16.334,51.5L21.917,52.594C22.332,52.675 22.708,52.713 23.121,52.713C23.165,52.713 23.209,52.713 23.253,52.711L34.246,52.505C34.829,52.508 35.398,52.36 35.901,52.073L52.364,42.655C53.119,42.222 53.66,41.522 53.887,40.683C54.113,39.845 53.998,38.97 53.562,38.221ZM1.329,51.032L1.329,38.606L7.503,38.606L7.503,51.033L1.329,51.033L1.329,51.032ZM15.005,52.683L8.832,52.683L8.832,36.955L15.005,36.955L15.005,52.683ZM52.602,40.343C52.467,40.842 52.146,41.258 51.698,41.515L35.235,50.933C34.936,51.105 34.597,51.192 34.248,51.189C34.242,51.189 34.235,51.189 34.228,51.189L23.227,51.395C22.854,51.402 22.54,51.375 22.174,51.303L16.333,50.159L16.333,39.481L22.119,38.348C22.468,38.28 22.764,38.288 23.108,38.381L37.529,42.21C38.174,42.381 38.657,42.855 38.863,43.437C38.871,43.466 38.88,43.493 38.891,43.52C38.992,43.852 39.004,44.214 38.906,44.572C38.772,45.067 38.45,45.482 37.998,45.741C37.546,46 37.022,46.069 36.522,45.936L26.794,43.354C26.44,43.259 26.076,43.468 25.98,43.819C25.885,44.17 26.096,44.531 26.45,44.626L36.178,47.208C37.02,47.432 37.903,47.316 38.663,46.881C39.422,46.447 39.965,45.747 40.19,44.913C40.31,44.472 40.331,44.028 40.267,43.602L49.751,38.176C50.68,37.644 51.873,37.961 52.409,38.882C52.67,39.325 52.737,39.844 52.602,40.343ZM0.898,33.368L52.986,33.368C53.353,33.368 53.651,33.073 53.651,32.71L53.651,0.659C53.651,0.295 53.353,0 52.986,0L0.898,0C0.532,0 0.234,0.295 0.234,0.659L0.234,32.71C0.234,33.074 0.531,33.368 0.898,33.368ZM1.563,1.317L52.322,1.317L52.322,32.051L1.563,32.051L1.563,1.317ZM47.952,9.757C45.664,9.757 43.803,7.913 43.803,5.647C43.803,5.284 43.505,4.988 43.139,4.988L10.746,4.988C10.379,4.988 10.081,5.284 10.081,5.647C10.081,7.913 8.22,9.757 5.933,9.757C5.566,9.757 5.268,10.053 5.268,10.416L5.268,22.952C5.268,23.315 5.566,23.611 5.933,23.611C8.22,23.611 10.081,25.455 10.081,27.721C10.081,28.084 10.379,28.38 10.746,28.38L43.139,28.38C43.505,28.38 43.803,28.084 43.803,27.721C43.803,25.455 45.664,23.611 47.952,23.611C48.318,23.611 48.616,23.315 48.616,22.952L48.616,10.416C48.616,10.053 48.318,9.757 47.952,9.757ZM47.287,22.333C44.797,22.633 42.818,24.594 42.515,27.061L11.371,27.061C11.068,24.594 9.089,22.633 6.599,22.333L6.599,11.035C9.089,10.735 11.068,8.774 11.371,6.307L42.515,6.307C42.818,8.774 44.797,10.735 47.287,11.035L47.287,22.333ZM26.942,10.1C23.278,10.1 20.297,13.053 20.297,16.684C20.297,20.315 23.278,23.268 26.942,23.268C30.606,23.268 33.587,20.315 33.587,16.684C33.587,13.053 30.606,10.1 26.942,10.1ZM26.942,21.951C24.011,21.951 21.626,19.588 21.626,16.684C21.626,13.78 24.011,11.417 26.942,11.417C29.873,11.417 32.258,13.78 32.258,16.684C32.258,19.588 29.874,21.951 26.942,21.951ZM40.807,13.538C39.056,13.538 37.631,14.95 37.631,16.685C37.631,18.42 39.056,19.831 40.807,19.831C42.558,19.831 43.983,18.419 43.983,16.685C43.983,14.95 42.558,13.538 40.807,13.538ZM40.807,18.514C39.789,18.514 38.961,17.693 38.961,16.685C38.961,15.678 39.789,14.855 40.807,14.855C41.825,14.855 42.654,15.676 42.654,16.685C42.654,17.694 41.825,18.514 40.807,18.514ZM13.078,13.538C11.326,13.538 9.902,14.95 9.902,16.685C9.902,18.42 11.326,19.831 13.078,19.831C14.829,19.831 16.253,18.419 16.253,16.685C16.252,14.95 14.828,13.538 13.078,13.538ZM13.078,18.514C12.06,18.514 11.231,17.693 11.231,16.685C11.231,15.678 12.06,14.855 13.078,14.855C14.096,14.855 14.924,15.676 14.924,16.685C14.924,17.694 14.096,18.514 13.078,18.514Z" fill="#00D097"/>
</svg>
