<svg width="68" height="68" viewBox="0 0 68 68" fill="none" xmlns="http://www.w3.org/2000/svg" xmlns:xlink="http://www.w3.org/1999/xlink">
<path d="M33.993,14.288C23.131,14.288 14.288,23.131 14.288,33.993C14.288,44.855 23.131,53.699 33.993,53.699C44.855,53.699 53.699,44.855 53.699,33.993C53.699,23.131 44.855,14.288 33.993,14.288ZM33.993,51.574C24.3,51.574 16.412,43.687 16.412,33.993C16.412,24.3 24.3,16.412 33.993,16.412C43.687,16.412 51.574,24.3 51.574,33.993C51.574,43.687 43.687,51.574 33.993,51.574ZM65.53,28.894L60.856,25.176C59.621,24.194 59.05,22.799 59.223,21.233L59.9,15.297C60.139,13.265 59.488,11.406 58.028,9.959C56.567,8.498 54.721,7.861 52.676,8.1L46.741,8.777C45.174,8.95 43.78,8.379 42.797,7.144L39.092,2.47C37.844,0.876 36.025,0 33.993,0C31.935,0 30.169,0.85 28.894,2.47L25.176,7.144C24.207,8.379 22.799,8.95 21.233,8.777L15.297,8.1C13.265,7.861 11.406,8.498 9.959,9.959C8.498,11.42 7.861,13.265 8.087,15.31L8.764,21.246C8.937,22.813 8.366,24.207 7.131,25.19L2.457,28.908C0.85,30.169 0,31.935 0,33.993C0,36.025 0.876,37.844 2.47,39.092L7.144,42.797C8.379,43.78 8.95,45.174 8.777,46.741L8.1,52.676C7.861,54.721 8.498,56.567 9.959,58.028C11.42,59.488 13.265,60.126 15.31,59.9L21.246,59.223C22.813,59.037 24.207,59.621 25.19,60.856L28.908,65.53C30.182,67.137 31.948,68 34.007,68C36.038,68 37.857,67.124 39.106,65.53L42.81,60.856C43.793,59.621 45.187,59.05 46.754,59.223L52.69,59.9C54.735,60.139 56.58,59.488 58.041,58.028C59.502,56.567 60.139,54.721 59.9,52.676L59.223,46.741C59.037,45.187 59.621,43.78 60.856,42.797L65.53,39.092C67.124,37.831 68,36.012 68,33.993C67.987,31.935 67.137,30.169 65.53,28.894ZM64.202,37.433L59.528,41.151C57.722,42.585 56.846,44.709 57.112,46.993L57.789,52.929C57.948,54.323 57.523,55.545 56.527,56.527C55.531,57.523 54.31,57.948 52.915,57.789L46.98,57.112C44.696,56.846 42.571,57.736 41.137,59.528L37.419,64.202C36.556,65.291 35.374,65.862 33.98,65.862C32.599,65.862 31.404,65.291 30.541,64.202L26.823,59.528C25.561,57.935 23.742,57.058 21.764,57.058C21.498,57.058 21.233,57.072 20.967,57.098L15.031,57.775C13.65,57.935 12.416,57.497 11.433,56.514C10.437,55.518 10.012,54.296 10.171,52.902L10.849,46.967C11.101,44.683 10.225,42.545 8.419,41.124L3.745,37.406C2.696,36.569 2.125,35.388 2.125,33.993C2.125,32.612 2.696,31.417 3.784,30.554L8.458,26.836C10.264,25.415 11.141,23.277 10.889,20.994L10.211,15.058C10.052,13.677 10.49,12.442 11.473,11.459C12.455,10.477 13.704,10.039 15.071,10.198L21.007,10.875C23.291,11.141 25.429,10.251 26.849,8.445L30.567,3.771C31.417,2.696 32.612,2.125 33.993,2.125C35.388,2.125 36.569,2.696 37.433,3.784L41.151,8.459C42.585,10.264 44.709,11.141 46.993,10.888L52.929,10.211C54.323,10.052 55.531,10.477 56.541,11.473C57.523,12.455 57.961,13.704 57.802,15.071L57.125,21.007C56.859,23.291 57.749,25.429 59.541,26.849L64.216,30.567C65.304,31.431 65.875,32.612 65.875,34.007C65.862,35.388 65.291,36.569 64.202,37.433ZM41.496,28.005L28.084,41.416C27.872,41.629 27.606,41.722 27.327,41.722C27.062,41.722 26.783,41.615 26.571,41.416C26.159,41.004 26.159,40.327 26.571,39.916L39.982,26.504C40.394,26.093 41.071,26.093 41.483,26.504C41.907,26.916 41.907,27.593 41.496,28.005ZM29.426,33.887C30.621,33.887 31.736,33.422 32.573,32.586C33.422,31.749 33.887,30.621 33.887,29.439C33.887,28.244 33.422,27.128 32.573,26.278C30.833,24.539 28.005,24.539 26.265,26.278C24.526,28.018 24.526,30.846 26.265,32.586C27.115,33.422 28.23,33.887 29.426,33.887ZM27.766,27.766C28.682,26.863 30.156,26.863 31.072,27.766C31.51,28.204 31.763,28.801 31.763,29.426C31.763,30.05 31.524,30.634 31.072,31.072C30.634,31.51 30.05,31.749 29.426,31.763C28.801,31.763 28.217,31.524 27.779,31.072C26.863,30.169 26.863,28.682 27.766,27.766ZM38.575,34.1C37.379,34.1 36.264,34.564 35.414,35.401C34.564,36.251 34.1,37.366 34.113,38.561C34.113,39.756 34.578,40.872 35.427,41.708C36.277,42.558 37.393,43.01 38.588,43.01C39.783,43.01 40.898,42.545 41.735,41.708C42.585,40.872 43.049,39.743 43.049,38.561C43.049,37.366 42.585,36.251 41.748,35.401C40.885,34.564 39.756,34.1 38.575,34.1ZM40.221,40.221C39.783,40.659 39.199,40.898 38.575,40.912C37.95,40.912 37.366,40.673 36.915,40.221C36.476,39.783 36.237,39.199 36.224,38.575C36.224,37.95 36.463,37.366 36.915,36.915C37.353,36.476 37.937,36.224 38.561,36.224C39.185,36.224 39.77,36.463 40.208,36.915C40.646,37.353 40.898,37.95 40.898,38.575C40.898,39.185 40.659,39.77 40.221,40.221Z" fill="#F6C000"/>
</svg>
