<svg width="72" height="72" viewBox="0 0 72 72" fill="none" xmlns="http://www.w3.org/2000/svg" xmlns:xlink="http://www.w3.org/1999/xlink">
<path d="M21.326,31.184L21.323,31.23C21.146,34.36 22.887,37.293 25.759,38.698L25.788,38.713C26.801,39.201 27.631,40.005 28.154,41.006L28.166,41.027C29.613,43.803 32.606,45.486 35.797,45.317L35.846,45.315C37.003,45.25 38.152,45.55 39.131,46.175C41.833,47.878 45.263,47.878 47.965,46.175C48.944,45.55 50.093,45.25 51.25,45.315L51.298,45.317C54.484,45.488 57.481,43.803 58.932,41.023L58.939,41.008C59.464,40.005 60.296,39.199 61.312,38.71L61.336,38.698C64.208,37.292 65.949,34.36 65.771,31.229L65.768,31.186C65.709,30.083 66.013,28.992 66.633,28.081C68.42,25.457 68.42,21.997 66.634,19.371C66.014,18.462 65.709,17.371 65.768,16.268L65.771,16.222C65.949,13.091 64.208,10.16 61.333,8.753L61.307,8.739C60.296,8.253 59.468,7.452 58.944,6.455L58.929,6.425C57.481,3.649 54.484,1.967 51.298,2.135L51.249,2.137C50.093,2.203 48.944,1.902 47.965,1.277L47.964,1.277C45.262,-0.426 41.832,-0.426 39.13,1.277C38.151,1.901 37.002,2.202 35.845,2.137L35.797,2.134C32.61,1.964 29.614,3.648 28.167,6.424L28.156,6.444C27.631,7.446 26.801,8.251 25.787,8.74L25.759,8.753C22.887,10.159 21.146,13.091 21.324,16.222L21.327,16.266C21.386,17.368 21.082,18.46 20.461,19.369C18.675,21.995 18.675,25.456 20.461,28.08C21.081,28.99 21.386,30.081 21.326,31.184ZM22.668,20.903C23.626,19.499 24.095,17.815 24.003,16.113L24.001,16.067C23.906,13.993 25.062,12.066 26.928,11.184L26.951,11.173C28.482,10.435 29.736,9.219 30.526,7.706L30.539,7.681C31.501,5.836 33.515,4.718 35.654,4.832L35.701,4.834C37.413,4.931 39.111,4.487 40.559,3.562C42.387,2.41 44.707,2.41 46.535,3.562C47.983,4.486 49.682,4.931 51.392,4.835L51.44,4.832C53.589,4.719 55.593,5.836 56.552,7.676L56.57,7.709C57.361,9.22 58.613,10.434 60.142,11.172L60.164,11.183C62.06,12.111 63.21,14.028 63.094,16.068L63.092,16.116C63,17.817 63.47,19.501 64.428,20.905C65.585,22.606 65.584,24.848 64.426,26.548C63.469,27.953 63,29.637 63.092,31.338L63.094,31.384C63.21,33.423 62.06,35.341 60.163,36.27L60.144,36.279C58.611,37.019 57.357,38.236 56.565,39.751L56.556,39.771C55.593,41.616 53.583,42.735 51.44,42.62L51.394,42.617C49.682,42.521 47.983,42.966 46.534,43.89C44.707,45.041 42.387,45.041 40.56,43.89C39.243,43.049 37.715,42.603 36.156,42.605C36.005,42.605 35.853,42.609 35.701,42.617L35.654,42.619C33.543,42.754 31.546,41.641 30.537,39.768L30.524,39.742C29.734,38.232 28.483,37.019 26.955,36.281L26.93,36.269C25.033,35.34 23.883,33.423 23.999,31.384L24.002,31.336C24.093,29.634 23.623,27.95 22.666,26.546C21.509,24.846 21.51,22.604 22.668,20.905L22.668,20.903Z" fill="#7239EA"/>
<path d="M34.898,37.687C35.526,38.082 36.352,37.889 36.744,37.256L52.624,11.628C52.884,11.219 52.905,10.7 52.68,10.271C52.455,9.841 52.018,9.567 51.536,9.552C51.054,9.537 50.601,9.783 50.35,10.198L34.471,35.826C34.079,36.459 34.27,37.292 34.898,37.687Z" fill="#7239EA"/>
<path d="M36.321,23.793C39.585,23.793 42.241,20.742 42.241,16.992C42.241,13.242 39.585,10.191 36.321,10.191C33.057,10.191 30.401,13.242 30.401,16.992C30.401,20.742 33.057,23.793 36.321,23.793ZM36.321,12.892C38.107,12.892 39.56,14.731 39.56,16.992C39.56,19.252 38.107,21.092 36.321,21.092C34.535,21.092 33.082,19.251 33.082,16.992C33.082,14.732 34.535,12.892 36.321,12.892Z" fill="#7239EA"/>
<path d="M44.854,30.462C44.854,34.212 47.509,37.262 50.773,37.262C54.037,37.262 56.694,34.211 56.694,30.462C56.694,26.713 54.038,23.662 50.774,23.662C47.509,23.662 44.854,26.711 44.854,30.462ZM54.013,30.462C54.013,32.722 52.56,34.561 50.773,34.561C48.988,34.561 47.535,32.722 47.535,30.462C47.535,28.201 48.988,26.362 50.773,26.362C52.56,26.362 54.013,28.2 54.013,30.462Z" fill="#7239EA"/>
<path d="M71.826,52.887C70.051,49.713 66.114,48.504 62.884,50.141L52.383,55.139C50.934,52.423 48.153,50.694 45.092,50.607L35.398,50.338C33.863,50.294 32.357,49.902 30.992,49.192L30.006,48.677C24.956,46.025 18.936,46.032 13.891,48.694L13.952,46.443C13.972,45.697 13.389,45.076 12.649,45.056L2.019,44.761C1.279,44.74 0.663,45.328 0.643,46.074L0.001,69.574C-0.02,70.32 0.563,70.941 1.304,70.961L11.933,71.256L11.971,71.256C12.697,71.256 13.29,70.673 13.311,69.943L13.341,68.818L16.102,67.329C17.186,66.741 18.454,66.602 19.638,66.939L36.128,71.602C36.157,71.61 36.186,71.617 36.215,71.623C37.407,71.875 38.622,72.001 39.84,72C42.419,72.001 44.968,71.441 47.311,70.357C47.369,70.331 47.425,70.301 47.478,70.266L71.387,54.686C71.983,54.298 72.176,53.508 71.826,52.887ZM2.718,68.298L3.286,47.499L11.236,47.719L10.667,68.519L2.718,68.298ZM46.103,67.944C43.191,69.268 39.939,69.633 36.809,68.989L20.363,64.339C18.512,63.812 16.53,64.031 14.837,64.948L13.426,65.709L13.804,51.879C18.275,48.883 24.01,48.575 28.773,51.075L29.759,51.59C31.483,52.486 33.385,52.982 35.325,53.038L45.019,53.307C47.741,53.385 50.054,55.338 50.606,58.026L36.167,57.626C35.427,57.605 34.811,58.193 34.791,58.939C34.77,59.684 35.354,60.306 36.094,60.326L52.029,60.768L52.067,60.768C52.792,60.767 53.386,60.185 53.406,59.454C53.422,58.867 53.378,58.28 53.276,57.702L64.045,52.575L64.076,52.56C65.604,51.781 67.452,52.041 68.708,53.213L46.103,67.944Z" fill="#7239EA"/>
</svg>
