<svg width="30" height="30" viewBox="0 0 30 30" fill="none" xmlns="http://www.w3.org/2000/svg">
<path d="M14.9971 6.30346C10.205 6.30346 6.30346 10.205 6.30346 14.9971C6.30346 19.7891 10.205 23.6907 14.9971 23.6907C19.7891 23.6907 23.6907 19.7891 23.6907 14.9971C23.6907 10.205 19.7891 6.30346 14.9971 6.30346ZM14.9971 22.7534C10.7206 22.7534 7.24077 19.2736 7.24077 14.9971C7.24077 10.7206 10.7206 7.24077 14.9971 7.24077C19.2736 7.24077 22.7534 10.7206 22.7534 14.9971C22.7534 19.2736 19.2736 22.7534 14.9971 22.7534ZM28.9104 12.7475L26.8483 11.1072C26.3035 10.6737 26.0516 10.0586 26.1277 9.36731L26.4265 6.74868C26.5319 5.85237 26.2449 5.03222 25.6005 4.39367C24.9561 3.74927 24.1418 3.46807 23.2396 3.57352L20.621 3.87229C19.9297 3.94845 19.3146 3.69654 18.8811 3.15173L17.2466 1.08963C16.696 0.386643 15.8934 0 14.9971 0C14.089 0 13.3099 0.374927 12.7475 1.08963L11.1072 3.15173C10.6796 3.69654 10.0586 3.94845 9.36731 3.87229L6.74868 3.57352C5.85237 3.46807 5.03222 3.74927 4.39367 4.39367C3.74927 5.03808 3.46807 5.85237 3.56766 6.75454L3.86643 9.37317C3.94259 10.0644 3.69069 10.6796 3.14587 11.1131L1.08377 12.7534C0.374927 13.3099 0 14.089 0 14.9971C0 15.8934 0.386643 16.696 1.08963 17.2466L3.15173 18.8811C3.69654 19.3146 3.94845 19.9297 3.87229 20.621L3.57352 23.2396C3.46807 24.1418 3.74927 24.9561 4.39367 25.6005C5.03808 26.2449 5.85237 26.5261 6.75454 26.4265L9.37317 26.1277C10.0644 26.0457 10.6796 26.3035 11.1131 26.8483L12.7534 28.9104C13.3158 29.6192 14.0949 30 15.0029 30C15.8992 30 16.7018 29.6134 17.2525 28.9104L18.8869 26.8483C19.3204 26.3035 19.9356 26.0516 20.6268 26.1277L23.2455 26.4265C24.1476 26.5319 24.9619 26.2449 25.6063 25.6005C26.2507 24.9561 26.5319 24.1418 26.4265 23.2396L26.1277 20.621C26.0457 19.9356 26.3035 19.3146 26.8483 18.8811L28.9104 17.2466C29.6134 16.6901 30 15.8875 30 14.9971C29.9941 14.089 29.6192 13.3099 28.9104 12.7475ZM28.3245 16.5144L26.2624 18.1547C25.4657 18.7873 25.0791 19.7247 25.1963 20.7323L25.495 23.3509C25.5653 23.966 25.3779 24.505 24.9385 24.9385C24.4991 25.3779 23.9602 25.5653 23.3451 25.495L20.7264 25.1963C19.7188 25.0791 18.7815 25.4716 18.1488 26.2624L16.5085 28.3245C16.1277 28.8049 15.6063 29.0568 14.9912 29.0568C14.382 29.0568 13.8547 28.8049 13.4739 28.3245L11.8336 26.2624C11.2771 25.5595 10.4745 25.1728 9.60164 25.1728C9.48448 25.1728 9.36731 25.1787 9.25015 25.1904L6.63152 25.4892C6.02226 25.5595 5.47745 25.3661 5.04394 24.9326C4.60457 24.4933 4.41711 23.9543 4.4874 23.3392L4.78617 20.7206C4.89748 19.7129 4.51084 18.7698 3.71412 18.1429L1.65202 16.5026C1.18922 16.1336 0.937317 15.6122 0.937317 14.9971C0.937317 14.3878 1.18922 13.8606 1.6696 13.4798L3.73169 11.8395C4.52841 11.2127 4.91506 10.2695 4.80375 9.26186L4.50498 6.64323C4.43468 6.03398 4.628 5.48916 5.06151 5.05565C5.49502 4.62214 6.04569 4.42882 6.64909 4.49912L9.26772 4.79789C10.2753 4.91506 11.2185 4.52255 11.8453 3.72583L13.4856 1.66374C13.8606 1.18922 14.3878 0.937317 14.9971 0.937317C15.6122 0.937317 16.1336 1.18922 16.5144 1.6696L18.1547 3.73169C18.7873 4.52841 19.7247 4.91506 20.7323 4.80375L23.3509 4.50498C23.966 4.43468 24.4991 4.62214 24.9443 5.06151C25.3779 5.49502 25.5712 6.04569 25.5009 6.64909L25.2021 9.26772C25.0849 10.2753 25.4774 11.2185 26.2683 11.8453L28.3304 13.4856C28.8108 13.8664 29.0627 14.3878 29.0627 15.0029C29.0568 15.6122 28.8049 16.1336 28.3245 16.5144ZM18.307 12.355L12.3902 18.2718C12.2964 18.3656 12.1793 18.4066 12.0562 18.4066C11.9391 18.4066 11.8161 18.3597 11.7223 18.2718C11.5407 18.0902 11.5407 17.7914 11.7223 17.6098L17.6391 11.693C17.8207 11.5114 18.1195 11.5114 18.3011 11.693C18.4886 11.8746 18.4886 12.1734 18.307 12.355ZM12.9818 14.9502C13.5091 14.9502 14.0012 14.7452 14.3702 14.3761C14.7452 14.007 14.9502 13.5091 14.9502 12.9877C14.9502 12.4605 14.7452 11.9684 14.3702 11.5934C13.6028 10.826 12.355 10.826 11.5876 11.5934C10.8202 12.3609 10.8202 13.6087 11.5876 14.3761C11.9625 14.7452 12.4546 14.9502 12.9818 14.9502ZM12.2496 12.2496C12.6538 11.8512 13.304 11.8512 13.7083 12.2496C13.9016 12.4429 14.0129 12.7065 14.0129 12.9818C14.0129 13.2572 13.9074 13.5149 13.7083 13.7083C13.5149 13.9016 13.2572 14.007 12.9818 14.0129C12.7065 14.0129 12.4487 13.9074 12.2554 13.7083C11.8512 13.3099 11.8512 12.6538 12.2496 12.2496ZM17.0182 15.0439C16.4909 15.0439 15.9988 15.249 15.6239 15.618C15.249 15.993 15.0439 16.4851 15.0498 17.0123C15.0498 17.5395 15.2548 18.0316 15.6298 18.4007C16.0047 18.7756 16.4968 18.9748 17.024 18.9748C17.5513 18.9748 18.0434 18.7698 18.4124 18.4007C18.7873 18.0316 18.9924 17.5337 18.9924 17.0123C18.9924 16.4851 18.7873 15.993 18.4183 15.618C18.0375 15.249 17.5395 15.0439 17.0182 15.0439ZM17.7446 17.7446C17.5513 17.9379 17.2935 18.0434 17.0182 18.0492C16.7428 18.0492 16.4851 17.9438 16.2859 17.7446C16.0926 17.5513 15.9871 17.2935 15.9813 17.0182C15.9813 16.7428 16.0867 16.4851 16.2859 16.2859C16.4792 16.0926 16.737 15.9813 17.0123 15.9813C17.2876 15.9813 17.5454 16.0867 17.7387 16.2859C17.932 16.4792 18.0434 16.7428 18.0434 17.0182C18.0434 17.2876 17.9379 17.5454 17.7446 17.7446Z" fill="#F6C000"/>
</svg>
