<svg width="26" height="27" viewBox="0 0 26 27" fill="none" xmlns="http://www.w3.org/2000/svg">
<path d="M25.695 20.6017H20.138C20.0571 20.6017 19.9796 20.6351 19.9224 20.6944C19.8652 20.7537 19.833 20.8342 19.833 20.9181V26.6836C19.833 26.7675 19.8652 26.848 19.9224 26.9073C19.9796 26.9667 20.0571 27 20.138 27H25.695C25.7759 27 25.8535 26.9667 25.9107 26.9073C25.9679 26.848 26 26.7675 26 26.6836V20.9181C26 20.8342 25.9679 20.7537 25.9107 20.6944C25.8535 20.6351 25.7759 20.6017 25.695 20.6017ZM25.3901 26.3672H20.443V21.2346H25.3901V26.3672ZM16.2728 23.8009V13.8164H14.6891C14.6082 13.8164 14.5307 13.7831 14.4735 13.7237C14.4163 13.6644 14.3841 13.5839 14.3841 13.5C14.3841 13.4161 14.4163 13.3356 14.4735 13.2763C14.5307 13.2169 14.6082 13.1836 14.6891 13.1836H16.2728V3.19913C16.2728 3.11521 16.3049 3.03474 16.3621 2.9754C16.4193 2.91606 16.4968 2.88272 16.5777 2.88272H19.0549C19.1358 2.88272 19.2133 2.91606 19.2705 2.9754C19.3277 3.03474 19.3598 3.11521 19.3598 3.19913C19.3598 3.28305 19.3277 3.36353 19.2705 3.42286C19.2133 3.4822 19.1358 3.51554 19.0549 3.51554H16.8827V13.1836H19.0549C19.1358 13.1836 19.2133 13.2169 19.2705 13.2763C19.3277 13.3356 19.3598 13.4161 19.3598 13.5C19.3598 13.5839 19.3277 13.6644 19.2705 13.7237C19.2133 13.7831 19.1358 13.8164 19.0549 13.8164H16.8827V23.4845H19.0549C19.1358 23.4845 19.2134 23.5179 19.2706 23.5772C19.3278 23.6365 19.3599 23.717 19.3599 23.8009C19.3599 23.8848 19.3278 23.9653 19.2706 24.0247C19.2134 24.084 19.1358 24.1173 19.0549 24.1173H16.5777C16.4968 24.1173 16.4193 24.084 16.3621 24.0247C16.3049 23.9653 16.2728 23.8848 16.2728 23.8009ZM25.695 10.3009H20.138C20.0571 10.3009 19.9796 10.3343 19.9224 10.3936C19.8652 10.4529 19.833 10.5334 19.833 10.6173V16.3828C19.833 16.4667 19.8652 16.5472 19.9224 16.6065C19.9796 16.6658 20.0571 16.6992 20.138 16.6992H25.695C25.7759 16.6992 25.8535 16.6658 25.9107 16.6065C25.9679 16.5472 26 16.4667 26 16.3828V10.6173C26 10.5334 25.9679 10.4529 25.9107 10.3935C25.8535 10.3342 25.7759 10.3009 25.695 10.3009ZM25.3901 16.0664H20.443V10.9337H25.3901V16.0664ZM25.695 0H20.138C20.0571 0 19.9796 0.0333356 19.9224 0.0926732C19.8652 0.152011 19.833 0.23249 19.833 0.316406V6.08186C19.833 6.16577 19.8652 6.24625 19.9224 6.30559C19.9796 6.36493 20.0571 6.39826 20.138 6.39826H25.695C25.7759 6.39826 25.8535 6.36493 25.9107 6.30559C25.9679 6.24625 26 6.16577 26 6.08186V0.316406C26 0.23249 25.9679 0.152011 25.9107 0.0926732C25.8535 0.0333356 25.7759 0 25.695 0ZM25.3901 5.76545H20.443V0.632812H25.3901V5.76545ZM13.8578 20.3723V6.62766C13.8578 6.54374 13.8256 6.46326 13.7684 6.40392C13.7113 6.34459 13.6337 6.31125 13.5528 6.31125H0.304967C0.224085 6.31125 0.146515 6.34459 0.0893229 6.40392C0.0321304 6.46326 0 6.54374 0 6.62766V20.3723C0 20.4563 0.0321304 20.5367 0.0893229 20.5961C0.146515 20.6554 0.224085 20.6888 0.304967 20.6888H13.5528C13.6337 20.6888 13.7113 20.6554 13.7684 20.5961C13.8256 20.5367 13.8578 20.4563 13.8578 20.3723ZM13.2478 20.0559H0.609935V6.94406H13.2478V20.0559Z" fill="#F1416C"/>
</svg>
